<svg width="40" height="40" viewBox="0 0 40 40" fill="none" xmlns="http://www.w3.org/2000/svg"><g filter="url(#filter0_i)"><path fill-rule="evenodd" clip-rule="evenodd" d="M20 0C8.9543 0 0 8.9543 0 20C0 31.0457 8.9543 40 20 40C31.0457 40 40 31.0457 40 20C40 8.9543 31.0457 0 20 0ZM12.421 8.66667H28.2457C29.5802 8.66667 30.6667 9.74 30.6667 11.07V32L28.1276 29.7833L26.6987 28.4767L25.187 27.0883L25.813 29.2467H12.421C11.0865 29.2467 10 28.1733 10 26.8433V11.07C10 9.74 11.0865 8.66667 12.421 8.66667Z" fill="#13ECAB"></path><path fill-rule="evenodd" clip-rule="evenodd" d="M23.6871 23.9034C23.6871 23.9034 23.262 23.4017 22.9077 22.9584C24.4548 22.5267 25.0452 21.57 25.0452 21.57C24.561 21.885 24.1005 22.1067 23.6871 22.2584C23.0967 22.5034 22.5298 22.6667 21.9748 22.76C20.841 22.97 19.8018 22.9117 18.9161 22.7484C18.2429 22.62 17.6643 22.4334 17.1801 22.2467C16.9085 22.1417 16.6132 22.0134 16.318 21.85C16.3003 21.8384 16.2826 21.8296 16.2648 21.8209C16.2471 21.8121 16.2294 21.8034 16.2117 21.7917C16.1881 21.78 16.1763 21.7684 16.1645 21.7567C15.9519 21.64 15.8338 21.5584 15.8338 21.5584C15.8338 21.5584 16.4007 22.4917 17.9005 22.935C17.5462 23.3784 17.1092 23.9034 17.1092 23.9034C14.4993 23.8217 13.5073 22.13 13.5073 22.13C13.5073 18.3734 15.2079 15.3284 15.2079 15.3284C16.9085 14.0684 18.5264 14.1034 18.5264 14.1034L18.6445 14.2434C16.5188 14.85 15.5386 15.7717 15.5386 15.7717C15.5386 15.7717 15.7984 15.6317 16.2353 15.4334C17.4989 14.885 18.5028 14.7334 18.9161 14.6984L18.9426 14.6939C19.0021 14.6839 19.055 14.675 19.1168 14.675C19.8372 14.5817 20.6521 14.5584 21.5024 14.6517C22.6243 14.78 23.8288 15.1067 25.057 15.7717C25.057 15.7717 24.1241 14.8967 22.1165 14.29L22.2818 14.1034C22.2818 14.1034 23.8997 14.0684 25.6003 15.3284C25.6003 15.3284 27.3008 18.3734 27.3008 22.13C27.3008 22.13 26.297 23.8217 23.6871 23.9034ZM18.5283 18.6667C17.8605 18.6667 17.3332 19.2673 17.3332 20C17.3332 20.7328 17.8722 21.3334 18.5283 21.3334C19.1961 21.3334 19.7234 20.7328 19.7234 20C19.7351 19.2673 19.1961 18.6667 18.5283 18.6667ZM21.6097 20C21.6097 19.2673 22.137 18.6667 22.8048 18.6667C23.4727 18.6667 23.9999 19.2673 23.9999 20C23.9999 20.7328 23.4727 21.3334 22.8048 21.3334C22.1487 21.3334 21.6097 20.7328 21.6097 20Z" fill="#13ECAB"></path></g><defs><filter id="filter0_i" x="0" y="0" width="40" height="44" filterUnits="userSpaceOnUse" color-interpolation-filters="sRGB"><feFlood flood-opacity="0" result="BackgroundImageFix"></feFlood><feBlend mode="normal" in="SourceGraphic" in2="BackgroundImageFix" result="shape"></feBlend><feColorMatrix in="SourceAlpha" type="matrix" values="0 0 0 0 0 0 0 0 0 0 0 0 0 0 0 0 0 0 127 0" result="hardAlpha"></feColorMatrix><feOffset dy="4"></feOffset><feGaussianBlur stdDeviation="2"></feGaussianBlur><feComposite in2="hardAlpha" operator="arithmetic" k2="-1" k3="1"></feComposite><feColorMatrix type="matrix" values="0 0 0 0 0 0 0 0 0 0 0 0 0 0 0 0 0 0 0.25 0"></feColorMatrix><feBlend mode="normal" in2="shape" result="effect1_innerShadow"></feBlend></filter></defs></svg>