<svg width="16" height="15" viewBox="0 0 16 15" fill="none" xmlns="http://www.w3.org/2000/svg">
<path d="M8.83961 0C6.55912 0 4.39418 1.10169 3.04899 2.94731L4.06791 3.68954C5.17654 2.16852 6.96038 1.26031 8.83961 1.26031C12.0926 1.26052 14.7397 3.90719 14.7397 7.16039C14.7397 10.4136 12.0926 13.0603 8.83961 13.0603C6.08348 13.0603 3.76307 11.1602 3.11811 8.60137L4.21287 9.45475L4.98788 8.46061L2.1849 6.27592L0 9.0789L0.994131 9.85391L1.8578 8.7457C2.58155 11.9333 5.43578 14.3208 8.8394 14.3208C12.7876 14.3208 16 11.1085 16 7.16039C16 3.21223 12.7878 0 8.83961 0Z" fill="white"/>
</svg>
