<svg width="20" height="22" viewBox="0 0 20 22" fill="none" xmlns="http://www.w3.org/2000/svg">
<path d="M1.33982 15.9999C0.917087 15.2689 0.588481 14.4874 0.361816 13.6739C0.855124 13.423 1.26941 13.0406 1.55885 12.5688C1.84828 12.0971 2.00158 11.5545 2.00179 11.0011C2.002 10.4476 1.8491 9.90489 1.56002 9.43295C1.27094 8.961 0.856936 8.57821 0.363816 8.32694C0.815852 6.69243 1.67655 5.1999 2.86482 3.98994C3.32891 4.29167 3.86744 4.45911 4.42079 4.47373C4.97415 4.48834 5.52077 4.34958 6.00015 4.07278C6.47952 3.79598 6.87297 3.39194 7.13694 2.90539C7.40092 2.41883 7.52512 1.86872 7.49582 1.31594C9.13793 0.891567 10.861 0.892255 12.5028 1.31795C12.4738 1.87071 12.5982 2.42073 12.8624 2.90715C13.1266 3.39357 13.5202 3.79742 13.9996 4.07401C14.4791 4.35059 15.0258 4.48913 15.5791 4.4743C16.1324 4.45946 16.6709 4.29183 17.1348 3.98994C17.7138 4.57994 18.2278 5.25095 18.6598 5.99995C19.0928 6.74895 19.4168 7.52995 19.6378 8.32595C19.1445 8.57685 18.7302 8.95932 18.4408 9.43105C18.1514 9.90278 17.9981 10.4454 17.9978 10.9988C17.9976 11.5523 18.1505 12.095 18.4396 12.5669C18.7287 13.0389 19.1427 13.4217 19.6358 13.6729C19.1838 15.3075 18.3231 16.8 17.1348 18.0099C16.6707 17.7082 16.1322 17.5408 15.5788 17.5262C15.0255 17.5115 14.4789 17.6503 13.9995 17.9271C13.5201 18.2039 13.1267 18.6079 12.8627 19.0945C12.5987 19.5811 12.4745 20.1312 12.5038 20.6839C10.8617 21.1083 9.13859 21.1076 7.49682 20.6819C7.52586 20.1292 7.40141 19.5792 7.13724 19.0927C6.87306 18.6063 6.47946 18.2025 5.99999 17.9259C5.52052 17.6493 4.97387 17.5108 4.42054 17.5256C3.86721 17.5404 3.32878 17.7081 2.86482 18.0099C2.27381 17.4069 1.76141 16.7315 1.33982 15.9999ZM6.99982 16.1959C8.06544 16.8106 8.86666 17.797 9.24982 18.9659C9.74882 19.0129 10.2498 19.0139 10.7488 18.9669C11.1322 17.7978 11.9338 16.8114 12.9998 16.1969C14.065 15.5806 15.3203 15.3794 16.5248 15.6319C16.8148 15.2239 17.0648 14.7889 17.2728 14.3339C16.4522 13.4174 15.9989 12.2302 15.9998 10.9999C15.9998 9.73994 16.4698 8.56295 17.2728 7.66595C17.0633 7.21109 16.8123 6.77658 16.5228 6.36795C15.3191 6.62025 14.0646 6.41942 12.9998 5.80395C11.9342 5.18932 11.133 4.20293 10.7498 3.03394C10.2508 2.98694 9.74982 2.98594 9.25082 3.03294C8.86741 4.20209 8.06582 5.1885 6.99982 5.80295C5.9346 6.41926 4.67929 6.62046 3.47482 6.36795C3.18538 6.77623 2.93495 7.21081 2.72682 7.66595C3.54739 8.5825 4.0007 9.76974 3.99982 10.9999C3.99982 12.2599 3.52982 13.4369 2.72682 14.3339C2.93629 14.7888 3.18736 15.2233 3.47682 15.6319C4.68053 15.3796 5.93502 15.5805 6.99982 16.1959ZM9.99982 13.9999C9.20417 13.9999 8.4411 13.6839 7.8785 13.1213C7.31589 12.5587 6.99982 11.7956 6.99982 10.9999C6.99982 10.2043 7.31589 9.44123 7.8785 8.87862C8.4411 8.31602 9.20417 7.99995 9.99982 7.99995C10.7955 7.99995 11.5585 8.31602 12.1211 8.87862C12.6837 9.44123 12.9998 10.2043 12.9998 10.9999C12.9998 11.7956 12.6837 12.5587 12.1211 13.1213C11.5585 13.6839 10.7955 13.9999 9.99982 13.9999ZM9.99982 11.9999C10.265 11.9999 10.5194 11.8946 10.7069 11.7071C10.8945 11.5195 10.9998 11.2652 10.9998 10.9999C10.9998 10.7347 10.8945 10.4804 10.7069 10.2928C10.5194 10.1053 10.265 9.99994 9.99982 9.99994C9.7346 9.99994 9.48025 10.1053 9.29271 10.2928C9.10517 10.4804 8.99982 10.7347 8.99982 10.9999C8.99982 11.2652 9.10517 11.5195 9.29271 11.7071C9.48025 11.8946 9.7346 11.9999 9.99982 11.9999Z" fill="white"/>
</svg>
