<svg width="20" height="20" viewBox="0 0 20 20" fill="none" xmlns="http://www.w3.org/2000/svg">
<path d="M2.92876 2.92876C-0.976253 6.83377 -0.976253 13.1662 2.92876 17.0712C6.83377 20.9763 13.1662 20.9763 17.0712 17.0712C20.9763 13.1662 20.9763 6.83377 17.0712 2.92876C13.1662 -0.976253 6.83377 -0.976253 2.92876 2.92876ZM10.4011 4.19525C11.2454 4.19525 11.9208 4.89182 11.9208 5.73615C11.9208 6.58047 11.2243 7.27704 10.4011 7.27704C9.55673 7.27704 8.86016 6.58047 8.86016 5.71504C8.86016 4.87071 9.55673 4.19525 10.4011 4.19525ZM12.5752 14.5171C12.533 14.6438 12.4485 14.7916 12.3641 14.876C11.8153 15.4459 11.1398 15.7836 10.3377 15.7836C9.95778 15.7836 9.59894 15.7836 9.219 15.7203C8.60686 15.6359 7.82586 14.876 7.9314 14.0739C8.01583 13.5251 8.10026 12.9763 8.1847 12.4274C8.35356 11.4776 8.52243 10.5066 8.69129 9.55673C8.69129 9.4934 8.7124 9.43008 8.7124 9.36675C8.7124 8.9657 8.58575 8.81794 8.1847 8.77573C8.01583 8.75462 7.84697 8.73351 7.6781 8.69129C7.48813 8.62797 7.38259 8.4591 7.40369 8.31135C7.4248 8.14248 7.53034 8.03694 7.74142 7.99472C7.84697 7.97361 7.97361 7.97361 8.10026 7.97361C8.56464 7.97361 9.02902 7.97361 9.51451 7.97361C10.0211 7.97361 10.5066 7.97361 11.0132 7.97361C11.372 7.97361 11.5831 8.14248 11.5831 8.50132C11.5831 8.79683 11.5409 9.09235 11.4776 9.38786C11.2876 10.4855 11.0765 11.562 10.8865 12.6596C10.8232 13.0185 10.7388 13.3773 10.6966 13.7361C10.6755 13.905 10.6966 14.095 10.7388 14.2639C10.8021 14.496 10.971 14.6227 11.2032 14.6016C11.3931 14.5805 11.5831 14.5171 11.7731 14.4327C11.9208 14.3694 12.0475 14.2639 12.1953 14.2216C12.4485 14.1372 12.6385 14.285 12.5752 14.5171Z" fill="white"/>
</svg>
