<svg width="636" height="774" viewBox="0 0 636 774" fill="none" xmlns="http://www.w3.org/2000/svg">
<path d="M62.9401 518.264L62.9393 518.269C62.1277 523.685 60.1603 526.959 57.659 528.914C55.1406 530.883 51.938 531.627 48.4435 531.691C44.9461 531.755 41.2599 531.136 37.8523 530.474C37.2877 530.364 36.7275 530.252 36.1755 530.142C33.4648 529.601 30.949 529.099 29.0627 529.068L29.0554 529.067L29.0481 529.067C22.6896 529.055 17.3628 526.259 11.8679 523.374C11.7178 523.295 11.5677 523.216 11.4174 523.137C5.83572 520.209 0.035087 517.261 -6.89389 517.866L-6.90307 517.867L-6.91222 517.868C-12.4261 518.452 -17.7864 515.728 -21.578 510.634C-22.2611 509.391 -23.0007 508.007 -23.2068 506.349C-23.4366 503.966 -22.5252 501.56 -21.0666 499.596C-19.6043 497.627 -17.6971 496.243 -16.1205 495.798C-14.4998 495.457 -12.8817 495.619 -11.1052 495.875C-10.8794 495.908 -10.6502 495.942 -10.4181 495.977C-8.86077 496.21 -7.16909 496.463 -5.42965 496.358L-5.42197 496.358C-2.43969 496.155 0.547666 494.811 3.43656 493.081C5.70828 491.72 7.99963 490.069 10.2359 488.458C10.8443 488.019 11.4487 487.584 12.0474 487.158C14.8819 485.142 17.598 483.335 20.1899 482.263C22.7705 481.196 25.0999 480.91 27.236 481.758L27.247 481.762L27.2581 481.766C30.1936 482.851 32.2793 485.86 34.4085 489.5C34.6992 489.996 34.991 490.505 35.2852 491.018C36.035 492.325 36.8003 493.659 37.6017 494.893C38.723 496.621 39.9711 498.246 41.4696 499.465L41.4709 499.466C43.6697 501.249 46.1946 502.036 48.6564 502.618C49.2986 502.77 49.9305 502.907 50.5529 503.042C52.3744 503.438 54.1149 503.816 55.7971 504.492L55.8201 504.502L55.8436 504.51C60.1422 505.995 64.0801 510.942 62.9401 518.264Z" stroke="url(#paint0_linear)" stroke-opacity="0.45" stroke-width="2" stroke-miterlimit="10"/>
<path d="M1.48804 476.989L1.4965 476.982C2.92673 475.812 4.40338 474.534 5.92438 473.217C8.52427 470.966 11.2537 468.603 14.1024 466.476C18.6009 463.119 23.1272 460.575 27.4003 460.22C31.3251 459.923 34.4875 461.528 37.5109 464.175C39.9867 466.394 42.0185 469.443 43.9966 472.95C44.8979 474.548 45.7781 476.222 46.6826 477.942C46.7688 478.106 46.8552 478.27 46.9419 478.435C47.9337 480.32 48.9572 482.252 50.0568 484.159C51.9597 487.62 54.0577 490.698 56.7515 492.873C59.7115 495.523 63.1262 496.98 66.7021 498.086C68.3297 498.589 70.0096 499.025 71.6976 499.463C71.8641 499.506 72.0306 499.549 72.1973 499.592C74.0618 500.077 75.94 500.574 77.8274 501.187L77.8365 501.19C88.2689 504.469 93.6459 515.69 91.3556 528.865C90.5863 533.29 89.4129 537.324 87.8405 540.973C85.3697 546.349 81.9998 551.938 77.9456 556.2C73.8808 560.473 69.2293 563.31 64.184 563.433C63.1807 563.456 62.0841 563.092 60.8702 562.422C59.659 561.754 58.4197 560.831 57.1341 559.834C56.9167 559.665 56.6976 559.494 56.4774 559.322C55.4182 558.495 54.3303 557.646 53.2615 556.936C51.9744 556.081 50.6108 555.355 49.2227 555.106L49.215 555.104L49.2072 555.103C46.2609 554.621 43.4192 554.23 40.688 553.854C35.6484 553.161 30.9846 552.519 26.7318 551.453L26.7218 551.45L26.7118 551.448C20.8806 550.112 14.9763 549.775 9.23721 549.448C8.58005 549.411 7.92505 549.373 7.27258 549.334C0.884907 548.955 -5.27583 548.446 -11.1171 546.492C-13.739 545.61 -16.0648 543.486 -18.5608 541.1C-18.6923 540.974 -18.8243 540.847 -18.9569 540.72C-21.2458 538.527 -23.6975 536.178 -26.512 534.947C-27.5291 534.363 -28.4055 534.113 -29.5877 534.069L-29.6044 534.068L-29.621 534.068C-38.3629 534.029 -45.7025 528.926 -50.5184 520.885L-50.526 520.872L-50.534 520.86C-51.8966 518.73 -52.8998 516.214 -53.1811 512.889L-53.199 512.677L-53.2759 512.537L-53.2792 512.395C-53.3891 507.636 -51.5312 502.694 -48.8314 498.667C-46.1166 494.617 -42.67 491.666 -39.7758 490.721L-39.7584 490.715L-39.7413 490.709C-37.1646 489.761 -34.6727 489.799 -32.081 490.069C-31.4472 490.136 -30.7981 490.218 -30.1377 490.301C-28.1623 490.551 -26.085 490.813 -24.0096 490.702C-22.3891 490.639 -20.9607 490.502 -19.4444 490.103C-15.6035 489.16 -11.976 487.153 -8.52623 484.768C-5.81261 482.891 -3.16007 480.745 -0.582244 478.658C0.11337 478.096 0.803545 477.537 1.48804 476.989Z" stroke="url(#paint1_linear)" stroke-opacity="0.45" stroke-width="2" stroke-miterlimit="10"/>
<path d="M33.3139 438.611L33.3213 438.611L33.3286 438.611C39.4407 438.671 43.8831 442.132 47.7413 446.605C50.7887 450.171 53.2332 454.605 55.5879 459.441C56.4268 461.164 57.2582 462.948 58.1016 464.757C59.6018 467.974 61.1396 471.273 62.8238 474.456C65.2085 479.17 68.1309 482.974 71.2727 486.037L71.2821 486.046L71.2918 486.055C75.1653 489.638 79.6634 491.679 84.4361 493.232C86.8193 494.007 89.2889 494.666 91.7861 495.331L91.9262 495.368C94.3857 496.022 96.875 496.684 99.3857 497.477C116.489 502.954 123.022 520.234 119.599 539.149C118.188 545.809 116.55 552.312 113.879 557.965L113.879 557.965L113.873 557.976C110.284 565.829 105.444 575.083 99.5213 582.429C93.5769 589.801 86.702 595.053 79.0661 595.317C77.7041 595.335 76.1503 594.6 74.3821 593.237C72.6312 591.888 70.8271 590.05 68.9708 588.111C68.7747 587.906 68.578 587.7 68.3807 587.494C66.7343 585.77 65.0527 584.01 63.4002 582.58C61.5695 580.996 59.6299 579.686 57.66 579.343L57.66 579.343L57.6489 579.341C53.6277 578.688 49.6778 578.2 45.8419 577.725C43.8078 577.474 41.8058 577.226 39.8421 576.96C34.1464 576.188 28.7138 575.255 23.5073 573.613C14.8815 570.838 5.67439 571.6 -3.30722 572.457C-3.64435 572.489 -3.98114 572.521 -4.31759 572.554C-13.0248 573.389 -21.4969 574.201 -29.4066 572.15L-29.412 572.148C-30.9204 571.766 -32.3687 570.73 -33.8198 569.19C-35.2667 567.654 -36.6415 565.698 -38.0264 563.594C-38.4385 562.968 -38.853 562.326 -39.2698 561.681C-40.2348 560.187 -41.2124 558.673 -42.2038 557.286C-43.6237 555.299 -45.1412 553.467 -46.8243 552.198C-47.976 551.299 -49.2949 550.588 -50.8373 550.456L-50.875 550.453L-50.9128 550.453C-63.53 550.329 -73.4608 542.418 -79.7713 531.305C-81.605 527.968 -83.0508 524.265 -83.3284 519.12L-83.3666 518.411L-83.4313 518.392C-83.4934 511.452 -80.8031 504.144 -76.9577 498.152C-73.0567 492.073 -68.0922 487.538 -63.8693 486.071L-63.8569 486.067L-63.8445 486.062C-59.9323 484.586 -56.2639 484.639 -52.4795 484.993C-51.6932 485.067 -50.8965 485.155 -50.0896 485.244C-47.0608 485.578 -43.8887 485.927 -40.5891 485.604L-40.5769 485.602L-40.5648 485.601C-38.6226 485.363 -36.3289 484.946 -34.1906 484.196C-24.2547 480.794 -15.1902 472.804 -7.11147 465.682C-6.23327 464.908 -5.36672 464.144 -4.51195 463.397L-4.5063 463.392C-2.73652 461.823 -0.868923 460.066 1.08408 458.23C4.88469 454.656 9.00876 450.777 13.365 447.379C19.9565 442.236 26.7792 438.451 33.3139 438.611Z" stroke="url(#paint2_linear)" stroke-opacity="0.45" stroke-width="2" stroke-miterlimit="10"/>
<path d="M140.953 574.92C144.554 567.043 147.086 558.329 148.65 549.335C153.262 524.427 145.827 499.431 121.24 492.812C119.489 492.338 117.763 491.889 116.065 491.447C104.776 488.508 94.7065 485.888 86.8556 478.359C82.9602 474.602 79.5881 469.948 76.6379 463.841M140.953 574.92L140.044 574.504M140.953 574.92L140.044 574.505C140.044 574.504 140.044 574.504 140.044 574.504M140.953 574.92C131.618 595.306 115.619 626.879 94.1855 627.475C89.4496 627.618 84.3393 621.551 79.2848 615.55C74.7305 610.144 70.2217 604.791 66.0731 604.083C60.5137 603.174 55.1016 602.574 49.8131 601.988C39.3703 600.831 29.4094 599.727 19.7485 596.397C8.4062 592.399 -4.13435 594.595 -16.6348 596.785C-27.488 598.685 -38.311 600.581 -48.2933 598.412L76.6379 463.841M140.044 574.504C143.604 566.717 146.113 558.088 147.665 549.163L147.667 549.152L147.667 549.152C149.947 536.838 149.234 524.571 144.975 514.608C140.73 504.678 132.954 497.001 120.98 493.778L120.978 493.777C119.246 493.308 117.53 492.862 115.834 492.421C104.567 489.493 94.2168 486.803 86.1635 479.081L86.1615 479.079C82.1751 475.235 78.7394 470.486 75.746 464.294M140.044 574.504C135.379 584.691 129.082 597.596 121.305 608.021C113.493 618.491 104.386 626.191 94.1576 626.475L94.1553 626.476C92.3034 626.531 90.2183 625.421 87.8817 623.39C85.5752 621.385 83.2106 618.651 80.7995 615.796C80.5494 615.5 80.2988 615.202 80.0477 614.904C77.902 612.356 75.7266 609.773 73.5903 607.69C71.2329 605.392 68.7545 603.526 66.2413 603.097L66.2346 603.096C60.6504 602.183 55.192 601.578 49.8888 600.99C47.3184 600.705 44.7844 600.424 42.2902 600.114C34.6182 599.161 27.2542 597.926 20.0777 595.453C9.20292 591.621 -2.68917 593.353 -14.3343 595.368C-15.1442 595.508 -15.9528 595.65 -16.7598 595.791C-27.6646 597.699 -38.2953 599.559 -48.075 597.436C-49.8924 597.017 -51.5929 595.637 -53.2606 593.482C-54.9207 591.336 -56.4494 588.553 -57.9647 585.542C-58.5008 584.477 -59.0375 583.379 -59.5766 582.275C-60.5421 580.299 -61.5154 578.307 -62.5067 576.463C-64.0547 573.583 -65.7169 570.923 -67.6116 569.048L-67.6445 569.016L-67.6802 568.986L-67.7117 568.96C-68.4312 568.369 -69.2218 567.72 -70.0425 567.232C-70.8736 566.738 -71.8301 566.35 -72.8877 566.384C-89.1444 566.235 -101.485 555.81 -109.449 541.322C-111.789 537.065 -113.833 531.918 -113.888 525.086C-113.867 524.943 -113.87 524.817 -113.877 524.723C-113.886 524.602 -113.907 524.487 -113.919 524.424L-113.921 524.413C-113.924 524.395 -113.927 524.381 -113.929 524.368L-113.922 524.345L-113.92 524.211C-113.777 514.906 -110.102 505.087 -105.005 497.016C-99.8908 488.918 -93.4631 482.765 -87.9743 480.618L-87.9659 480.614C-82.6928 478.496 -77.7972 478.579 -72.8031 479.055C-71.8461 479.147 -70.8807 479.253 -69.9064 479.361C-65.8436 479.811 -61.6261 480.277 -57.2195 479.709L-57.1934 479.706L-57.1675 479.701L-57.1222 479.693C-54.3856 479.192 -51.539 478.672 -48.7825 477.579C-41.4709 475.01 -34.6879 470.443 -28.3457 465.296C-24.032 461.795 -19.8744 457.984 -15.8853 454.327C-14.0182 452.616 -12.188 450.938 -10.396 449.342L-10.3958 449.342C-8.10447 447.3 -5.65494 444.969 -3.07088 442.51C1.84344 437.832 7.24434 432.692 12.9692 428.199C21.6989 421.347 30.8464 416.291 39.605 416.826C47.387 417.353 53.3566 422.784 58.0223 429.075C61.6201 433.986 64.466 439.792 67.2132 445.898C67.8752 447.37 68.5322 448.86 69.1925 450.358C71.2562 455.04 73.3534 459.798 75.746 464.294M75.746 464.294C75.7491 464.3 75.7522 464.305 75.7552 464.311L76.6379 463.841M75.746 464.294C75.7432 464.288 75.7403 464.282 75.7375 464.276L76.6379 463.841" stroke="url(#paint3_linear)" stroke-opacity="0.45" stroke-width="2" stroke-miterlimit="10"/>
<path d="M45.5954 395.211L45.5914 395.211C34.6435 394.178 23.1519 400.563 12.2849 409.226C5.08646 414.965 -1.68234 421.566 -7.744 427.477C-10.8313 430.488 -13.7351 433.32 -16.4189 435.768C-18.3699 437.569 -20.3662 439.451 -22.4056 441.375C-27.4509 446.133 -32.7597 451.139 -38.2987 455.764C-46.0822 462.263 -54.4059 468.084 -63.271 471.514C-66.6554 472.955 -70.1303 473.821 -73.7524 474.368C-79.4417 475.309 -84.8477 474.727 -90.0834 474.164C-91.0879 474.056 -92.086 473.949 -93.0787 473.853C-99.2921 473.253 -105.404 473.081 -112.008 475.729L-112.015 475.731C-118.835 478.408 -126.758 486.091 -133.051 496.209C-139.326 506.298 -143.864 518.627 -144.07 530.413L-144.072 530.547L-144.083 530.584C-144.08 530.609 -144.076 530.645 -144.068 530.727C-144.048 530.924 -144.032 531.21 -144.109 531.555C-144.057 540.212 -141.567 546.532 -138.717 551.716L-138.713 551.724L-138.709 551.731C-129.336 569.514 -114.335 582.543 -94.1607 582.769L-94.1474 582.769L-94.1341 582.77C-91.629 582.864 -89.8983 584.365 -88.0746 586.205L-88.0541 586.226L-88.0349 586.247C-85.9047 588.662 -84.0734 592.137 -82.3751 595.922C-81.3205 598.273 -80.2908 600.807 -79.2662 603.329C-78.6434 604.861 -78.0226 606.39 -77.3992 607.869C-75.7314 611.826 -74.0277 615.482 -72.1324 618.257C-70.2219 621.056 -68.2422 622.772 -66.0897 623.176L-66.0865 623.177C-54.257 625.436 -41.3751 622.498 -28.2252 619.499C-27.0066 619.221 -25.7857 618.942 -24.5632 618.667C-10.2777 615.455 4.22766 612.738 17.3018 617.746C26.5366 621.207 35.894 622.761 45.5128 623.887C48.4293 624.229 51.3768 624.531 54.3524 624.837C61.1552 625.535 68.1052 626.249 75.1685 627.476M45.5954 395.211L74.9998 628.462M45.5954 395.211C55.6104 396.116 62.8597 403.465 68.3216 411.564M45.5954 395.211L45.6853 394.215M75.1685 627.476C75.1694 627.477 75.1702 627.477 75.1711 627.477L74.9998 628.462M75.1685 627.476C75.1677 627.476 75.1669 627.476 75.1661 627.476L74.9998 628.462M75.1685 627.476C78.2079 627.99 81.2168 630.395 84.1024 633.413C86.7529 636.185 89.4527 639.645 92.1258 643.07C92.3987 643.42 92.6713 643.769 92.9436 644.117C95.9049 647.905 98.8244 651.561 101.679 654.26C104.569 656.993 107.185 658.539 109.531 658.5M74.9998 628.462C80.1323 629.327 85.7094 636.474 91.3417 643.691C97.5165 651.603 103.758 659.601 109.552 659.5C136.228 658.858 155.655 617.323 167.439 592.13L167.466 592.073C172.184 582.157 175.107 571.195 177.303 560.022M109.531 658.5C109.53 658.5 109.529 658.5 109.528 658.5L109.552 659.5L109.535 658.5C109.534 658.5 109.532 658.5 109.531 658.5ZM109.531 658.5C122.362 658.19 133.64 648.009 143.287 634.412C152.889 620.878 160.653 604.278 166.549 591.672L166.56 591.649L166.563 591.643C171.229 581.837 174.132 570.968 176.321 559.833M176.321 559.833C176.321 559.834 176.321 559.835 176.321 559.837L177.303 560.022M176.321 559.833C179.203 544.539 178.484 529.123 173.236 516.58C168.003 504.071 158.26 494.384 142.956 490.451L142.955 490.451C141.791 490.15 140.637 489.855 139.493 489.562C124.652 485.768 111.529 482.412 101.392 472.745L101.391 472.744C96.5654 468.124 92.6165 462.431 88.9438 455.005C85.8118 449.001 83.166 442.69 80.5706 436.499C80.0046 435.149 79.441 433.805 78.8753 432.471C75.7038 424.991 72.4607 417.817 68.3216 411.564M176.321 559.833C176.322 559.832 176.322 559.83 176.322 559.829L177.303 560.022M177.303 560.022C183.12 529.165 174.467 497.516 143.205 489.482C142.059 489.186 140.924 488.896 139.801 488.609C124.892 484.793 112.021 481.5 102.083 472.022L68.3216 411.564M69.1531 411.009C63.6501 402.848 56.1716 395.163 45.6853 394.215M69.1531 411.009L68.3193 411.561C68.3201 411.562 68.3208 411.563 68.3216 411.564M69.1531 411.009L68.324 411.568C68.3232 411.566 68.3224 411.565 68.3216 411.564M69.1531 411.009L68.3216 411.564M45.6853 394.215C26.7647 392.431 6.74171 411.955 -8.50169 426.818C-11.5765 429.816 -14.4568 432.625 -17.0944 435.031L45.6853 394.215Z" stroke="url(#paint4_linear)" stroke-opacity="0.45" stroke-width="2" stroke-miterlimit="10"/>
<path d="M-22.1339 422.029L-22.1301 422.025C-19.1508 419.234 -15.9202 416.015 -12.4788 412.586C-5.19551 405.328 3.03216 397.129 11.8213 390.058C24.7685 379.643 38.5949 371.977 51.9023 373.426C63.6092 374.811 72.2091 383.853 78.6314 394.064C83.3091 401.659 86.9659 410.141 90.5163 418.91C91.181 420.552 91.8421 422.205 92.5056 423.863C95.3767 431.038 98.2909 438.322 101.721 445.317C105.844 453.937 110.551 460.635 115.954 465.946L115.962 465.953C128.495 478.006 144.637 482.037 163.5 486.747C163.814 486.826 164.129 486.904 164.445 486.983L164.446 486.983C183.081 491.625 194.733 503.307 200.903 518.346C207.088 533.426 207.771 551.916 204.32 570.07C201.741 583.448 198.205 596.501 192.659 608.422L192.657 608.427C192.483 608.807 192.308 609.191 192.131 609.577C185.347 624.413 176.379 644.026 165.253 660.199C153.798 676.852 140.284 689.516 124.801 689.971C121.953 689.991 118.805 687.999 115.365 684.567C111.963 681.173 108.49 676.595 104.979 671.876C104.681 671.475 104.383 671.074 104.085 670.673C100.888 666.369 97.6667 662.033 94.5055 658.574C91.0885 654.834 87.5506 651.896 83.9916 651.301L83.987 651.3C75.8113 649.973 67.7854 649.217 59.932 648.476C55.9621 648.102 52.0362 647.732 48.1573 647.295C36.5623 645.987 25.2821 644.07 14.102 639.653L14.096 639.65C-1.10903 633.755 -18.15 637.467 -35.0371 641.856C-36.5792 642.257 -38.12 642.663 -39.6587 643.069C-55.1091 647.143 -70.3333 651.158 -84.3329 648.85L-84.3404 648.849C-86.8449 648.456 -89.1136 646.403 -91.2653 642.982C-93.3968 639.594 -95.2736 635.089 -97.0823 630.205C-97.839 628.162 -98.5891 626.036 -99.3396 623.91C-100.361 621.016 -101.382 618.121 -102.423 615.428C-104.231 610.744 -106.173 606.456 -108.446 603.468C-110.397 600.703 -112.602 599.089 -115.333 598.914L-115.36 598.912L-115.387 598.912C-139.22 598.67 -157.048 582.733 -167.902 561.89C-171.209 555.509 -174.147 547.997 -174.186 537.493C-174.166 537.367 -174.162 537.254 -174.161 537.18C-174.159 537.057 -174.164 536.928 -174.168 536.835C-174.172 536.729 -174.174 536.659 -174.173 536.602C-174.173 536.596 -174.173 536.59 -174.173 536.586L-174.15 536.505L-174.148 536.371C-173.914 522.232 -168.456 507.414 -160.962 495.281C-153.451 483.118 -144.012 473.841 -135.975 470.601C-127.88 467.337 -120.471 467.559 -113.018 468.289C-111.845 468.404 -110.668 468.532 -109.485 468.661C-103.202 469.346 -96.7679 470.047 -89.9917 468.859C-85.7845 468.205 -81.6946 466.989 -77.7962 465.464L-77.7931 465.463C-67.1144 461.243 -57.2201 454.098 -48.0028 446.173C-42.0152 441.026 -36.2636 435.503 -30.7626 430.221C-27.8136 427.389 -24.9366 424.627 -22.1339 422.029Z" stroke="url(#paint5_linear)" stroke-opacity="0.45" stroke-width="2" stroke-miterlimit="10"/>
<path d="M-160.111 465.158L-160.118 465.161C-169.487 468.93 -180.439 479.799 -189.169 494.006C-197.88 508.181 -204.259 525.491 -204.641 541.954L-204.644 542.084L-204.68 542.21C-204.701 542.281 -204.704 542.334 -204.696 542.532L-204.695 542.553C-204.688 542.728 -204.677 543.004 -204.75 543.334C-204.715 555.658 -201.335 564.347 -197.579 571.91C-185.076 596.12 -164.837 614.581 -137.349 614.844C-134.187 614.821 -131.615 617.193 -129.555 620.189C-129.555 620.189 -129.555 620.19 -129.554 620.19L-130.379 620.757C-126.58 626.208 -123.612 635.5 -120.612 644.89C-116.004 659.312 -111.323 673.968 -103.444 675.303L-160.111 465.158ZM-160.111 465.158C-150.804 461.332 -142.221 461.567 -133.546 462.39C-132.196 462.518 -130.841 462.661 -129.479 462.804C-122.139 463.578 -114.611 464.372 -106.651 462.967C-101.888 462.212 -96.9278 460.721 -92.3963 458.848C-80.0418 453.806 -68.5624 445.485 -57.8801 436.247C-50.2965 429.688 -43.0724 422.628 -36.2143 415.925C-33.4204 413.195 -30.6873 410.523 -28.0154 407.97C-24.69 404.821 -21.0659 401.175 -17.1922 397.278C-8.73417 388.769 0.913424 379.064 11.2381 370.727C26.3038 358.561 42.4665 349.616 57.978 351.57C71.919 353.339 81.7263 364.544 88.9492 376.578C94.1923 385.384 98.1812 395.206 102.033 405.311C102.691 407.036 103.345 408.77 104.001 410.509C107.175 418.927 110.388 427.447 114.258 435.566C118.829 445.374 124.297 453.082 130.528 459.157M-160.111 465.158L-103.286 674.316C-94.4683 675.653 -85.1496 674.7 -75.55 672.695C-67.8592 671.089 -60.0437 668.822 -52.1892 666.543C-50.2276 665.974 -48.2636 665.404 -46.2985 664.844C-26.7398 659.267 -7.04281 654.597 10.342 661.659L10.3445 661.66C23.4695 667.034 36.7496 669.271 50.3252 670.761C54.6683 671.237 59.0522 671.638 63.4716 672.042C72.8216 672.896 82.3309 673.765 91.9508 675.399C94.0139 675.742 96.0494 676.799 98.0379 678.292C100.032 679.79 102.032 681.769 104.028 684.034C107.632 688.124 111.305 693.245 114.961 698.342C115.349 698.883 115.736 699.423 116.123 699.961C120.184 705.611 124.214 711.095 128.172 715.136C132.175 719.224 135.873 721.588 139.254 721.473L139.262 721.473C148.301 721.237 156.763 717.333 164.655 710.98C172.55 704.624 179.825 695.855 186.463 685.992C198.852 667.587 208.92 645.535 216.64 628.626C217.196 627.408 217.74 626.218 218.271 625.057C224.695 611.023 228.935 595.546 232.077 580.228C236.094 559.219 235.449 537.657 228.335 520.013C221.237 502.41 207.691 488.67 185.754 483.201C163.505 477.783 144.855 473.189 130.528 459.157M130.528 459.157C130.528 459.158 130.528 459.158 130.529 459.158L131.227 458.442L130.527 459.157C130.527 459.157 130.527 459.157 130.528 459.157Z" stroke="url(#paint6_linear)" stroke-opacity="0.45" stroke-width="2" stroke-miterlimit="10"/>
<path d="M64.2235 330.027L64.2346 330.028C79.9289 332.045 91.2519 345.249 99.2658 359.089C105.044 369.234 109.426 380.419 113.711 391.867C114.229 393.251 114.746 394.639 115.263 396.029C119.018 406.117 122.819 416.328 127.529 426.041C132.781 437.085 138.76 445.731 145.824 452.577C161.736 468.383 182.568 473.611 207.72 479.872L207.729 479.874C233.031 485.931 248.547 501.684 256.633 521.869C264.737 542.098 265.385 566.813 260.8 590.68L260.799 590.683C257.44 608.552 252.568 626.203 245.03 642.271L245.029 642.274C243.934 644.627 242.798 647.093 241.618 649.653C232.983 668.39 222.061 692.091 208.785 712.139C201.243 723.528 192.973 733.689 183.973 741.073C174.978 748.454 165.306 753.019 154.938 753.326L154.933 753.326C153.073 753.39 151.1 752.743 149.002 751.45C146.902 750.156 144.733 748.25 142.505 745.89C138.045 741.166 133.477 734.762 128.866 728.18C128.501 727.659 128.136 727.137 127.77 726.615C123.54 720.568 119.283 714.484 115.107 709.647C112.836 707.017 110.563 704.725 108.303 702.996C106.049 701.271 103.751 700.061 101.432 699.677C90.3229 697.794 79.3682 696.847 68.6042 695.917C63.5768 695.482 58.591 695.051 53.6505 694.53C38.0868 692.889 22.8657 690.348 7.79431 684.018L7.78917 684.016C-11.8029 675.914 -34.0875 681.555 -56.2791 688.3C-58.556 688.992 -60.8323 689.696 -63.1063 690.399C-71.9711 693.141 -80.8006 695.871 -89.4916 697.841C-100.402 700.314 -111.004 701.563 -121.038 700.132C-124.25 699.652 -127.06 696.818 -129.641 692.093C-132.196 687.417 -134.37 681.18 -136.442 674.429C-137.284 671.684 -138.113 668.844 -138.942 666.001C-140.136 661.908 -141.332 657.809 -142.574 653.978C-144.679 647.485 -146.975 641.567 -149.763 637.439C-151.971 633.813 -154.773 631.435 -158.367 631.299L-158.381 631.299L-158.394 631.299C-189.795 630.954 -212.623 609.645 -226.606 582.373C-230.89 573.845 -234.892 563.639 -234.728 549.736L-234.727 549.64L-234.744 549.545C-234.772 549.391 -234.77 549.238 -234.759 548.966L-234.758 548.939C-234.75 548.716 -234.738 548.405 -234.788 548.062C-234.357 529.271 -227.125 509.493 -217.243 493.293C-207.326 477.035 -194.861 464.575 -184.159 460.276L-184.152 460.273L-184.146 460.27C-173.47 455.795 -163.652 456.061 -153.768 457.006C-152.231 457.153 -150.69 457.317 -149.142 457.482C-140.78 458.371 -132.233 459.28 -123.197 457.628C-117.59 456.602 -112.076 455.015 -106.9 452.79C-92.8656 446.923 -79.8421 437.346 -67.7189 426.756C-59.3925 419.483 -51.4476 411.692 -43.8848 404.275C-40.4469 400.904 -37.088 397.61 -33.8081 394.477C-29.8873 390.755 -25.6076 386.41 -21.0282 381.76C-11.5264 372.111 -0.734259 361.153 10.82 351.736C27.949 337.776 46.3872 327.532 64.2235 330.027Z" stroke="url(#paint7_linear)" stroke-opacity="0.45" stroke-width="2" stroke-miterlimit="10"/>
<path d="M109.516 341.849L109.513 341.843C100.791 325.976 88.1194 311.058 70.2371 308.415M109.516 341.849L70.3797 307.425M109.516 341.849C115.863 353.21 120.674 365.638 125.347 378.347C126.005 380.135 126.66 381.93 127.316 383.727C131.313 394.678 135.354 405.748 140.306 416.353L109.516 341.849ZM70.2371 308.415C70.2359 308.415 70.2348 308.414 70.2336 308.414L70.3797 307.425M70.2371 308.415C70.2373 308.415 70.2374 308.415 70.2376 308.415L70.3797 307.425M70.2371 308.415C50.1544 305.532 29.3753 317.061 10.1314 332.768C-3.11223 343.578 -15.4624 356.218 -26.241 367.249C-31.1142 372.237 -35.6661 376.895 -39.8341 380.907M70.3797 307.425C35.684 302.444 -0.559076 339.534 -27.0114 366.606C-31.8713 371.579 -36.4008 376.215 -40.5295 380.189M-39.8341 380.907L-40.5295 380.189M-39.8341 380.907C-39.8347 380.908 -39.8353 380.909 -39.836 380.909L-40.5295 380.189M-39.8341 380.907L-40.5295 380.189M-170.238 654.58L-170.232 654.589C-167.221 659.307 -164.756 666.069 -162.501 673.492C-161.185 677.822 -159.922 682.447 -158.661 687.063C-157.764 690.347 -156.868 693.626 -155.955 696.794C-153.742 704.472 -151.412 711.558 -148.65 716.842C-145.857 722.188 -142.796 725.355 -139.278 725.807L-139.277 725.807C-128.067 727.255 -116.198 725.655 -103.982 722.679C-94.4088 720.348 -84.6815 717.188 -74.9224 714.017C-72.219 713.139 -69.5132 712.26 -66.8075 711.398C-41.9826 703.484 -17.1273 696.935 4.51539 706.164L4.51681 706.165C21.538 713.454 38.7461 716.375 56.2803 718.228C62.0286 718.836 67.8246 719.329 73.6617 719.826C85.5806 720.841 97.6706 721.87 109.874 723.916M-170.238 654.58L109.71 724.902M-170.238 654.58C-172.785 650.688 -175.703 647.628 -179.703 647.684L-170.238 654.58ZM109.874 723.916C109.875 723.916 109.875 723.916 109.876 723.916L109.71 724.902M109.874 723.916C109.874 723.916 109.873 723.916 109.873 723.916L109.71 724.902M109.874 723.916C112.449 724.341 115.006 725.702 117.521 727.657C120.042 729.616 122.579 732.219 125.117 735.212C129.802 740.736 134.578 747.697 139.33 754.624C139.723 755.196 140.116 755.769 140.508 756.34C145.669 763.853 150.791 771.18 155.796 776.6C158.297 779.308 160.737 781.504 163.105 783.003C165.473 784.502 167.709 785.267 169.825 785.211M109.71 724.902C118.747 726.392 128.6 740.752 138.513 755.2C149.206 770.785 159.968 786.472 169.851 786.211M169.825 785.211C169.825 785.211 169.824 785.211 169.824 785.211L169.851 786.211M169.825 785.211L169.851 786.211M169.825 785.211L169.851 786.211M-139.585 452.604C-139.584 452.603 -139.582 452.603 -139.581 452.603L-139.765 451.62L-139.585 452.604ZM-207.951 455.458C-207.949 455.457 -207.947 455.456 -207.945 455.456L-208.33 454.532L-207.952 455.458C-207.952 455.458 -207.951 455.458 -207.951 455.458ZM-264.936 554.266C-264.941 554.229 -264.948 554.191 -264.955 554.153L-265.938 554.333L-264.939 554.361C-264.938 554.329 -264.937 554.298 -264.936 554.266ZM271.058 659.288L271.965 659.708L271.058 659.288C271.058 659.288 271.058 659.288 271.058 659.288ZM-255.871 592.77L-256.764 593.22L-255.866 592.782C-255.867 592.779 -255.868 592.776 -255.87 592.774C-255.87 592.773 -255.871 592.771 -255.871 592.77Z" stroke="url(#paint8_linear)" stroke-opacity="0.45" stroke-width="2" stroke-miterlimit="10"/>
<path d="M119.837 324.365L119.836 324.362C110.322 306.687 96.1342 289.764 76.4935 286.873L76.488 286.872C54.0759 283.447 30.9581 296.26 9.6295 313.723C-5.05727 325.748 -18.7268 339.827 -30.6143 352.07C-35.9809 357.597 -40.9844 362.75 -45.5543 367.171L-45.555 367.172C-49.829 371.3 -54.2168 375.668 -58.7184 380.149C-67.8119 389.201 -77.3693 398.715 -87.39 407.646C-102.387 421.01 -118.521 433.163 -135.922 440.678L-135.927 440.68C-142.582 443.517 -149.265 445.548 -156.043 447.018L-156.054 447.021L-156.066 447.023C-167.349 449.185 -178.028 448.05 -188.527 446.933C-190.352 446.739 -192.171 446.546 -193.986 446.37C-206.296 445.181 -218.572 444.792 -231.917 450.329C-245.21 455.844 -260.687 471.438 -273.011 491.688C-285.3 511.882 -294.339 536.519 -294.945 559.986C-294.894 560.363 -294.928 560.748 -294.95 561.007L-294.954 561.052C-294.985 561.409 -294.993 561.585 -294.971 561.705L-294.954 561.799L-294.955 561.895C-295.136 579.478 -290.308 592.289 -285.066 602.928C-268.031 636.859 -239.896 663.377 -201.163 663.756C-196.946 663.777 -193.551 666.93 -190.859 671.449C-187.631 676.755 -185.013 684.33 -182.625 692.646C-181.245 697.452 -179.925 702.574 -178.606 707.69C-177.646 711.414 -176.686 715.134 -175.706 718.726C-173.363 727.311 -170.881 735.236 -167.906 741.144C-164.897 747.118 -161.559 750.675 -157.673 751.172C-145.248 752.712 -132.096 750.814 -118.572 747.371C-107.991 744.677 -97.2415 741.054 -86.4637 737.422C-83.456 736.408 -80.4461 735.394 -77.4371 734.399C-49.9783 725.318 -22.5403 717.802 1.30464 728.067L1.30726 728.068C20.3985 736.351 39.55 739.575 59.042 741.571C65.376 742.22 71.7589 742.74 78.1888 743.263C91.497 744.347 105.007 745.446 118.701 747.741C118.701 747.741 118.701 747.741 118.702 747.741L118.536 748.727C128.522 750.368 139.401 766.435 150.36 782.619C162.22 800.134 174.173 817.786 185.188 817.44L119.837 324.365ZM119.837 324.365C126.717 337.064 131.921 350.855 136.983 364.827C137.541 366.366 138.096 367.907 138.653 369.449C143.137 381.885 147.644 394.381 153.234 406.202C159.548 419.923 166.802 430.517 175.28 438.826C194.67 458.001 219.941 465.048 250.832 472.451C282.862 480.2 302.244 500.029 312.224 525.32C322.223 550.658 322.793 581.519 317.04 611.218C312.656 633.515 306.518 655.529 297.226 675.819L119.837 324.365Z" stroke="url(#paint9_linear)" stroke-opacity="0.45" stroke-width="2" stroke-miterlimit="10"/>
<path d="M130.158 306.882L130.154 306.876C119.929 287.169 104.394 268.535 82.5669 265.017C57.947 261.084 32.4735 275.24 8.9798 294.504C-7.02174 307.625 -21.9319 322.959 -34.9095 336.306C-40.9773 342.547 -46.6225 348.353 -51.7593 353.295C-56.3494 357.771 -61.0659 362.511 -65.909 367.378C-75.8965 377.416 -86.4225 387.995 -97.4892 397.917C-113.936 412.663 -131.677 426.056 -150.848 434.24C-158.116 437.415 -165.438 439.799 -172.981 441.064C-185.369 443.475 -197.104 442.254 -208.665 441.05C-210.64 440.844 -212.609 440.639 -214.576 440.453C-228.107 439.171 -241.621 438.75 -256.303 444.819C-270.929 450.865 -287.918 468.05 -301.46 490.344C-314.977 512.596 -324.94 539.747 -325.681 565.552C-325.666 565.996 -325.697 566.358 -325.723 566.667L-325.725 566.679C-325.752 567 -325.774 567.264 -325.761 567.593L-325.76 567.618L-325.76 567.642C-325.95 587.062 -320.676 601.052 -314.921 612.624C-296.409 649.614 -265.687 678.981 -223.042 679.446L-223.028 679.446L-223.015 679.447C-218.323 679.624 -214.768 683.089 -211.738 688.225C-208.27 694.061 -205.477 702.443 -202.936 711.669C-201.471 716.986 -200.073 722.654 -198.676 728.317C-197.652 732.466 -196.628 736.613 -195.58 740.619C-193.085 750.151 -190.431 758.954 -187.221 765.499C-183.976 772.117 -180.345 776.049 -176.08 776.535L-176.075 776.536C-162.431 778.169 -147.992 775.959 -133.153 772.028C-121.591 768.966 -109.847 764.878 -98.0793 760.781C-94.7336 759.617 -91.386 758.451 -88.04 757.309C-57.9386 747.029 -27.9162 738.546 -1.90337 749.971C19.1371 759.214 40.2928 762.758 61.7966 764.945C68.6018 765.637 75.4537 766.194 82.3492 766.754C97.1934 767.96 112.24 769.183 127.457 771.808M130.158 306.882L127.291 772.795M130.158 306.882C137.569 320.918 143.106 336.052 148.53 351.378C148.993 352.685 149.455 353.994 149.917 355.303C154.866 369.324 159.846 383.437 166.191 396.848L130.158 306.882ZM127.457 771.808C127.458 771.809 127.46 771.809 127.461 771.809L127.291 772.795M127.457 771.808C127.455 771.808 127.454 771.808 127.453 771.808L127.291 772.795M127.457 771.808C130.539 772.315 133.611 773.977 136.646 776.39C139.688 778.809 142.755 782.031 145.829 785.748C151.499 792.604 157.282 801.254 163.049 809.881C163.53 810.601 164.011 811.321 164.492 812.039C170.757 821.399 176.989 830.55 183.095 837.326C186.146 840.712 189.132 843.468 192.041 845.355C194.949 847.241 197.718 848.219 200.357 848.153M127.291 772.795C138.254 774.592 150.194 792.452 162.224 810.447C175.211 829.874 188.303 849.458 200.383 849.152M200.357 848.153C200.356 848.153 200.356 848.153 200.355 848.153L200.383 849.152M200.357 848.153C200.357 848.153 200.357 848.153 200.358 848.153L200.383 849.152M200.357 848.153L200.383 849.152M190.257 432.41C190.258 432.411 190.26 432.413 190.261 432.414L190.966 431.705L190.254 432.407C190.255 432.408 190.256 432.409 190.257 432.41Z" stroke="url(#paint10_linear)" stroke-opacity="0.45" stroke-width="2" stroke-miterlimit="10"/>
<path d="M140.479 289.399L140.48 289.402C148.424 304.774 154.354 321.27 160.131 337.976C160.722 339.685 161.311 341.397 161.901 343.109C167.069 358.116 172.269 373.214 178.83 387.648L178.832 387.653C186.278 403.801 194.803 416.34 204.694 426.11C227.736 448.973 257.121 457.216 293.895 466.065L293.899 466.066C332.601 475.23 355.85 499.133 367.747 529.573C379.662 560.061 380.196 597.146 373.309 632.555L373.308 632.557C368.214 659.106 360.81 685.476 349.456 710.155C347.214 715.003 344.851 720.216 342.366 725.698C329.942 753.103 314.456 787.26 295.774 816.535C284.567 834.096 272.242 849.845 258.785 861.3C245.333 872.752 230.807 879.864 215.173 880.279C212.276 880.336 209.243 879.242 206.065 877.156C202.887 875.069 199.627 872.031 196.301 868.307C189.645 860.854 182.854 850.802 176.035 840.528C175.488 839.704 174.942 838.88 174.395 838.055C168.14 828.616 161.875 819.162 155.737 811.653C152.397 807.568 149.069 804.026 145.773 801.362C142.483 798.704 139.161 796.868 135.836 796.29L135.828 796.289C119.541 793.58 103.443 792.318 87.5572 791.073C79.7196 790.458 71.9338 789.848 64.2024 789.07C40.7498 786.71 17.6667 782.802 -5.32456 772.6L-5.32569 772.6C-33.4167 760.175 -66.0017 769.561 -98.7289 780.979C-102.458 782.28 -106.189 783.608 -109.918 784.935C-122.622 789.456 -135.304 793.968 -147.786 797.383C-163.923 801.797 -179.625 804.344 -194.444 802.696C-199.078 802.166 -202.982 797.826 -206.436 790.557C-209.853 783.366 -212.649 773.693 -215.266 763.223C-216.371 758.801 -217.447 754.223 -218.523 749.642C-219.98 743.442 -221.438 737.239 -222.971 731.412C-225.638 721.271 -228.581 712.06 -232.267 705.635C-235.395 699.948 -239.373 696.06 -244.415 696.072C-290.969 695.518 -324.342 663.543 -344.257 623.264C-350.447 610.534 -356.154 595.399 -355.98 574.213C-355.766 573.371 -355.801 572.495 -355.828 571.785L-355.83 571.75C-355.06 543.593 -344.177 513.954 -329.444 489.659C-314.685 465.324 -296.181 446.543 -280.34 439.932L-280.339 439.932C-264.287 433.213 -249.597 433.648 -234.888 435.043C-232.719 435.249 -230.546 435.476 -228.368 435.704C-215.821 437.016 -203.075 438.349 -189.533 435.726C-181.124 434.187 -173.181 431.46 -165.375 428.19L-165.368 428.187L-165.361 428.184C-144.472 419.057 -125.167 404.346 -107.267 388.216C-95.462 377.578 -84.222 366.277 -73.5375 355.535C-68.0374 350.006 -62.6844 344.624 -57.4773 339.557C-52.0881 334.322 -46.1678 328.203 -39.8048 321.627C-25.5571 306.901 -9.09006 289.882 8.60305 275.365C34.2123 254.353 62.0287 238.909 88.8971 243.233L88.8982 243.233C112.479 247 129.459 267.876 140.479 289.399ZM141.369 288.943C130.317 267.358 113.136 246.093 89.056 242.246L141.369 288.943Z" stroke="url(#paint11_linear)" stroke-opacity="0.45" stroke-width="2" stroke-miterlimit="10"/>
<path d="M150.803 271.922L150.803 271.923C159.28 288.633 165.62 306.432 171.846 324.418C172.319 325.783 172.79 327.149 173.263 328.516C179.004 345.14 184.781 361.865 192.171 377.881L192.173 377.885C200.307 395.285 209.415 408.511 220.054 419.281L220.058 419.285C244.685 443.922 276.175 453.041 315.934 462.495L315.939 462.496C358.011 472.247 383.171 498.148 395.995 531.152C408.838 564.207 409.316 604.425 401.861 642.689L401.861 642.692C396.304 671.738 388.509 700.352 376.041 727.062L376.948 727.485L376.041 727.062C373.313 732.909 370.425 739.256 367.374 745.96C354.056 775.224 337.639 811.297 317.927 842.365C305.817 861.452 292.497 878.593 277.937 891.077C263.38 903.558 247.643 911.335 230.676 911.82C227.545 911.905 224.265 910.725 220.83 908.46C217.396 906.196 213.87 902.891 210.272 898.837C203.073 890.726 195.715 879.772 188.327 868.577C187.744 867.694 187.161 866.809 186.578 865.924C179.79 855.624 172.99 845.307 166.332 837.118C162.714 832.669 159.113 828.816 155.55 825.921C151.993 823.032 148.411 821.046 144.832 820.427L144.83 820.427C127.022 817.389 109.389 816.004 91.9689 814.637C83.663 813.984 75.4053 813.336 67.2 812.514C41.7358 809.963 16.6483 805.735 -8.2926 794.574C-23.4395 787.774 -39.801 786.977 -56.7718 789.442C-73.7319 791.906 -91.366 797.638 -109.087 803.959C-113.148 805.408 -117.213 806.887 -121.276 808.366C-134.974 813.35 -148.654 818.328 -162.121 822.11C-179.572 827.012 -196.561 829.871 -212.597 828.132C-215.06 827.854 -217.327 826.551 -219.454 824.296C-221.59 822.034 -223.541 818.859 -225.35 814.954C-228.97 807.142 -231.924 796.627 -234.686 785.245C-235.855 780.429 -236.992 775.444 -238.129 770.456C-239.665 763.72 -241.203 756.978 -242.822 750.639C-245.642 739.593 -248.757 729.56 -252.664 722.547L-252.669 722.538L-252.674 722.529C-256.199 716.489 -260.1 712.356 -265.62 712.216L-265.633 712.216C-316.099 711.578 -351.819 676.827 -373.455 633.415C-380.328 619.442 -386.414 602.885 -386.301 580.1C-386.087 579.259 -386.121 578.382 -386.149 577.672L-386.151 577.641C-385.198 547.041 -373.411 514.973 -357.479 488.699C-341.522 462.383 -321.522 442.066 -304.306 434.803C-287.042 427.52 -271.116 427.986 -255.155 429.482C-252.823 429.701 -250.487 429.942 -248.146 430.184C-234.507 431.592 -220.662 433.022 -206.016 430.146L-206.004 430.143C-196.988 428.264 -188.499 425.44 -180.053 421.82L-180.05 421.819C-157.39 412.024 -136.477 396.072 -117.125 378.559C-104.268 366.924 -92.0551 354.555 -80.4717 342.823C-74.6344 336.911 -68.9569 331.161 -63.4377 325.749C-57.6491 320.108 -51.2803 313.498 -44.4275 306.386C-29.0697 290.447 -11.2807 271.985 7.85859 256.25C35.5524 233.482 65.7091 216.753 94.9089 221.62L94.9144 221.621C120.741 225.779 138.994 248.595 150.803 271.922Z" stroke="url(#paint12_linear)" stroke-opacity="0.45" stroke-width="2" stroke-miterlimit="10"/>
<path d="M161.125 254.44L161.127 254.444C170.135 272.491 176.868 291.651 183.556 310.989C183.83 311.779 184.103 312.569 184.376 313.36C190.784 331.898 197.235 350.562 205.681 368.419C214.194 387.252 224.304 401.554 235.52 413.011L235.525 413.015C261.738 439.429 295.409 449.18 338.143 459.235L338.145 459.236C383.398 469.78 410.454 497.74 424.236 533.32C438.038 568.949 438.537 612.257 430.516 653.374C424.325 684.601 415.897 715.397 402.553 744.217L402.552 744.218C399.731 750.331 396.745 756.955 393.593 763.949C379.295 795.667 361.569 834.991 340.225 868.827C327.203 889.47 312.868 908.014 297.193 921.514C281.521 935.012 264.569 943.417 246.288 943.915C242.899 943.991 239.356 942.69 235.653 940.22C231.951 937.75 228.154 934.154 224.284 929.753C216.54 920.946 208.63 909.069 200.692 896.943C200.08 896.008 199.468 895.073 198.856 894.137C191.547 882.957 184.229 871.764 177.064 862.889C173.179 858.077 169.313 853.914 165.489 850.789C161.672 847.671 157.832 845.535 154 844.876L153.998 844.876C134.831 841.62 115.881 840.182 97.1535 838.76C88.2242 838.082 79.3454 837.408 70.5177 836.543C43.1251 833.858 16.0924 829.327 -10.9204 817.17C-27.1657 809.854 -44.7317 809.019 -62.9641 811.717C-81.1859 814.414 -100.139 820.65 -119.189 827.536C-123.667 829.154 -128.148 830.808 -132.628 832.462C-147.241 837.855 -161.834 843.241 -176.194 847.364C-194.949 852.749 -213.201 855.946 -230.415 854.19C-233.104 853.909 -235.563 852.505 -237.857 850.071C-240.16 847.629 -242.254 844.194 -244.185 839.969C-248.049 831.517 -251.168 820.127 -254.066 807.803C-255.303 802.543 -256.503 797.098 -257.702 791.653C-259.299 784.406 -260.896 777.158 -262.582 770.344C-265.537 758.393 -268.812 747.558 -272.959 740.014C-276.611 733.37 -280.994 729.13 -286.733 728.913L-286.747 728.912L-286.76 728.912C-340.652 728.328 -379.267 690.899 -402.308 644.193L-402.309 644.191C-409.882 628.943 -416.42 611.175 -416.036 586.562L-416.035 586.535L-416.036 586.508C-416.051 586.135 -416.049 585.7 -416.047 585.235L-416.047 585.225C-416.045 584.787 -416.043 584.323 -416.058 583.911C-415.077 550.958 -402.371 516.401 -385.222 488.084C-368.047 459.726 -346.533 437.815 -328.103 429.987L-328.102 429.986C-309.468 422.053 -292.306 422.55 -275.135 424.169C-272.614 424.406 -270.091 424.668 -267.561 424.931C-252.904 426.455 -238.047 427.999 -222.332 424.878L-222.324 424.876C-212.753 422.895 -203.394 419.798 -194.319 415.832L-194.313 415.83C-170.06 405.055 -147.645 387.77 -126.873 368.866C-113.349 356.558 -100.474 343.518 -88.2374 331.124C-81.6961 324.499 -75.337 318.058 -69.1583 312.012L-69.1572 312.011C-63.1154 306.08 -56.4722 299.16 -49.3259 291.716C-32.7017 274.399 -13.3544 254.245 7.48116 237.11C37.2897 212.595 69.7884 194.578 101.236 199.836C128.762 204.482 148.602 229.077 161.125 254.44Z" stroke="url(#paint13_linear)" stroke-opacity="0.45" stroke-width="2" stroke-miterlimit="10"/>
<path d="M171.45 236.965L171.451 236.967C180.99 256.348 188.055 276.851 195.005 297.543C195.462 298.906 195.92 300.27 196.378 301.635C202.859 320.963 209.376 340.4 217.838 359.085L217.84 359.089C227.038 379.167 237.662 394.409 249.712 406.637L249.714 406.64C277.752 434.895 313.77 445.591 359.244 456.18L359.245 456.181C407.958 467.468 437.003 497.385 451.76 535.478C466.537 573.621 466.996 620.001 458.373 664.095C451.863 697.326 442.731 730.543 428.511 761.473C425.428 768.155 422.159 775.417 418.702 783.096C403.457 816.965 384.559 858.947 361.819 895.117C347.875 917.297 332.52 937.234 315.726 951.746C298.935 966.256 280.766 975.291 261.171 975.8L261.17 975.8C257.515 975.896 253.702 974.497 249.727 971.838C245.753 969.178 241.684 965.303 237.54 960.559C229.248 951.07 220.788 938.262 212.304 925.19C211.635 924.159 210.966 923.126 210.297 922.093C202.501 910.064 194.7 898.028 187.06 888.484C182.91 883.3 178.782 878.818 174.699 875.458C170.624 872.105 166.528 869.814 162.443 869.115L162.441 869.115C142.038 865.663 121.844 864.124 101.873 862.602C92.1745 861.863 82.5281 861.128 72.9359 860.18C43.541 857.274 14.5196 852.362 -14.4447 839.245L-14.4452 839.245C-31.7292 831.429 -50.4396 830.574 -69.8807 833.521C-89.311 836.465 -109.538 843.218 -129.887 850.678C-134.691 852.44 -139.501 854.24 -144.31 856.04C-159.902 861.876 -175.483 867.709 -190.823 872.193C-210.886 878.059 -230.431 881.585 -248.882 879.797C-251.724 879.503 -254.322 877.997 -256.743 875.384C-259.173 872.762 -261.379 869.072 -263.412 864.536C-267.479 855.463 -270.756 843.231 -273.799 829.995C-275.099 824.342 -276.359 818.492 -277.619 812.64C-279.296 804.855 -280.973 797.068 -282.745 789.741C-285.853 776.889 -289.298 765.235 -293.665 757.102L-293.67 757.094C-297.47 750.18 -302.203 745.257 -308.301 745.227C-366.104 744.555 -407.372 704.517 -431.816 654.521L-431.82 654.513C-439.905 638.333 -446.888 619.388 -446.497 592.945C-446.477 592.412 -446.475 591.942 -446.473 591.488L-446.473 591.488C-446.471 591.028 -446.469 590.585 -446.45 590.084L-446.45 590.078C-445.328 554.794 -431.759 517.715 -413.447 487.329C-395.116 456.911 -372.15 433.39 -352.387 425.032L-352.386 425.031C-332.418 416.567 -314.036 417.156 -295.651 418.897C-293.079 419.14 -290.506 419.407 -287.927 419.674C-272.11 421.312 -256.091 422.97 -239.126 419.47L-239.117 419.468C-228.691 417.216 -218.778 414.019 -209.07 409.706C-183.012 398.143 -158.99 379.618 -136.775 359.361C-122.124 346.002 -108.212 331.844 -95.016 318.413C-88.2183 311.495 -81.6103 304.77 -75.1887 298.446L-75.1875 298.445C-68.8106 292.146 -61.7999 284.803 -54.2573 276.904C-36.4468 258.25 -15.6709 236.491 6.72816 218.025C38.6305 191.724 73.4705 172.421 107.251 178.224L107.253 178.224C137.025 183.261 158.138 209.796 171.45 236.965Z" stroke="url(#paint14_linear)" stroke-opacity="0.45" stroke-width="2" stroke-miterlimit="10"/>
<path d="M-80.8395 284.468L-80.837 284.466C-74.1413 277.84 -66.7752 270.121 -58.8462 261.812C-39.8496 241.905 -17.6218 218.612 6.35933 198.856C40.3673 170.838 77.5487 150.248 113.577 156.439C145.045 161.966 167.503 190.204 181.775 219.49C191.846 240.208 199.303 262.072 206.712 284.016L207.275 285.684C214.488 307.053 221.717 328.47 231.32 348.834C240.961 370.088 252.101 386.268 264.981 399.264L264.983 399.266C294.674 429.049 332.795 440.621 381.251 451.813C433.265 463.929 464.204 495.905 479.89 536.563C495.595 577.272 496.014 626.726 486.824 673.674L486.824 673.675C479.923 709.154 470.159 744.547 454.823 777.514L454.822 777.514C451.276 785.151 447.508 793.501 443.514 802.351C427.34 838.192 407.465 882.235 383.638 920.292C368.787 944.013 352.434 965.35 334.536 980.894C316.641 996.436 297.261 1006.14 276.333 1006.72L276.329 1006.72C272.439 1006.84 268.383 1005.36 264.158 1002.52C259.935 999.685 255.609 995.545 251.205 990.476C242.393 980.334 233.397 966.633 224.374 952.649C223.673 951.562 222.971 950.474 222.27 949.385C213.966 936.499 205.656 923.603 197.516 913.383C193.1 907.838 188.708 903.048 184.364 899.459C180.029 895.877 175.676 893.437 171.338 892.698L171.337 892.698C149.573 889.029 128.034 887.427 106.727 885.843C96.3929 885.074 86.1137 884.31 75.8903 883.316C44.5363 880.267 13.5702 875.052 -17.3446 860.975C-35.7099 852.582 -55.6059 851.68 -76.2922 854.872C-96.9678 858.062 -118.501 865.355 -140.172 873.415C-145.305 875.324 -150.445 877.276 -155.584 879.228C-172.174 885.528 -188.758 891.825 -205.086 896.678C-226.464 903.03 -247.298 906.87 -266.968 904.99L-266.969 904.99C-270.007 904.702 -272.769 903.108 -275.331 900.33C-277.901 897.542 -280.224 893.609 -282.356 888.77C-286.619 879.091 -290.022 866.019 -293.176 851.865C-294.502 845.914 -295.787 839.759 -297.073 833.598C-298.832 825.168 -300.594 816.727 -302.468 808.778C-305.714 795.013 -309.339 782.523 -313.986 773.783C-317.841 766.028 -322.808 761.067 -329.368 760.886L-329.376 760.886L-329.383 760.886C-391.098 760.129 -434.71 717.313 -460.874 664.186C-469.408 646.821 -476.837 626.692 -476.435 598.409L-476.435 598.382L-476.436 598.355C-476.465 597.606 -476.428 596.611 -476.388 595.558L-476.388 595.554C-475.118 557.95 -460.628 518.382 -441.1 485.954C-421.551 453.493 -397.072 428.379 -375.975 419.491L-375.971 419.489C-354.632 410.374 -335.074 410.977 -315.51 412.831C-312.736 413.094 -309.959 413.382 -307.177 413.672C-290.378 415.417 -273.354 417.187 -255.24 413.479C-244.31 411.364 -233.767 407.819 -223.442 403.166C-195.736 390.9 -170.168 371.118 -146.502 349.479C-131.155 335.447 -116.559 320.586 -102.695 306.47C-95.1973 298.835 -87.9131 291.419 -80.8395 284.468Z" stroke="url(#paint15_linear)" stroke-opacity="0.45" stroke-width="2" stroke-miterlimit="10"/>
<path d="M514.923 684.466L515.905 684.656L514.923 684.466C507.631 722.19 497.164 760.005 480.882 795.323C477.056 803.556 472.983 812.59 468.658 822.182C451.569 860.081 430.549 906.699 405.36 947.045C389.582 972.318 372.202 995.071 353.18 1011.65C334.16 1028.22 313.561 1038.56 291.319 1039.16L291.316 1039.16C287.198 1039.28 282.902 1037.68 278.426 1034.64C273.95 1031.61 269.365 1027.18 264.693 1021.76C255.348 1010.93 245.791 996.303 236.204 981.384C235.497 980.284 234.79 979.183 234.083 978.082C225.22 964.273 216.346 950.448 207.656 939.506C202.963 933.596 198.297 928.493 193.687 924.673C189.085 920.86 184.471 918.27 179.882 917.491L179.88 917.491C156.88 913.625 134.095 911.923 111.544 910.238C100.442 909.409 89.3962 908.584 78.4094 907.507C45.0529 904.237 12.098 898.641 -20.7682 883.604C-40.2322 874.693 -61.3374 873.769 -83.2908 877.213C-105.233 880.655 -128.092 888.473 -151.097 897.114C-156.58 899.173 -162.07 901.279 -167.559 903.384C-185.134 910.125 -202.698 916.862 -219.983 922.064C-242.66 928.889 -264.747 933.035 -285.575 931.081L-285.576 931.081C-289.497 930.717 -292.987 928.27 -296.169 923.992C-299.353 919.713 -302.139 913.713 -304.656 906.508C-309.637 892.242 -313.47 873.529 -317.315 854.754L-317.431 854.184C-321.306 835.264 -325.206 816.323 -330.322 802.074C-332.879 794.952 -335.767 788.924 -339.159 784.64C-342.558 780.346 -346.552 777.701 -351.299 777.614L-351.302 777.614C-416.618 776.6 -462.885 731.175 -490.453 674.754L-490.455 674.75C-499.501 656.454 -507.307 634.903 -506.897 604.78L-506.897 604.779C-506.406 564.463 -491.144 521.78 -470.261 486.728C-449.36 451.643 -422.949 424.4 -400.325 414.776C-377.651 405.129 -356.854 405.764 -336.069 407.71C-333.144 407.984 -330.216 408.285 -327.283 408.586C-309.418 410.419 -291.332 412.275 -272.108 408.313C-235.027 400.724 -201.381 378.831 -170.704 352.648C-149.059 334.174 -128.821 313.499 -109.88 294.146C-101.988 286.084 -94.3213 278.251 -86.8711 270.903L-86.8694 270.901C-79.7899 263.885 -71.988 255.694 -63.5806 246.867C-43.4365 225.718 -19.8166 200.921 5.66999 179.888C41.8131 150.06 81.3541 128.124 119.594 134.827C153.309 140.744 177.039 170.925 192.101 202.016L193.001 201.58L192.101 202.016C202.738 223.948 210.604 247.113 218.374 270.406C218.728 271.468 219.082 272.53 219.436 273.592C226.842 295.813 234.272 318.106 244.033 339.402L244.033 339.403C261.062 376.512 282.223 399.585 308.434 415.496C334.605 431.383 365.755 440.093 402.662 448.585C458.013 461.408 490.847 495.443 507.482 538.706C524.136 582.022 524.56 634.627 514.923 684.466Z" stroke="url(#paint16_linear)" stroke-opacity="0.45" stroke-width="2" stroke-miterlimit="10"/>
<defs>
<linearGradient id="paint0_linear" x1="15.4057" y1="527.069" x2="28.7554" y2="481.125" gradientUnits="userSpaceOnUse">
<stop stop-color="#A100EF"/>
<stop offset="1" stop-color="#13ECAB"/>
</linearGradient>
<linearGradient id="paint1_linear" x1="9.2238" y1="553.477" x2="36.1136" y2="460.934" gradientUnits="userSpaceOnUse">
<stop stop-color="#A100EF"/>
<stop offset="1" stop-color="#13ECAB"/>
</linearGradient>
<linearGradient id="paint2_linear" x1="2.09307" y1="582.347" x2="43.4783" y2="439.917" gradientUnits="userSpaceOnUse">
<stop stop-color="#A100EF"/>
<stop offset="1" stop-color="#13ECAB"/>
</linearGradient>
<linearGradient id="paint3_linear" x1="-5.10877" y1="610.971" x2="50.7879" y2="418.599" gradientUnits="userSpaceOnUse">
<stop stop-color="#A100EF"/>
<stop offset="1" stop-color="#13ECAB"/>
</linearGradient>
<linearGradient id="paint4_linear" x1="-12.0107" y1="639.959" x2="58.4479" y2="397.47" gradientUnits="userSpaceOnUse">
<stop stop-color="#A100EF"/>
<stop offset="1" stop-color="#13ECAB"/>
</linearGradient>
<linearGradient id="paint5_linear" x1="-19.2021" y1="668.867" x2="65.8729" y2="376.075" gradientUnits="userSpaceOnUse">
<stop stop-color="#A100EF"/>
<stop offset="1" stop-color="#13ECAB"/>
</linearGradient>
<linearGradient id="paint6_linear" x1="-26.8032" y1="697.621" x2="72.9001" y2="354.485" gradientUnits="userSpaceOnUse">
<stop stop-color="#A100EF"/>
<stop offset="1" stop-color="#13ECAB"/>
</linearGradient>
<linearGradient id="paint7_linear" x1="-33.5554" y1="726.656" x2="80.7185" y2="333.374" gradientUnits="userSpaceOnUse">
<stop stop-color="#A100EF"/>
<stop offset="1" stop-color="#13ECAB"/>
</linearGradient>
<linearGradient id="paint8_linear" x1="-40.6859" y1="755.582" x2="88.1423" y2="312.211" gradientUnits="userSpaceOnUse">
<stop stop-color="#A100EF"/>
<stop offset="1" stop-color="#13ECAB"/>
</linearGradient>
<linearGradient id="paint9_linear" x1="-47.7981" y1="784.234" x2="95.5271" y2="290.97" gradientUnits="userSpaceOnUse">
<stop stop-color="#A100EF"/>
<stop offset="1" stop-color="#13ECAB"/>
</linearGradient>
<linearGradient id="paint10_linear" x1="-55.0717" y1="812.856" x2="102.81" y2="269.495" gradientUnits="userSpaceOnUse">
<stop stop-color="#A100EF"/>
<stop offset="1" stop-color="#13ECAB"/>
</linearGradient>
<linearGradient id="paint11_linear" x1="-62.3337" y1="842.25" x2="110.325" y2="248.033" gradientUnits="userSpaceOnUse">
<stop stop-color="#A100EF"/>
<stop offset="1" stop-color="#13ECAB"/>
</linearGradient>
<linearGradient id="paint12_linear" x1="-69.2393" y1="870.962" x2="117.917" y2="226.85" gradientUnits="userSpaceOnUse">
<stop stop-color="#A100EF"/>
<stop offset="1" stop-color="#13ECAB"/>
</linearGradient>
<linearGradient id="paint13_linear" x1="-76.1217" y1="900.223" x2="125.734" y2="205.524" gradientUnits="userSpaceOnUse">
<stop stop-color="#A100EF"/>
<stop offset="1" stop-color="#13ECAB"/>
</linearGradient>
<linearGradient id="paint14_linear" x1="-83.3955" y1="929.09" x2="133.028" y2="184.254" gradientUnits="userSpaceOnUse">
<stop stop-color="#A100EF"/>
<stop offset="1" stop-color="#13ECAB"/>
</linearGradient>
<linearGradient id="paint15_linear" x1="-90.2906" y1="957.561" x2="140.622" y2="162.86" gradientUnits="userSpaceOnUse">
<stop stop-color="#A100EF"/>
<stop offset="1" stop-color="#13ECAB"/>
</linearGradient>
<linearGradient id="paint16_linear" x1="-97.6652" y1="986.929" x2="147.957" y2="141.602" gradientUnits="userSpaceOnUse">
<stop stop-color="#A100EF"/>
<stop offset="1" stop-color="#13ECAB"/>
</linearGradient>
</defs>
</svg>
