<svg width="161" height="26" viewBox="0 0 161 26" fill="none" xmlns="http://www.w3.org/2000/svg">
<path d="M44.4794 10.6732L43.2724 9.02422H38.1554L37.3394 10.1462V16.1642L38.1554 17.2692H43.2554L44.4794 15.6202L45.9244 16.7422L44.1394 19.1052H37.2544L35.5204 16.7932V9.51722L37.2544 7.20522H44.1564L45.9414 9.56822L44.4794 10.6732ZM52.7313 13.5122L51.7113 12.7642H49.9093L49.2463 13.2742V19.1052H47.4783V10.9792H49.2463V11.6422L49.9603 10.9792H52.3063L53.7513 12.0842L52.7313 13.5122ZM61.2298 19.1392H57.0648L55.1608 17.7282V12.3902L57.0648 10.9962H61.2298L63.1168 12.3902V17.7282L61.2298 19.1392ZM61.3318 13.3082L60.6178 12.7642H57.6598L56.9458 13.3082V16.8102L57.6598 17.3542H60.6178L61.3318 16.8102V13.3082ZM70.9853 19.1052H67.0753L66.4123 18.5782V22.8792H64.6443V10.9962H66.4123V11.6082L67.0413 10.9792H70.9853L72.7193 12.4582V17.6262L70.9853 19.1052ZM70.9513 13.3422L70.3393 12.7982H67.3303L66.4123 13.7332V16.7252L67.1263 17.2692H70.3393L70.9513 16.7592V13.3422ZM80.5976 19.1052H76.6876L76.0246 18.5782V22.8792H74.2566V10.9962H76.0246V11.6082L76.6536 10.9792H80.5976L82.3316 12.4582V17.6262L80.5976 19.1052ZM80.5636 13.3422L79.9516 12.7982H76.9426L76.0246 13.7332V16.7252L76.7386 17.2692H79.9516L80.5636 16.7592V13.3422ZM85.4839 15.6882V16.7932L86.1979 17.3202H89.4109L90.6009 16.3172L91.7739 17.7112L90.0399 19.1052H85.6029L83.6989 17.6942V12.3902L85.6029 10.9962H90.0399L91.7909 12.4242V15.6882H85.4839ZM90.0059 13.2572L89.4109 12.7642H86.1979L85.4839 13.3082V13.9882H90.0059V13.2572ZM98.5682 13.5122L97.5482 12.7642H95.7462L95.0832 13.2742V19.1052H93.3152V10.9792H95.0832V11.6422L95.7972 10.9792H98.1432L99.5882 12.0842L98.5682 13.5122ZM103.515 9.02422L102.733 10.1292V12.1692H107V14.0052H102.733V19.1052H100.948V9.50022L102.631 7.20522H108.326V9.02422H103.515ZM109.834 10.0782V8.25922H111.398V10.0782H109.834ZM109.817 19.1052V10.9792H111.364V19.1052H109.817ZM118.935 19.1052V13.3082L118.221 12.7642H115.603L114.889 13.3082V19.0882H113.104V10.9962H114.889V11.6082L115.535 10.9962H118.816L120.72 12.3902V19.1052H118.935ZM128.389 19.0882V18.6802L127.947 19.1052H123.833L122.082 17.6432V12.4242L123.833 10.9962H127.93L128.389 11.3362V10.9962H130.157V19.0882H128.389ZM128.389 13.6312L127.59 12.7642H124.479L123.867 13.2572V16.8272L124.462 17.3202H127.675L128.389 16.5892V13.6312ZM137.695 19.1052V13.3082L136.981 12.7642H134.363L133.649 13.3082V19.0882H131.864V10.9962H133.649V11.6082L134.295 10.9962H137.576L139.48 12.3902V19.1052H137.695ZM147.386 19.1392H142.932L141.011 17.7282V12.3902L142.932 10.9792H147.386L149.137 12.4242V14.1922H147.352V13.2572L146.757 12.7642H143.51L142.796 13.3082V16.8102L143.51 17.3542H146.757L147.352 16.8442V15.9262H149.137V17.6772L147.386 19.1392ZM152.455 15.6882V16.7932L153.169 17.3202H156.382L157.572 16.3172L158.745 17.7112L157.011 19.1052H152.574L150.67 17.6942V12.3902L152.574 10.9962H157.011L158.762 12.4242V15.6882H152.455ZM156.977 13.2572L156.382 12.7642H153.169L152.455 13.3082V13.9882H156.977V13.2572Z" fill="white"/>
<ellipse cx="13.1853" cy="13" rx="13.1853" ry="13" fill="url(#paint0_linear)"/>
<ellipse cx="13.2101" cy="12.9756" rx="11.9755" ry="11.8071" fill="black"/>
<path d="M14.6236 9.08895C11.6123 9.11453 8.31918 11.3889 7.26815 14.169C9.50011 12.5871 11.7385 13.7685 14.1559 14.0051C16.5733 14.2418 16.2023 14.0707 18.1729 14.0764C19.2239 11.2963 17.6349 9.06338 14.6236 9.08895Z" fill="url(#paint1_linear)"/>
<path d="M10.7956 19.9334C7.8374 19.9224 6.24836 17.6895 7.24636 14.9461C10.2493 13.0835 12.2064 15.2059 17.9589 14.9861C16.9609 17.7294 13.7538 19.9444 10.7956 19.9334Z" fill="url(#paint2_linear)"/>
<path d="M14.6236 9.08895C11.6123 9.11452 8.31919 11.3889 7.26816 14.169C9.50011 12.5871 11.7385 13.7685 14.1559 14.0051C16.5733 14.2418 16.2023 14.0706 18.1729 14.0764C19.2239 11.2963 17.6349 9.06338 14.6236 9.08895Z" fill="url(#paint3_linear)"/>
<path d="M10.7956 19.9334C7.8374 19.9224 6.24836 17.6895 7.24636 14.9461C10.2493 13.0835 12.2064 15.2059 17.9589 14.9861C16.9609 17.7294 13.7538 19.9444 10.7956 19.9334Z" fill="url(#paint4_linear)"/>
<path d="M17.6011 12.1884C18.7986 11.0076 18.4408 10.2451 17.2971 7.49829" stroke="url(#paint5_linear)"/>
<path d="M18.0321 8.91943C19.4993 9.33324 21.0373 8.48306 21.4673 7.0205L21.1956 6.94386C19.7284 6.53005 18.1903 7.38023 17.7603 8.84279L18.0321 8.91943Z" fill="url(#paint6_linear)"/>
<path d="M17.9009 8.0633C18.1062 6.54111 17.0377 5.14853 15.5142 4.95289L15.4826 5.18739C15.2772 6.70958 16.3458 8.10216 17.8693 8.2978L17.9009 8.0633Z" fill="url(#paint7_linear)"/>
<defs>
<linearGradient id="paint0_linear" x1="13.1853" y1="0" x2="13.1853" y2="26" gradientUnits="userSpaceOnUse">
<stop stop-color="#13ECAB"/>
<stop offset="1" stop-color="#C834F7"/>
</linearGradient>
<linearGradient id="paint1_linear" x1="12.2813" y1="16.3585" x2="12.2316" y2="8.70709" gradientUnits="userSpaceOnUse">
<stop stop-color="#C834F7"/>
<stop offset="0.384725" stop-color="#718BD3"/>
<stop offset="0.848958" stop-color="#13ECAB"/>
</linearGradient>
<linearGradient id="paint2_linear" x1="10.7956" y1="19.9334" x2="10.8613" y2="14.9432" gradientUnits="userSpaceOnUse">
<stop offset="0.0001" stop-color="#C833F7"/>
<stop offset="0.963542" stop-color="#7E7ED8"/>
</linearGradient>
<linearGradient id="paint3_linear" x1="12.2813" y1="16.3585" x2="12.2316" y2="8.70709" gradientUnits="userSpaceOnUse">
<stop stop-color="#C834F7"/>
<stop offset="0.384725" stop-color="#718BD3"/>
<stop offset="0.848958" stop-color="#13ECAB"/>
</linearGradient>
<linearGradient id="paint4_linear" x1="10.7956" y1="19.9334" x2="10.8613" y2="14.9432" gradientUnits="userSpaceOnUse">
<stop offset="0.0001" stop-color="#C833F7"/>
<stop offset="0.963542" stop-color="#7E7ED8"/>
</linearGradient>
<linearGradient id="paint5_linear" x1="18.1806" y1="9.16396" x2="15.9097" y2="14.1128" gradientUnits="userSpaceOnUse">
<stop stop-color="#13ECAB"/>
<stop offset="0.343329" stop-color="#31CDB8"/>
<stop offset="0.487741" stop-color="#4DB1C4"/>
<stop offset="0.854972" stop-color="#817CDA"/>
</linearGradient>
<linearGradient id="paint6_linear" x1="19.7111" y1="7.60062" x2="17.1625" y2="10.6105" gradientUnits="userSpaceOnUse">
<stop stop-color="#13ECAB"/>
<stop offset="1" stop-color="#7E7ED8"/>
</linearGradient>
<linearGradient id="paint7_linear" x1="16.3469" y1="6.58106" x2="19.6726" y2="8.68826" gradientUnits="userSpaceOnUse">
<stop stop-color="#13ECAB"/>
<stop offset="1" stop-color="#7E7ED8"/>
</linearGradient>
</defs>
</svg>