<svg width="40" height="40" viewBox="0 0 40 40" fill="none" xmlns="http://www.w3.org/2000/svg"><g filter="url(#filter0_i)"><path fill-rule="evenodd" clip-rule="evenodd" d="M0 20C0 8.9543 8.9543 0 20 0C31.0457 0 40 8.9543 40 20C40 31.0457 31.0457 40 20 40C8.9543 40 0 31.0457 0 20ZM16.7837 14.6141L10.3804 11.4503C10.3256 11.4232 10.2734 11.4104 10.2262 11.4104C10.159 11.4104 10.1021 11.4366 10.0621 11.4842C10.023 11.5309 10 11.5983 10 11.6826V25.2647C10 25.4959 10.1712 25.7695 10.3804 25.8729L16.2978 28.7965C16.38 28.8372 16.4583 28.8564 16.5291 28.8564C16.7285 28.8564 16.8684 28.704 16.8684 28.4481V14.7495C16.8684 14.6922 16.8356 14.6397 16.7837 14.6141ZM30.0339 28.792L24.2838 25.9511L30.6045 15.8017V28.4436C30.6045 28.7903 30.3477 28.9471 30.0339 28.792ZM17.4754 15.6307V22.5913L23.7368 25.6849L17.4754 15.6307ZM23.927 11.3564L30.4539 14.5812C30.5352 14.6214 30.5642 14.7217 30.5165 14.7983L24.0932 25.1127L19.6023 17.9014L23.6253 11.4413C23.6681 11.3727 23.7471 11.3333 23.8265 11.3333C23.8276 11.3333 23.8287 11.3335 23.8298 11.3337C23.8308 11.3338 23.8318 11.334 23.8328 11.334C23.8651 11.3349 23.8973 11.3417 23.927 11.3564Z" fill="#13ECAB"></path></g><defs><filter id="filter0_i" x="0" y="0" width="40" height="44" filterUnits="userSpaceOnUse" color-interpolation-filters="sRGB"><feFlood flood-opacity="0" result="BackgroundImageFix"></feFlood><feBlend mode="normal" in="SourceGraphic" in2="BackgroundImageFix" result="shape"></feBlend><feColorMatrix in="SourceAlpha" type="matrix" values="0 0 0 0 0 0 0 0 0 0 0 0 0 0 0 0 0 0 127 0" result="hardAlpha"></feColorMatrix><feOffset dy="4"></feOffset><feGaussianBlur stdDeviation="2"></feGaussianBlur><feComposite in2="hardAlpha" operator="arithmetic" k2="-1" k3="1"></feComposite><feColorMatrix type="matrix" values="0 0 0 0 0 0 0 0 0 0 0 0 0 0 0 0 0 0 0.25 0"></feColorMatrix><feBlend mode="normal" in2="shape" result="effect1_innerShadow"></feBlend></filter></defs></svg>