<svg width="666" height="978" viewBox="0 0 666 978" fill="none" xmlns="http://www.w3.org/2000/svg">
<path d="M531.122 545.509L531.12 545.503C529.849 540.177 530.451 536.405 532.04 533.657C533.64 530.89 536.333 529.003 539.55 527.637C542.77 526.271 546.42 525.467 549.829 524.808C550.393 524.699 550.955 524.593 551.508 524.489C554.224 523.978 556.746 523.504 558.507 522.828L558.514 522.825L558.52 522.822C564.423 520.457 570.409 521.061 576.584 521.683C576.752 521.7 576.921 521.717 577.09 521.734C583.361 522.364 589.843 522.931 596.044 519.78L596.052 519.776L596.061 519.771C600.957 517.169 606.947 517.692 612.367 521C613.465 521.898 614.669 522.905 615.479 524.366C616.583 526.491 616.637 529.063 616.018 531.43C615.397 533.803 614.146 535.799 612.849 536.801C611.474 537.723 609.912 538.178 608.169 538.604C607.947 538.658 607.722 538.712 607.494 538.766C605.962 539.132 604.298 539.529 602.724 540.277L602.717 540.28C600.027 541.583 597.758 543.946 595.725 546.63C594.126 548.741 592.618 551.129 591.146 553.459C590.745 554.093 590.348 554.723 589.951 555.342C588.076 558.271 586.232 560.962 584.228 562.925C582.233 564.879 580.18 566.015 577.881 566.027L577.87 566.027L577.858 566.027C574.73 566.118 571.671 564.106 568.335 561.526C567.88 561.174 567.419 560.811 566.955 560.446C565.771 559.514 564.563 558.562 563.358 557.717C561.672 556.534 559.907 555.493 558.062 554.922L558.06 554.921C555.354 554.09 552.718 554.303 550.217 554.683C549.565 554.782 548.928 554.891 548.3 554.998C546.462 555.312 544.707 555.612 542.894 555.613L542.869 555.613L542.844 555.614C538.302 555.843 532.8 552.726 531.122 545.509Z" stroke="url(#paint0_linear)" stroke-opacity="0.5" stroke-width="2" stroke-miterlimit="10"/>
<path d="M603.546 560.827L603.541 560.837C602.652 562.457 601.76 564.195 600.841 565.985C599.271 569.044 597.622 572.256 595.775 575.293C592.857 580.088 589.609 584.14 585.778 586.065C582.249 587.808 578.716 587.501 574.922 586.175C571.797 585.043 568.772 582.973 565.627 580.46C564.194 579.315 562.752 578.091 561.27 576.834C561.129 576.714 560.988 576.594 560.846 576.474C559.221 575.096 557.55 573.686 555.817 572.328C552.759 569.829 549.662 567.758 546.351 566.747C542.615 565.396 538.903 565.32 535.173 565.631C533.475 565.772 531.754 565.996 530.025 566.221C529.855 566.243 529.684 566.265 529.513 566.287C527.603 566.535 525.675 566.775 523.695 566.912L523.685 566.913C512.784 567.77 503.603 559.371 500.803 546.295C499.863 541.903 499.444 537.723 499.539 533.75C499.821 527.841 500.859 521.398 503.026 515.93C505.2 510.447 508.454 506.077 513.088 504.078C514.01 503.681 515.163 503.609 516.539 503.777C517.912 503.944 519.407 504.337 520.972 504.781C521.236 504.856 521.504 504.933 521.772 505.01C523.064 505.381 524.39 505.763 525.647 506.022C527.16 506.334 528.696 506.497 530.077 506.21L530.085 506.209L530.092 506.207C533.005 505.553 535.787 504.854 538.461 504.181C543.394 502.941 547.96 501.793 552.303 501.193L552.314 501.192L552.324 501.19C558.232 500.25 563.834 498.356 569.28 496.515C569.903 496.304 570.525 496.094 571.144 495.886C577.211 493.851 583.116 492.021 589.264 491.65C592.025 491.488 594.976 492.589 598.183 493.87C598.352 493.937 598.522 494.005 598.693 494.073C601.635 495.253 604.787 496.516 607.858 496.605C609.02 496.767 609.926 496.671 611.039 496.27L611.055 496.265L611.07 496.259C619.193 493.028 627.908 495.018 635.38 500.677L635.392 500.686L635.404 500.694C637.464 502.16 639.334 504.119 640.838 507.099L640.934 507.288L641.057 507.389L641.113 507.52C642.994 511.893 643.118 517.171 642.119 521.916C641.114 526.687 639.02 530.712 636.689 532.67L636.675 532.682L636.661 532.694C634.625 534.536 632.3 535.432 629.795 536.15C629.182 536.325 628.549 536.492 627.906 536.661C625.98 537.168 623.955 537.701 622.072 538.579C620.592 539.244 619.318 539.904 618.061 540.841C614.851 543.151 612.236 546.369 609.928 549.87C608.112 552.625 606.454 555.607 604.843 558.506C604.408 559.288 603.976 560.064 603.546 560.827Z" stroke="url(#paint1_linear)" stroke-opacity="0.5" stroke-width="2" stroke-miterlimit="10"/>
<path d="M588.369 608.319L588.362 608.321L588.355 608.324C582.663 610.553 577.249 609.003 571.999 606.295C567.84 604.127 563.916 600.928 559.924 597.322C558.502 596.037 557.064 594.694 555.606 593.331C553.012 590.907 550.353 588.422 547.601 586.099C543.627 582.618 539.495 580.182 535.436 578.515L535.424 578.51L535.412 578.505C530.48 576.63 525.545 576.418 520.538 576.761C518.038 576.932 515.501 577.244 512.936 577.561L512.792 577.579C510.266 577.891 507.71 578.207 505.085 578.41C487.174 579.722 474.657 566.135 470.763 547.312C469.583 540.606 468.672 533.963 469.037 527.721L469.037 527.721L469.038 527.708C469.433 519.083 470.463 508.691 473.212 499.664C475.97 490.605 480.384 483.164 487.368 480.065C488.625 479.539 490.341 479.641 492.49 480.244C494.618 480.841 496.979 481.872 499.425 482.976C499.683 483.093 499.943 483.21 500.203 483.328C502.374 484.312 504.592 485.316 506.659 486.025C508.949 486.81 511.238 487.301 513.193 486.882L513.193 486.882L513.204 486.88C517.178 485.982 521.024 484.959 524.759 483.966C526.74 483.439 528.69 482.921 530.611 482.434C536.182 481.021 541.57 479.856 547.012 479.433C556.05 478.784 564.306 474.637 572.316 470.485C572.617 470.329 572.917 470.173 573.217 470.018C580.981 465.989 588.536 462.069 596.639 461.016L596.645 461.016C598.187 460.807 599.917 461.226 601.839 462.112C603.755 462.996 605.761 464.297 607.832 465.731C608.448 466.158 609.073 466.598 609.7 467.041C611.154 468.066 612.626 469.104 614.064 470.021C616.124 471.333 618.216 472.465 620.251 473.013C621.655 473.416 623.144 473.583 624.624 473.129L624.661 473.118L624.696 473.104C636.445 468.503 648.613 472.13 658.619 480.08C661.567 482.49 664.292 485.384 666.472 490.053L666.772 490.695L666.839 490.689C669.491 497.103 669.726 504.887 668.399 511.882C667.053 518.979 664.142 525.04 660.774 527.979L660.764 527.988L660.754 527.996C657.677 530.827 654.255 532.149 650.612 533.235C649.855 533.46 649.083 533.677 648.302 533.896C645.368 534.718 642.295 535.579 639.355 537.113L639.344 537.118L639.334 537.124C637.621 538.071 635.649 539.315 633.946 540.809C626.001 547.678 620.58 558.477 615.748 568.102C615.223 569.148 614.705 570.181 614.191 571.192L614.187 571.199C613.132 573.316 612.056 575.643 610.931 578.077C608.742 582.812 606.366 587.951 603.595 592.731C599.403 599.964 594.49 606.025 588.369 608.319Z" stroke="url(#paint2_linear)" stroke-opacity="0.5" stroke-width="2" stroke-miterlimit="10"/>
<path d="M437.588 522.112C437.191 530.765 438.099 539.793 440.011 548.72C445.04 573.547 461.279 593.953 486.558 590.904C488.359 590.69 490.128 590.461 491.868 590.236C503.437 588.743 513.756 587.411 523.852 591.46C528.869 593.488 533.736 596.546 538.755 601.107M437.588 522.112L438.587 522.158M437.588 522.112L438.587 522.158C438.587 522.158 438.587 522.158 438.587 522.158M437.588 522.112C438.629 499.715 441.669 464.451 461.326 455.887C465.666 453.985 472.673 457.703 479.604 461.379C485.849 464.692 492.031 467.972 496.144 467.078C501.64 465.844 506.884 464.378 512.009 462.945C522.127 460.116 531.779 457.417 541.984 456.895C553.999 456.365 564.81 449.641 575.587 442.939C584.943 437.12 594.274 431.317 604.343 429.598L538.755 601.107M438.587 522.158C438.195 530.712 439.092 539.653 440.988 548.511L440.991 548.522L440.991 548.522C443.478 560.797 448.723 571.907 456.397 579.557C464.045 587.182 474.127 591.396 486.438 589.911L486.44 589.911C488.222 589.699 489.98 589.471 491.718 589.246C503.262 587.751 513.868 586.378 524.224 590.532L524.227 590.533C529.361 592.609 534.323 595.73 539.413 600.354M438.587 522.158C439.107 510.965 440.125 496.642 443.443 484.067C446.775 471.436 452.345 460.891 461.726 456.804L461.728 456.803C463.425 456.059 465.774 456.31 468.7 457.321C471.589 458.319 474.804 459.97 478.107 461.718C478.45 461.899 478.794 462.082 479.138 462.264C482.08 463.825 485.063 465.408 487.823 466.542C490.869 467.793 493.865 468.597 496.356 468.056L496.363 468.054C501.884 466.815 507.173 465.336 512.311 463.899C514.802 463.203 517.257 462.516 519.687 461.872C527.159 459.889 534.451 458.282 542.032 457.894C553.551 457.385 563.934 451.334 573.982 445.113C574.681 444.68 575.378 444.247 576.074 443.814C585.475 437.969 594.641 432.271 604.505 430.585C606.348 430.295 608.441 430.939 610.793 432.315C613.135 433.685 615.593 435.695 618.123 437.921C619.019 438.709 619.927 439.527 620.839 440.349C622.473 441.821 624.121 443.305 625.729 444.645C628.241 446.738 630.777 448.584 633.235 449.615L633.278 449.633L633.322 449.647L633.361 449.659C634.249 449.938 635.225 450.245 636.169 450.391C637.124 450.539 638.157 450.542 639.125 450.114C654.259 444.177 669.601 449.235 682.403 459.697C686.164 462.771 689.984 466.782 692.588 473.098C692.622 473.238 692.672 473.354 692.713 473.439C692.767 473.547 692.83 473.646 692.864 473.7L692.87 473.709C692.88 473.725 692.888 473.737 692.894 473.748L692.897 473.772L692.945 473.898C696.29 482.581 696.551 493.063 694.839 502.454C693.121 511.876 689.459 519.985 685.17 524.028L685.164 524.035C681.064 527.97 676.493 529.723 671.682 531.147C670.76 531.42 669.825 531.682 668.881 531.946C664.945 533.047 660.858 534.191 656.983 536.365L656.961 536.378L656.938 536.392L656.899 536.416C654.548 537.903 652.102 539.45 649.954 541.493C644.132 546.609 639.547 553.38 635.588 560.524C632.895 565.383 630.463 570.472 628.13 575.355C627.037 577.64 625.967 579.88 624.901 582.03L624.901 582.03C623.539 584.78 622.138 587.858 620.66 591.105C617.85 597.28 614.761 604.066 611.13 610.373C605.594 619.991 598.999 628.099 590.675 630.876C583.26 633.296 575.693 630.489 569.014 626.398C563.842 623.187 559.032 618.865 554.202 614.228C553.038 613.111 551.872 611.974 550.7 610.831C547.036 607.259 543.312 603.63 539.413 600.354M539.413 600.354C539.408 600.35 539.403 600.346 539.398 600.341L538.755 601.107M539.413 600.354C539.418 600.358 539.423 600.363 539.428 600.367L538.755 601.107" stroke="url(#paint3_linear)" stroke-opacity="0.5" stroke-width="2" stroke-miterlimit="10"/>
<path d="M593.196 653.163L593.2 653.162C603.74 650.029 612.013 639.812 618.855 627.716C623.388 619.703 627.199 611.05 630.612 603.302C632.351 599.355 633.986 595.643 635.56 592.37C636.697 589.971 637.845 587.478 639.018 584.932C641.92 578.633 644.973 572.005 648.382 565.646C653.173 556.709 658.718 548.199 665.659 541.705C668.26 539.104 671.159 537.001 674.315 535.14C679.24 532.142 684.472 530.661 689.538 529.226C690.51 528.951 691.476 528.678 692.433 528.395C698.42 526.63 704.153 524.505 709.289 519.582L709.295 519.577C714.621 514.545 719.099 504.458 721.154 492.721C723.204 481.018 722.806 467.886 718.592 456.877L718.544 456.753L718.541 456.714C718.529 456.692 718.511 456.661 718.473 456.587C718.381 456.411 718.26 456.152 718.201 455.803C714.918 447.793 710.247 442.862 705.666 439.118L705.659 439.113L705.652 439.107C690.313 426.116 671.53 419.637 652.733 426.967L652.721 426.972L652.708 426.976C650.349 427.824 648.183 427.079 645.804 426.054L645.777 426.043L645.751 426.03C642.873 424.586 639.876 422.048 636.886 419.171C635.029 417.385 633.127 415.419 631.234 413.463C630.084 412.274 628.937 411.089 627.806 409.95C624.78 406.902 621.834 404.148 619.038 402.282C616.221 400.401 613.743 399.548 611.595 399.978L611.592 399.978C599.775 402.303 588.925 409.843 577.849 417.539C576.822 418.253 575.794 418.967 574.763 419.679C562.713 427.997 550.274 435.939 536.275 436.179C526.416 436.42 517.156 438.476 507.813 441.026C504.981 441.799 502.134 442.62 499.259 443.449C492.689 445.343 485.975 447.279 478.965 448.779M593.196 653.163L478.753 447.802M593.196 653.163C583.569 656.067 574.098 651.96 566.005 646.489M593.196 653.163L593.485 654.121M478.965 448.779C478.964 448.78 478.963 448.78 478.962 448.78L478.753 447.802M478.965 448.779C478.966 448.779 478.967 448.779 478.967 448.779L478.753 447.802M478.965 448.779C475.954 449.439 472.264 448.332 468.46 446.612C464.966 445.031 461.168 442.831 457.409 440.653C457.025 440.43 456.642 440.208 456.259 439.987C452.097 437.58 448.022 435.281 444.366 433.844C440.664 432.389 437.66 431.932 435.498 432.845M478.753 447.802C473.669 448.918 465.825 444.373 457.904 439.784C449.22 434.752 440.442 429.667 435.105 431.926C410.601 442.49 408.104 488.276 406.59 516.047L406.586 516.11C405.915 527.071 407.301 538.331 409.439 549.515M435.498 432.845C435.499 432.845 435.5 432.845 435.501 432.844L435.105 431.926L435.495 432.847C435.496 432.846 435.497 432.846 435.498 432.845ZM435.498 432.845C423.713 437.928 417.057 451.586 413.19 467.803C409.342 483.945 408.344 502.244 407.586 516.139L407.585 516.165L407.584 516.171C406.921 527.011 408.29 538.177 410.421 549.324M410.421 549.324C410.42 549.323 410.42 549.321 410.42 549.32L409.439 549.515M410.421 549.324C413.463 564.587 419.891 578.616 429.447 588.29C438.975 597.937 451.633 603.281 467.298 601.21L467.299 601.209C468.491 601.053 469.671 600.896 470.841 600.74C486.025 598.713 499.452 596.921 512.466 602.099L512.468 602.1C518.671 604.582 524.461 608.387 530.643 613.902C535.792 618.301 540.604 623.166 545.325 627.938C546.355 628.979 547.38 630.015 548.403 631.041C554.14 636.793 559.829 642.236 566.005 646.489M410.421 549.324C410.421 549.325 410.421 549.326 410.421 549.328L409.439 549.515M409.439 549.515C415.576 580.31 435.429 606.432 467.429 602.201C468.602 602.047 469.763 601.893 470.912 601.74C486.167 599.706 499.336 597.951 512.097 603.028L566.005 646.489M565.442 647.315C573.596 652.828 583.404 657.161 593.485 654.121M565.442 647.315L566.009 646.491C566.008 646.49 566.006 646.49 566.005 646.489M565.442 647.315L566.002 646.486C566.003 646.487 566.004 646.488 566.005 646.489M565.442 647.315L566.005 646.489M593.485 654.121C611.701 648.705 622.977 623.113 631.562 603.63C633.293 599.7 634.915 596.018 636.463 592.801L593.485 654.121Z" stroke="url(#paint4_linear)" stroke-opacity="0.5" stroke-width="2" stroke-miterlimit="10"/>
<path d="M645.996 602.978L645.994 602.983C644.273 606.685 642.48 610.878 640.569 615.345C636.526 624.799 631.959 635.479 626.449 645.321C618.332 659.821 608.372 672.098 595.488 675.728C584.111 678.818 572.755 673.645 562.982 666.574C555.805 661.277 549.244 654.776 542.673 647.969C541.443 646.695 540.212 645.409 538.977 644.119C533.633 638.536 528.208 632.87 522.412 627.663C515.367 621.209 508.497 616.755 501.501 613.848L501.491 613.844C485.362 607.348 468.883 609.642 449.626 612.322C449.305 612.367 448.984 612.412 448.662 612.457L448.661 612.457C429.641 615.116 414.467 608.635 403.124 596.991C391.751 585.316 384.209 568.42 380.625 550.292C378.017 536.92 376.419 523.491 377.108 510.361L377.108 510.355C377.128 509.938 377.147 509.517 377.166 509.092C377.914 492.796 378.903 471.253 383.178 452.093C387.581 432.366 395.382 415.569 409.574 409.361C412.208 408.278 415.872 408.949 420.345 410.847C424.769 412.724 429.702 415.673 434.722 418.738C435.148 418.997 435.574 419.258 436.001 419.519C440.574 422.316 445.183 425.134 449.408 427.162C453.974 429.353 458.354 430.756 461.878 429.978L461.882 429.977C469.961 428.153 477.688 425.855 485.249 423.607C489.072 422.47 492.851 421.346 496.613 420.302C507.856 417.182 519.036 414.745 531.056 414.664L531.063 414.664C547.369 414.449 561.788 404.638 575.812 394.256C577.092 393.308 578.37 392.356 579.645 391.404C592.453 381.851 605.074 372.438 618.922 369.346L618.929 369.344C621.399 368.773 624.271 369.83 627.545 372.198C630.788 374.545 634.213 378.022 637.715 381.876C639.181 383.488 640.671 385.179 642.162 386.871C644.19 389.174 646.22 391.477 648.191 393.587C651.619 397.255 655.023 400.507 658.248 402.429C661.09 404.265 663.739 404.937 666.338 404.079L666.363 404.07L666.389 404.061C688.585 395.379 711.078 403.498 728.934 418.775C734.386 423.457 739.919 429.327 743.881 439.056C743.909 439.18 743.947 439.286 743.974 439.356C744.018 439.47 744.071 439.588 744.109 439.673C744.153 439.77 744.181 439.834 744.202 439.887C744.204 439.893 744.206 439.898 744.207 439.902L744.216 439.985L744.264 440.11C749.331 453.313 749.806 469.097 747.39 483.151C744.968 497.24 739.68 509.372 733.436 515.381C727.147 521.433 720.192 523.997 713.007 526.104C711.876 526.436 710.736 526.757 709.591 527.08C703.507 528.793 697.277 530.547 691.436 534.182C687.778 536.36 684.439 539.016 681.393 541.888L681.39 541.89C673.062 549.795 666.555 560.12 660.967 570.915C657.337 577.928 654.066 585.199 650.938 592.154C649.261 595.883 647.625 599.52 645.996 602.978Z" stroke="url(#paint5_linear)" stroke-opacity="0.5" stroke-width="2" stroke-miterlimit="10"/>
<path d="M757.858 511.41L757.863 511.404C765.144 504.407 771.241 490.233 774.029 473.793C776.811 457.389 776.26 438.949 770.461 423.537L770.415 423.414L770.402 423.285C770.395 423.211 770.378 423.161 770.296 422.98L770.288 422.96C770.216 422.801 770.103 422.549 770.047 422.216C765.408 410.797 759.026 404.002 752.716 398.39C732.071 380.607 706.4 371.047 680.806 381.076C677.881 382.279 674.609 381.04 671.579 379.031C671.578 379.03 671.578 379.03 671.577 379.03L672.13 378.196C666.57 374.56 660.344 367.051 654.052 359.461C644.389 347.806 634.569 335.962 626.763 337.668L757.858 511.41ZM757.858 511.41C750.655 518.437 742.605 521.426 734.252 523.905C732.952 524.291 731.642 524.665 730.325 525.04C723.227 527.065 715.948 529.142 709.09 533.42C704.954 535.901 700.91 539.137 697.407 542.568C687.832 551.862 680.294 563.87 673.838 576.431C669.255 585.349 665.193 594.597 661.337 603.377C659.766 606.954 658.229 610.453 656.705 613.82C654.797 617.983 652.798 622.719 650.662 627.782C645.996 638.835 640.675 651.443 634.214 663.034C624.786 679.948 613.138 694.286 598.02 698.27C584.428 701.839 571.143 695.111 559.947 686.648C551.793 680.44 544.422 672.821 537.073 664.888C535.818 663.533 534.563 662.169 533.305 660.801C527.215 654.179 521.051 647.478 514.427 641.393C506.522 634.004 498.57 628.898 490.52 625.591M757.858 511.41L626.984 338.643C618.306 340.698 610.019 345.064 601.864 350.511C595.331 354.875 588.929 359.899 582.495 364.948C580.888 366.209 579.279 367.471 577.666 368.725C561.609 381.208 545.084 392.9 526.32 392.847L526.317 392.847C512.135 392.768 498.981 395.655 485.832 399.347C481.626 400.528 477.41 401.795 473.159 403.072C464.168 405.773 455.022 408.521 445.489 410.601C443.447 411.053 441.165 410.834 438.762 410.192C436.353 409.548 433.758 408.46 431.06 407.105C426.189 404.658 420.868 401.281 415.572 397.919C415.01 397.563 414.449 397.207 413.889 396.852C408.011 393.129 402.224 389.548 397.042 387.279C391.802 384.984 387.488 384.173 384.394 385.543L384.387 385.546C376.092 389.143 369.702 395.927 364.756 404.768C359.808 413.614 356.337 424.467 353.866 436.095C349.253 457.797 348.156 482.014 347.314 500.583C347.253 501.92 347.194 503.228 347.135 504.503C346.421 519.92 348.272 535.86 351.082 551.243C355.208 572.231 363.864 591.99 377.057 605.697C390.219 619.372 407.918 627.054 430.309 623.929C452.971 620.639 471.987 617.931 490.52 625.591M490.52 625.591C490.52 625.591 490.519 625.591 490.519 625.591L490.139 626.516L490.521 625.592C490.521 625.592 490.52 625.591 490.52 625.591Z" stroke="url(#paint6_linear)" stroke-opacity="0.5" stroke-width="2" stroke-miterlimit="10"/>
<path d="M600.278 720.586L600.268 720.589C584.957 724.584 569.52 716.568 556.914 706.726C547.764 699.475 539.518 690.738 531.266 681.721C530.268 680.631 529.27 679.537 528.271 678.441C521.018 670.487 513.677 662.436 505.678 655.188C496.679 646.906 487.902 641.121 478.792 637.411C458.126 628.697 436.85 631.633 411.18 635.225L411.171 635.226C385.438 639.064 365.159 630.251 350.116 614.551C335.039 598.816 325.202 576.134 320.535 552.283L320.535 552.279C316.973 534.449 314.895 516.257 315.882 498.536L315.882 498.533C316.018 495.942 316.151 493.229 316.288 490.414C317.295 469.807 318.569 443.742 323.39 420.186C326.13 406.803 330.004 394.287 335.592 384.075C341.177 373.868 348.442 366.019 357.944 361.859L357.948 361.857C359.65 361.103 361.721 360.966 364.151 361.381C366.582 361.796 369.306 362.753 372.254 364.11C378.157 366.825 384.788 371.058 391.525 375.44C392.058 375.786 392.591 376.134 393.126 376.482C399.309 380.51 405.531 384.562 411.212 387.488C414.302 389.078 417.266 390.355 420.009 391.115C422.744 391.872 425.328 392.135 427.623 391.625C438.63 389.22 449.145 386.004 459.477 382.845C464.303 381.369 469.088 379.905 473.865 378.542C488.915 374.249 503.982 370.916 520.328 371.156L520.333 371.156C541.533 371.348 560.095 357.789 578.158 343.239C580.012 341.746 581.86 340.243 583.706 338.74C590.904 332.885 598.073 327.052 605.399 321.977C614.595 315.606 623.962 310.485 633.804 308.063C636.962 307.308 640.627 308.887 644.787 312.304C648.905 315.687 653.252 320.66 657.696 326.147C659.504 328.378 661.334 330.703 663.166 333.03C665.802 336.38 668.444 339.736 671.027 342.825C675.406 348.06 679.748 352.692 683.876 355.479C687.279 358.017 690.767 359.175 694.152 357.958L694.164 357.953L694.177 357.948C723.431 346.533 752.569 357.767 775.73 377.838C782.891 384.147 790.417 392.117 795.46 405.074L795.495 405.164L795.547 405.246C795.63 405.378 795.686 405.521 795.778 405.777L795.787 405.802C795.862 406.012 795.967 406.305 796.142 406.604C802.765 424.194 803.448 445.243 800.336 463.962C797.213 482.748 790.308 498.964 781.989 506.951L781.983 506.956L781.978 506.961C773.749 515.102 764.542 518.524 755.021 521.341C753.541 521.779 752.05 522.203 750.553 522.629C742.464 524.929 734.197 527.28 726.433 532.189C721.616 535.236 717.094 538.769 713.125 542.767C702.3 553.454 693.799 567.204 686.512 581.557C681.507 591.415 677.049 601.611 672.806 611.316C670.877 615.728 668.992 620.039 667.121 624.17C664.875 629.088 662.53 634.718 660.02 640.742C654.812 653.242 648.897 667.44 641.7 680.493C631.029 699.843 617.755 716.235 600.278 720.586Z" stroke="url(#paint7_linear)" stroke-opacity="0.5" stroke-width="2" stroke-miterlimit="10"/>
<path d="M553.849 726.548L553.854 726.552C567.874 738.01 585.203 747.112 602.777 742.88M553.849 726.548L603.015 743.852M553.849 726.548C543.717 718.382 534.609 708.652 525.525 698.611C524.247 697.197 522.969 695.778 521.689 694.356C513.889 685.692 506.004 676.934 497.446 668.948L553.849 726.548ZM602.777 742.88C602.778 742.88 602.779 742.88 602.78 742.879L603.015 743.852M602.777 742.88C602.777 742.88 602.777 742.88 602.777 742.88L603.015 743.852M602.777 742.88C622.482 738.049 637.447 719.59 649.426 697.829C657.671 682.853 664.402 666.514 670.277 652.253C672.934 645.806 675.415 639.784 677.781 634.505M603.015 743.852C637.058 735.506 656.814 687.558 671.233 652.563C673.882 646.133 676.351 640.141 678.695 634.912M677.781 634.505L678.695 634.912M677.781 634.505C677.782 634.504 677.782 634.503 677.782 634.502L678.695 634.912M677.781 634.505L678.695 634.912M696.462 331.928L696.452 331.921C691.896 328.671 687.083 323.32 682.217 317.278C679.379 313.753 676.479 309.936 673.584 306.125C671.525 303.414 669.468 300.707 667.438 298.11C662.516 291.816 657.706 286.114 653.17 282.244C648.581 278.33 644.558 276.536 641.126 277.432L641.125 277.432C630.187 280.278 619.775 286.198 609.556 293.523C601.548 299.264 593.707 305.83 585.84 312.418C583.66 314.243 581.479 316.069 579.292 317.88C559.223 334.498 538.616 349.861 515.092 349.389L515.091 349.389C496.579 348.989 479.526 352.711 462.57 357.544C457.011 359.129 451.45 360.837 445.85 362.558C434.416 366.071 422.817 369.634 410.733 372.298M696.462 331.928L410.517 371.321M696.462 331.928C700.278 334.586 704.129 336.334 707.818 334.787L696.462 331.928ZM410.733 372.298C410.733 372.298 410.732 372.298 410.732 372.298L410.517 371.321M410.733 372.298C410.734 372.297 410.734 372.297 410.735 372.297L410.517 371.321M410.733 372.298C408.186 372.866 405.306 372.559 402.243 371.685C399.172 370.81 395.846 369.344 392.373 367.516C385.964 364.144 378.932 359.472 371.936 354.823C371.357 354.438 370.779 354.054 370.202 353.671C362.607 348.631 355.118 343.749 348.45 340.592C345.118 339.015 342.034 337.89 339.278 337.385C336.522 336.879 334.162 337.005 332.219 337.848M410.517 371.321C401.578 373.317 387.072 363.679 372.479 353.983C356.736 343.523 340.891 332.995 331.821 336.931M332.219 337.848C332.22 337.848 332.22 337.848 332.22 337.848L331.821 336.931M332.219 337.848L331.821 336.931M332.219 337.848L331.821 336.931M743.511 530.725C743.51 530.726 743.508 530.727 743.507 530.728L744.046 531.57L743.511 530.725ZM805.856 502.529C805.855 502.53 805.854 502.531 805.852 502.533L806.554 503.245L805.858 502.528C805.857 502.528 805.857 502.528 805.856 502.529ZM821.787 389.583C821.806 389.616 821.826 389.649 821.846 389.682L822.692 389.147L821.754 389.495C821.765 389.524 821.776 389.554 821.787 389.583ZM285.381 492.479L284.382 492.428L285.381 492.48C285.381 492.479 285.381 492.479 285.381 492.479ZM798.989 357.257L799.65 356.506L798.98 357.248C798.982 357.25 798.984 357.252 798.986 357.254C798.987 357.255 798.988 357.256 798.989 357.257Z" stroke="url(#paint8_linear)" stroke-opacity="0.5" stroke-width="2" stroke-miterlimit="10"/>
<path d="M550.81 746.622L550.812 746.624C566.242 759.463 585.726 769.858 605.024 765.199L605.03 765.198C627.098 760 643.752 739.475 657.009 715.307C666.138 698.664 673.556 680.497 680.007 664.699C682.919 657.566 685.634 650.917 688.22 645.108L688.221 645.107C690.642 639.681 693.08 633.99 695.581 628.151C700.632 616.356 705.942 603.96 711.899 591.932C720.815 573.931 731.238 556.629 744.57 543.156L744.574 543.152C749.687 538.033 755.126 533.652 760.863 529.755L760.873 529.749L760.883 529.742C770.541 523.52 780.87 520.583 791.026 517.694C792.791 517.193 794.55 516.692 796.3 516.176C808.162 512.679 819.694 508.453 830.003 498.329C840.271 488.246 848.799 467.999 852.663 444.61C856.515 421.286 855.691 395.056 847.483 373.064C847.296 372.733 847.183 372.363 847.107 372.114L847.094 372.071C846.989 371.728 846.93 371.562 846.866 371.459L846.814 371.378L846.779 371.289C840.377 354.912 831.111 344.833 822.273 336.925C793.791 311.819 757.785 297.736 721.716 311.859C717.798 313.416 713.47 311.76 709.285 308.575C704.307 304.86 699.048 298.812 693.725 291.991C690.649 288.049 687.51 283.791 684.375 279.539C682.093 276.444 679.813 273.351 677.561 270.386C672.179 263.299 666.916 256.875 661.948 252.508C656.925 248.091 652.499 246.039 648.709 247.03C636.609 250.246 625.119 256.92 613.862 265.168C605.054 271.621 596.437 278.999 587.798 286.396C585.387 288.46 582.974 290.526 580.555 292.573C558.48 311.258 535.839 328.484 509.885 327.873L509.882 327.873C489.079 327.325 470.11 331.492 451.284 336.925C445.167 338.69 439.052 340.593 432.892 342.511C420.144 346.479 407.202 350.508 393.642 353.497C393.642 353.497 393.642 353.497 393.642 353.497L393.426 352.521C383.551 354.731 367.456 343.894 351.243 332.978C333.696 321.165 316.012 309.258 305.925 313.696L550.81 746.622ZM550.81 746.622C539.683 737.414 529.702 726.567 519.785 715.499C518.693 714.28 517.601 713.058 516.509 711.836C507.702 701.977 498.852 692.071 489.249 683.195C478.265 672.828 467.578 665.712 456.608 661.174C431.458 650.635 405.384 653.542 373.964 658.221C341.359 663.003 315.971 651.853 297.263 632.125C278.519 612.359 266.457 583.948 260.695 554.251C256.428 531.93 253.895 509.218 254.931 486.926L550.81 746.622Z" stroke="url(#paint9_linear)" stroke-opacity="0.5" stroke-width="2" stroke-miterlimit="10"/>
<path d="M547.771 766.695L547.776 766.699C564.626 781.157 585.998 792.636 607.559 787.742C631.865 782.189 650.202 759.538 664.794 732.89C674.733 714.74 682.832 694.945 689.882 677.715C693.178 669.659 696.244 662.164 699.162 655.661C701.746 649.793 704.35 643.634 707.023 637.309C712.536 624.267 718.346 610.521 724.902 597.181C734.647 577.357 746.097 558.305 760.821 543.55C766.376 537.888 772.276 532.94 778.8 528.948C789.389 522.082 800.73 518.83 811.903 515.626C813.812 515.078 815.715 514.532 817.609 513.97C830.639 510.103 843.331 505.443 854.681 494.327C865.988 483.253 875.324 460.964 879.553 435.225C883.774 409.534 882.869 380.626 873.913 356.414C873.733 356.008 873.627 355.661 873.535 355.364L873.532 355.352C873.438 355.045 873.359 354.792 873.224 354.491L873.214 354.469L873.205 354.446C866.124 336.362 856.004 325.357 846.341 316.774C815.347 289.383 775.876 273.624 736.147 289.13L736.134 289.135L736.121 289.14C731.703 290.728 727.111 288.844 722.381 285.212C716.984 281.094 711.26 274.363 705.455 266.756C702.11 262.371 698.695 257.637 695.282 252.906C692.782 249.44 690.283 245.976 687.813 242.652C681.937 234.744 676.185 227.57 670.763 222.699C665.279 217.773 660.441 215.483 656.304 216.626L656.299 216.628C643.034 220.212 630.467 227.657 618.171 236.849C608.592 244.01 599.227 252.19 589.842 260.388C587.174 262.719 584.505 265.051 581.828 267.361C557.749 288.145 533.072 307.233 504.675 306.357C481.705 305.648 460.757 310.267 439.994 316.274C433.423 318.175 426.86 320.22 420.255 322.277C406.035 326.706 391.622 331.195 376.527 334.446M547.771 766.695L376.312 333.47M547.771 766.695C535.651 756.446 524.859 744.478 514.101 732.29C513.183 731.25 512.265 730.209 511.347 729.167C501.518 718.011 491.623 706.782 480.727 696.714L547.771 766.695ZM376.527 334.446C376.525 334.446 376.524 334.447 376.522 334.447L376.312 333.47M376.527 334.446C376.528 334.446 376.529 334.446 376.53 334.445L376.312 333.47M376.527 334.446C373.478 335.129 370.008 334.734 366.291 333.631C362.566 332.524 358.517 330.682 354.277 328.383C346.455 324.142 337.858 318.28 329.285 312.433C328.57 311.945 327.855 311.457 327.14 310.971C317.831 304.631 308.63 298.472 300.435 294.469C296.34 292.468 292.539 291.028 289.137 290.365C285.734 289.702 282.8 289.829 280.377 290.877M376.312 333.47C365.471 335.9 347.722 323.795 329.839 311.6C310.532 298.434 291.07 285.162 279.98 289.96M280.377 290.877C280.378 290.877 280.379 290.877 280.38 290.876L279.98 289.96M280.377 290.877C280.377 290.877 280.377 290.877 280.377 290.878L279.98 289.96M280.377 290.877L279.98 289.96M445.115 672.722C445.113 672.721 445.111 672.721 445.109 672.72L444.721 673.641L445.119 672.724C445.117 672.723 445.116 672.723 445.115 672.722Z" stroke="url(#paint10_linear)" stroke-opacity="0.5" stroke-width="2" stroke-miterlimit="10"/>
<path d="M544.731 786.769L544.729 786.766C531.616 775.477 519.951 762.392 508.349 749.055C507.163 747.691 505.976 746.324 504.789 744.956C494.387 732.967 483.922 720.907 472.442 709.97L472.438 709.967C459.497 697.771 446.904 689.326 434.077 683.961C404.161 671.366 373.825 674.702 336.408 680.237L336.405 680.238C297.082 686.201 266.584 672.718 244.174 648.929C221.728 625.103 207.373 590.905 200.529 555.488L200.528 555.485C195.332 528.957 192.345 501.731 193.653 474.597C193.921 469.261 194.164 463.544 194.421 457.53C195.704 427.467 197.302 389.998 203.69 355.862C207.523 335.386 213.069 316.172 221.269 300.518C229.468 284.869 240.283 272.843 254.629 266.615C257.295 265.48 260.517 265.361 264.244 266.108C267.972 266.856 272.131 268.456 276.608 270.667C285.567 275.093 295.622 281.878 305.787 288.86C306.602 289.419 307.417 289.98 308.232 290.541C317.561 296.958 326.906 303.386 335.405 308.056C340.03 310.598 344.44 312.639 348.493 313.878C352.538 315.115 356.305 315.576 359.606 314.87L359.613 314.868C375.733 311.293 391.136 306.448 406.336 301.666C413.835 299.307 421.285 296.964 428.747 294.796C451.382 288.221 474.253 283.218 499.391 284.089L499.392 284.089C530.091 285.116 556.808 264.232 582.897 241.411C585.869 238.811 588.834 236.185 591.797 233.56C601.89 224.62 611.967 215.694 622.269 207.862C635.587 197.737 649.199 189.507 663.561 185.497C668.057 184.257 673.3 186.824 679.221 192.276C685.077 197.669 691.286 205.596 697.625 214.329C700.303 218.018 703.012 221.862 705.722 225.708C709.391 230.915 713.062 236.124 716.66 240.956C722.924 249.365 729.096 256.809 734.916 261.391C739.942 265.497 745.085 267.617 749.758 265.721C793.146 248.837 836.05 266.023 869.575 295.942C880.074 305.436 891.024 317.341 898.78 337.058C898.896 337.918 899.255 338.718 899.547 339.366L899.561 339.398C909.37 365.803 910.352 397.361 905.765 425.401C901.17 453.49 891.026 477.824 878.803 489.876L878.802 489.877C866.424 502.108 852.636 507.194 838.471 511.397C836.382 512.017 834.282 512.618 832.177 513.221C820.048 516.693 807.728 520.22 796.148 527.714C788.922 532.284 782.575 537.781 776.556 543.732L776.55 543.737L776.545 543.743C760.581 560.015 748.172 580.874 737.597 602.525C730.623 616.804 724.421 631.486 718.525 645.443C715.49 652.628 712.536 659.62 709.6 666.266C706.557 673.135 703.352 681.023 699.908 689.501C692.196 708.484 683.283 730.425 672.297 750.502C656.395 779.562 636.366 804.282 609.828 810.313L609.827 810.313C586.547 815.631 562.996 802.613 544.731 786.769ZM544.076 787.524C562.394 803.414 586.277 816.718 610.05 811.288L544.076 787.524Z" stroke="url(#paint11_linear)" stroke-opacity="0.5" stroke-width="2" stroke-miterlimit="10"/>
<path d="M541.686 806.837L541.685 806.837C527.578 794.506 515.046 780.366 502.549 766.009C501.601 764.919 500.653 763.829 499.704 762.737C488.166 749.464 476.558 736.11 463.718 724.016L463.714 724.013C449.667 710.913 436.275 702.049 422.383 696.036L422.377 696.033C390.328 682.384 357.711 685.695 317.301 691.785L317.295 691.786C274.627 698.463 241.611 683.842 217.382 658.022C193.116 632.162 177.643 595.036 170.258 556.759L170.257 556.756C164.557 527.738 161.093 498.284 162.676 468.85L161.677 468.797L162.676 468.85C163.021 462.407 163.328 455.441 163.653 448.082C165.069 415.961 166.816 376.366 173.489 340.183C177.588 317.953 183.537 297.076 192.377 280.056C201.214 263.039 212.905 249.944 228.462 243.153C231.334 241.904 234.817 241.774 238.85 242.59C242.882 243.407 247.387 245.155 252.239 247.571C261.948 252.403 272.866 259.814 283.903 267.437C284.774 268.038 285.645 268.641 286.517 269.244C296.662 276.26 306.825 283.289 316.061 288.396C321.079 291.171 325.859 293.399 330.246 294.753C334.624 296.103 338.69 296.607 342.24 295.843L342.242 295.843C359.896 292.006 376.768 286.7 393.437 281.459C401.385 278.96 409.287 276.475 417.205 274.171C441.777 267.021 466.627 261.567 493.932 262.599C510.523 263.245 525.997 257.87 540.817 249.241C555.627 240.618 569.841 228.71 583.915 216.225C587.141 213.364 590.359 210.473 593.575 207.583C604.418 197.84 615.246 188.11 626.324 179.57C640.679 168.501 655.368 159.5 670.893 155.121C673.281 154.458 675.87 154.82 678.686 156.115C681.512 157.416 684.509 159.632 687.646 162.578C693.923 168.471 700.593 177.12 707.408 186.645C710.292 190.676 713.21 194.875 716.129 199.076C720.071 204.75 724.017 210.429 727.887 215.703C734.632 224.895 741.27 233.037 747.515 238.082L747.523 238.088L747.53 238.095C753.057 242.38 758.221 244.755 763.393 242.822L763.405 242.818C810.453 224.549 856.571 243.434 892.864 275.615C904.461 286.006 916.293 299.089 924.703 320.266C924.819 321.126 925.179 321.926 925.47 322.575L925.483 322.603C936.035 351.341 937.086 385.491 932.128 415.815C927.161 446.188 916.203 472.507 902.949 485.677C889.658 498.885 874.711 504.404 859.347 508.981C857.103 509.65 854.846 510.299 852.584 510.95C839.407 514.741 826.031 518.589 813.521 526.73L813.511 526.736C805.851 531.849 799.032 537.641 792.551 544.155L792.548 544.157C775.191 561.711 761.754 584.322 750.349 607.799C742.772 623.395 736.067 639.433 729.707 654.643C726.502 662.308 723.385 669.763 720.288 676.846C717.027 684.242 713.59 692.753 709.891 701.91C701.603 722.434 692.003 746.207 680.13 767.954C662.952 799.421 641.232 826.209 612.329 832.606L612.323 832.607C586.814 838.403 561.357 824.061 541.686 806.837Z" stroke="url(#paint12_linear)" stroke-opacity="0.5" stroke-width="2" stroke-miterlimit="10"/>
<path d="M538.646 826.91L538.642 826.907C523.542 813.534 510.137 798.279 496.706 782.841C496.158 782.211 495.609 781.58 495.06 780.949C482.189 766.148 469.23 751.247 454.722 737.841C439.788 723.554 425.066 714.067 410.381 707.632L410.374 707.629C376.19 692.925 341.314 696.464 297.919 703.108L297.916 703.108C252.002 710.239 216.458 694.417 190.377 666.565C164.26 638.675 147.613 598.692 139.687 557.556C133.759 526.278 130.068 494.565 131.674 462.846L131.674 462.845C132.006 456.12 132.3 448.86 132.611 441.195C134.019 406.432 135.765 363.332 142.917 323.971C147.281 299.958 153.647 277.4 163.142 259.02C172.634 240.644 185.217 226.512 201.987 219.218C205.102 217.881 208.874 217.764 213.232 218.671C217.589 219.579 222.454 221.495 227.689 224.131C238.163 229.406 249.939 237.466 261.834 245.747C262.75 246.385 263.667 247.025 264.585 247.664C275.542 255.302 286.513 262.95 296.476 268.504C301.878 271.515 307.019 273.932 311.734 275.401C316.44 276.867 320.8 277.413 324.6 276.592L324.602 276.592C343.597 272.448 361.711 266.701 379.613 261.021C388.149 258.312 396.636 255.619 405.148 253.123C431.559 245.377 458.326 239.477 487.925 240.657C505.728 241.372 522.333 235.582 538.236 226.266C554.13 216.955 569.379 204.088 584.475 190.581C588.024 187.407 591.562 184.198 595.1 180.99C606.638 170.527 618.161 160.078 629.94 150.887C645.323 138.883 661.058 129.096 677.681 124.292C680.281 123.547 683.086 123.931 686.124 125.331C689.172 126.735 692.398 129.139 695.768 132.336C702.511 138.732 709.66 148.131 716.954 158.479C720.067 162.896 723.215 167.498 726.362 172.1C730.552 178.225 734.742 184.351 738.852 190.042C746.059 200.022 753.146 208.848 759.812 214.296C765.682 219.094 771.332 221.388 776.737 219.445L776.749 219.44L776.762 219.435C826.968 199.837 876.773 220.124 915.598 254.835L915.6 254.836C928.322 266.149 941.028 280.186 949.869 303.159L949.878 303.185L949.89 303.21C950.042 303.549 950.203 303.954 950.375 304.386L950.379 304.396C950.541 304.802 950.712 305.233 950.88 305.61C962.285 336.542 963.414 373.343 958.09 406.017C952.758 438.739 940.991 467.103 926.822 481.252L926.821 481.252C912.502 495.575 896.398 501.527 879.866 506.443C877.439 507.165 875 507.865 872.556 508.566C858.392 512.631 844.034 516.751 830.623 525.518L830.617 525.523C822.48 530.937 814.956 537.308 808.021 544.377L808.017 544.382C789.547 563.44 775.216 587.849 763.014 613.146C755.069 629.616 748.001 646.523 741.282 662.592C737.691 671.182 734.2 679.533 730.728 687.449L730.727 687.451C727.34 695.21 723.764 704.111 719.917 713.687C710.969 735.962 700.556 761.886 687.633 785.566C669.146 819.444 645.735 848.301 614.601 855.177C587.333 861.154 559.74 845.756 538.646 826.91Z" stroke="url(#paint13_linear)" stroke-opacity="0.5" stroke-width="2" stroke-miterlimit="10"/>
<path d="M535.599 846.977L535.598 846.976C519.507 832.564 505.292 816.187 491.113 799.592C490.178 798.498 489.244 797.404 488.31 796.309C475.075 780.803 461.766 765.21 446.935 751.041L446.931 751.038C430.896 735.853 415.345 725.685 399.599 718.847L399.596 718.845C363.03 703.116 325.625 706.654 279.488 713.827L279.487 713.827C230.085 721.562 191.965 704.667 164.041 674.85C136.08 644.993 118.321 602.144 109.841 558.023C103.461 524.767 99.5171 490.544 101.148 456.541C101.511 449.19 101.829 441.233 102.165 432.819C103.649 395.706 105.488 349.703 113.063 307.656C117.708 281.872 124.499 257.641 134.653 237.904C144.805 218.171 158.281 203 176.266 195.206L176.267 195.205C179.622 193.75 183.681 193.622 188.362 194.604C193.041 195.586 198.265 197.66 203.881 200.51C215.118 206.214 227.752 214.932 240.506 223.887C241.512 224.593 242.518 225.301 243.525 226.008C255.252 234.253 266.986 242.502 277.638 248.499C283.425 251.756 288.929 254.371 293.971 255.961C299.005 257.549 303.66 258.142 307.71 257.264L307.712 257.264C327.927 252.84 347.233 246.721 366.325 240.67C375.598 237.731 384.82 234.808 394.071 232.103C422.423 223.813 451.177 217.523 482.944 218.865L482.945 218.865C501.897 219.655 519.572 213.455 536.503 203.457C553.425 193.465 569.663 179.642 585.749 165.118C589.547 161.689 593.336 158.221 597.124 154.754C609.405 143.514 621.677 132.282 634.23 122.389C650.647 109.451 667.458 98.876 685.24 93.6385C687.987 92.8495 690.959 93.2756 694.182 94.7942C697.415 96.3182 700.841 98.9163 704.421 102.364C711.584 109.26 719.194 119.381 726.964 130.52C730.282 135.278 733.637 140.234 736.993 145.19C741.458 151.784 745.923 158.38 750.305 164.515C757.991 175.274 765.542 184.796 772.632 190.707L772.639 190.713C778.748 195.706 784.978 198.504 790.645 196.252C844.511 175.274 897.751 196.988 939.108 234.228L939.115 234.233C952.661 246.219 966.219 261.182 975.738 285.855C975.918 286.357 976.092 286.794 976.26 287.215L976.26 287.216C976.43 287.643 976.594 288.055 976.763 288.526L976.765 288.532C988.911 321.679 990.182 361.142 984.553 396.17C978.917 431.235 966.405 461.634 951.198 476.772L951.197 476.773C935.839 492.086 918.569 498.41 900.866 503.666C898.389 504.401 895.903 505.115 893.411 505.832C878.128 510.223 862.65 514.671 848.222 524.258L848.215 524.263C839.385 530.249 831.386 536.918 823.993 544.547C804.144 565.011 788.786 591.17 775.75 618.262C767.153 636.129 759.541 654.46 752.32 671.849C748.6 680.806 744.984 689.514 741.391 697.779L741.39 697.78C737.83 706.006 734.071 715.437 730.027 725.583C720.478 749.54 709.339 777.487 695.464 802.986C675.702 839.304 650.6 870.229 617.099 877.47L617.097 877.471C587.6 883.925 558.1 867.203 535.599 846.977Z" stroke="url(#paint14_linear)" stroke-opacity="0.5" stroke-width="2" stroke-miterlimit="10"/>
<path d="M751.856 708.632L751.855 708.635C748.12 717.283 744.173 727.196 739.923 737.866C729.743 763.43 717.83 793.342 702.97 820.629C681.897 859.326 655.104 892.319 619.373 900.041C588.119 906.675 556.736 888.875 532.553 867.045C515.469 851.592 500.381 834.099 485.309 816.514L484.163 815.176C469.487 798.052 454.778 780.888 438.26 765.588C421.375 749.478 404.996 738.633 388.192 731.392L388.19 731.391C349.519 714.862 309.836 718.375 260.708 726.102C207.935 734.303 167.287 716.206 137.544 684.355C107.763 652.465 88.8923 606.751 79.8715 559.77L79.8713 559.769C73.0136 524.282 68.843 487.804 70.748 451.495L70.7481 451.495C71.1835 443.086 71.5581 433.933 71.955 424.231C73.5627 384.943 75.5382 336.664 83.4164 292.46C88.3268 264.907 95.5207 239.005 106.313 217.898C117.104 196.794 131.454 180.555 150.648 172.196L150.652 172.194C154.214 170.625 158.531 170.487 163.51 171.538C168.487 172.589 174.046 174.813 180.026 177.869C191.989 183.982 205.454 193.329 219.048 202.927C220.105 203.673 221.163 204.421 222.22 205.169C234.738 214.018 247.265 222.874 258.635 229.311C264.803 232.804 270.668 235.606 276.037 237.311C281.398 239.014 286.347 239.65 290.646 238.715L290.648 238.714C312.206 233.984 332.783 227.42 353.138 220.927C363.01 217.778 372.83 214.645 382.685 211.747C412.906 202.857 443.578 196.122 477.513 197.625C497.685 198.547 516.476 191.949 534.471 181.257C552.456 170.571 569.703 155.76 586.792 140.185C590.84 136.495 594.878 132.764 598.915 129.033C611.949 116.99 624.977 104.951 638.309 94.3483C655.764 80.4664 673.654 69.1193 692.601 63.5122L692.602 63.512C695.528 62.6438 698.685 63.0897 702.1 64.7093C705.526 66.3343 709.15 69.1143 712.935 72.806C720.507 80.1905 728.548 91.0436 736.763 102.993C740.218 108.018 743.709 113.247 747.204 118.481C751.987 125.642 756.776 132.814 761.485 139.486C769.639 151.04 777.67 161.271 785.246 167.641C791.72 173.394 798.182 176.139 804.334 173.855L804.341 173.853L804.348 173.85C861.873 151.488 918.326 174.903 962.449 214.403C976.854 227.321 991.267 243.215 1001.46 269.599L1001.47 269.624L1001.49 269.648C1001.79 270.332 1002.13 271.269 1002.49 272.26L1002.49 272.264C1015.36 307.619 1016.71 349.735 1010.72 387.111C1004.71 424.525 991.394 456.968 975.148 473.097L975.144 473.1C958.759 489.529 940.392 496.279 921.553 501.87C918.881 502.663 916.198 503.433 913.509 504.205C897.275 508.863 880.823 513.585 865.407 523.793C856.059 529.84 847.605 537.067 839.768 545.242C818.653 566.974 802.33 594.877 788.465 623.793C779.474 642.544 771.49 661.782 763.906 680.057C759.804 689.94 755.82 699.542 751.856 708.632Z" stroke="url(#paint15_linear)" stroke-opacity="0.5" stroke-width="2" stroke-miterlimit="10"/>
<path d="M49.7757 560.262L48.7941 560.452L49.7757 560.262C42.4409 522.545 38.0176 483.558 39.9214 444.714C40.3931 435.649 40.7953 425.747 41.2224 415.234C42.9097 373.694 44.9852 322.599 53.2708 275.763C58.461 246.425 66.0782 218.825 77.5278 196.342C88.9759 173.862 104.217 156.569 124.626 147.708L124.629 147.706C128.402 146.053 132.984 145.93 138.271 147.074C143.557 148.218 149.465 150.611 155.822 153.888C168.539 160.444 182.869 170.441 197.338 180.696C198.404 181.451 199.471 182.209 200.538 182.966C213.92 192.462 227.318 201.969 239.467 208.871C246.03 212.599 252.264 215.588 257.967 217.408C263.661 219.225 268.908 219.903 273.456 218.911L273.458 218.911C296.237 213.901 318.007 206.964 339.553 200.099C350.161 196.72 360.715 193.357 371.308 190.25C403.469 180.818 436.128 173.692 472.232 175.357C493.616 176.348 513.537 169.318 532.613 157.92C551.679 146.527 569.96 130.732 588.069 114.12C592.385 110.161 596.691 106.156 600.995 102.152C614.777 89.3316 628.551 76.5191 642.64 65.2341C661.123 50.4295 680.06 38.3288 700.11 32.3582L700.111 32.3578C703.883 31.2301 708.035 32.1948 712.585 34.9736C717.137 37.7534 721.964 42.2769 726.991 48.0202C736.943 59.3903 747.491 75.3152 758.074 91.2934L758.395 91.7782C769.059 107.879 779.755 123.99 789.826 135.295C794.86 140.946 799.79 145.458 804.538 148.164C809.295 150.876 813.988 151.836 818.424 150.143L818.427 150.142C879.389 126.673 939.28 151.517 985.935 193.547L985.939 193.55C1001.17 207.14 1016.46 224.212 1027.34 252.305L1027.34 252.306C1041.95 289.885 1043.74 335.178 1037.47 375.495C1031.2 415.849 1016.88 450.988 999.496 468.37C982.069 485.792 962.542 492.975 942.536 498.937C939.72 499.776 936.892 500.592 934.059 501.409C916.803 506.385 899.334 511.422 882.984 522.281C851.425 543.178 828.399 576.058 809.729 611.809C796.557 637.034 785.513 663.774 775.175 688.803C770.869 699.23 766.685 709.361 762.521 718.961L762.52 718.963C758.575 728.117 754.4 738.63 749.9 749.959C739.119 777.103 726.478 808.931 710.698 837.965C688.321 879.138 659.843 914.262 621.869 922.335C588.385 929.447 555.095 910.321 529.506 887.112L528.834 887.853L529.505 887.112C511.443 870.744 495.49 852.198 479.578 833.496C478.853 832.643 478.127 831.79 477.402 830.938C462.228 813.094 447.006 795.193 429.993 779.088L429.993 779.087C400.329 751.03 372.079 737.538 341.822 732.575C311.609 727.62 279.461 731.182 242.054 737.098C185.922 745.889 142.747 726.591 111.15 692.679C79.5145 658.726 59.4629 610.091 49.7757 560.262Z" stroke="url(#paint16_linear)" stroke-opacity="0.5" stroke-width="2" stroke-miterlimit="10"/>
<defs>
<linearGradient id="paint0_linear" x1="571.921" y1="519.577" x2="576.709" y2="567.182" gradientUnits="userSpaceOnUse">
<stop stop-color="#A100EF"/>
<stop offset="1" stop-color="#13ECAB"/>
</linearGradient>
<linearGradient id="paint1_linear" x1="567.786" y1="492.773" x2="577.43" y2="588.66" gradientUnits="userSpaceOnUse">
<stop stop-color="#A100EF"/>
<stop offset="1" stop-color="#13ECAB"/>
</linearGradient>
<linearGradient id="paint2_linear" x1="563.611" y1="463.329" x2="578.453" y2="610.906" gradientUnits="userSpaceOnUse">
<stop stop-color="#A100EF"/>
<stop offset="1" stop-color="#13ECAB"/>
</linearGradient>
<linearGradient id="paint3_linear" x1="559.594" y1="434.088" x2="579.64" y2="633.411" gradientUnits="userSpaceOnUse">
<stop stop-color="#A100EF"/>
<stop offset="1" stop-color="#13ECAB"/>
</linearGradient>
<linearGradient id="paint4_linear" x1="555.163" y1="404.621" x2="580.431" y2="655.871" gradientUnits="userSpaceOnUse">
<stop stop-color="#A100EF"/>
<stop offset="1" stop-color="#13ECAB"/>
</linearGradient>
<linearGradient id="paint5_linear" x1="551.03" y1="375.12" x2="581.539" y2="678.491" gradientUnits="userSpaceOnUse">
<stop stop-color="#A100EF"/>
<stop offset="1" stop-color="#13ECAB"/>
</linearGradient>
<linearGradient id="paint6_linear" x1="547.334" y1="345.609" x2="583.089" y2="701.143" gradientUnits="userSpaceOnUse">
<stop stop-color="#A100EF"/>
<stop offset="1" stop-color="#13ECAB"/>
</linearGradient>
<linearGradient id="paint7_linear" x1="542.747" y1="316.154" x2="583.728" y2="723.646" gradientUnits="userSpaceOnUse">
<stop stop-color="#A100EF"/>
<stop offset="1" stop-color="#13ECAB"/>
</linearGradient>
<linearGradient id="paint8_linear" x1="538.55" y1="286.659" x2="584.75" y2="746.05" gradientUnits="userSpaceOnUse">
<stop stop-color="#A100EF"/>
<stop offset="1" stop-color="#13ECAB"/>
</linearGradient>
<linearGradient id="paint9_linear" x1="534.44" y1="257.426" x2="585.839" y2="768.512" gradientUnits="userSpaceOnUse">
<stop stop-color="#A100EF"/>
<stop offset="1" stop-color="#13ECAB"/>
</linearGradient>
<linearGradient id="paint10_linear" x1="530.49" y1="228.159" x2="587.109" y2="791.153" gradientUnits="userSpaceOnUse">
<stop stop-color="#A100EF"/>
<stop offset="1" stop-color="#13ECAB"/>
</linearGradient>
<linearGradient id="paint11_linear" x1="526.241" y1="198.181" x2="588.159" y2="813.868" gradientUnits="userSpaceOnUse">
<stop stop-color="#A100EF"/>
<stop offset="1" stop-color="#13ECAB"/>
</linearGradient>
<linearGradient id="paint12_linear" x1="521.916" y1="168.969" x2="589.033" y2="836.353" gradientUnits="userSpaceOnUse">
<stop stop-color="#A100EF"/>
<stop offset="1" stop-color="#13ECAB"/>
</linearGradient>
<linearGradient id="paint13_linear" x1="517.364" y1="139.256" x2="589.753" y2="859.056" gradientUnits="userSpaceOnUse">
<stop stop-color="#A100EF"/>
<stop offset="1" stop-color="#13ECAB"/>
</linearGradient>
<linearGradient id="paint14_linear" x1="513.323" y1="109.762" x2="590.936" y2="881.51" gradientUnits="userSpaceOnUse">
<stop stop-color="#A100EF"/>
<stop offset="1" stop-color="#13ECAB"/>
</linearGradient>
<linearGradient id="paint15_linear" x1="509.079" y1="80.7772" x2="591.888" y2="904.192" gradientUnits="userSpaceOnUse">
<stop stop-color="#A100EF"/>
<stop offset="1" stop-color="#13ECAB"/>
</linearGradient>
<linearGradient id="paint16_linear" x1="504.944" y1="50.7812" x2="593.028" y2="926.651" gradientUnits="userSpaceOnUse">
<stop stop-color="#A100EF"/>
<stop offset="1" stop-color="#13ECAB"/>
</linearGradient>
</defs>
</svg>
