<svg width="399" height="978" viewBox="0 0 399 978" fill="none" xmlns="http://www.w3.org/2000/svg">
<path d="M-261.412 522.112C-261.809 530.765 -260.901 539.793 -258.989 548.72C-253.96 573.547 -237.721 593.953 -212.442 590.904C-210.641 590.689 -208.872 590.461 -207.132 590.236C-195.563 588.743 -185.244 587.411 -175.148 591.46C-170.131 593.488 -165.264 596.546 -160.245 601.107M-261.412 522.112L-260.413 522.158M-261.412 522.112L-260.413 522.158C-260.413 522.158 -260.413 522.158 -260.413 522.158M-261.412 522.112C-260.371 499.715 -257.331 464.451 -237.674 455.887C-233.334 453.985 -226.327 457.703 -219.396 461.379C-213.151 464.692 -206.969 467.972 -202.856 467.078C-197.36 465.844 -192.116 464.378 -186.991 462.945C-176.873 460.116 -167.221 457.417 -157.016 456.895C-145.001 456.365 -134.19 449.641 -123.413 442.939C-114.057 437.12 -104.726 431.317 -94.657 429.598L-160.245 601.107M-260.413 522.158C-260.805 530.712 -259.908 539.653 -258.012 548.511L-258.009 548.522L-258.009 548.522C-255.522 560.797 -250.277 571.907 -242.603 579.557C-234.955 587.182 -224.873 591.396 -212.562 589.911L-212.56 589.911C-210.778 589.699 -209.02 589.471 -207.282 589.246C-195.738 587.751 -185.132 586.378 -174.776 590.532L-174.773 590.533C-169.639 592.609 -164.677 595.73 -159.587 600.354M-260.413 522.158C-259.893 510.965 -258.875 496.642 -255.557 484.067C-252.225 471.436 -246.655 460.89 -237.274 456.804L-237.272 456.803C-235.575 456.059 -233.226 456.31 -230.3 457.321C-227.411 458.319 -224.196 459.97 -220.893 461.718C-220.55 461.899 -220.206 462.082 -219.862 462.264C-216.92 463.825 -213.937 465.408 -211.177 466.542C-208.131 467.793 -205.135 468.597 -202.644 468.056L-202.637 468.054C-197.116 466.815 -191.827 465.336 -186.689 463.899C-184.198 463.203 -181.743 462.516 -179.313 461.872C-171.841 459.889 -164.549 458.282 -156.968 457.894C-145.449 457.385 -135.066 451.334 -125.018 445.113C-124.319 444.68 -123.622 444.246 -122.926 443.814C-113.525 437.969 -104.359 432.271 -94.4948 430.585C-92.6523 430.295 -90.5594 430.939 -88.2071 432.315C-85.8654 433.685 -83.4071 435.695 -80.8766 437.921C-79.9814 438.709 -79.0731 439.527 -78.1607 440.349C-76.5267 441.821 -74.8794 443.305 -73.2708 444.645C-70.7586 446.738 -68.2227 448.584 -65.7647 449.615L-65.722 449.633L-65.6779 449.647L-65.6391 449.659C-64.7508 449.938 -63.7748 450.245 -62.8312 450.391C-61.8755 450.539 -60.8434 450.542 -59.8753 450.114C-44.7407 444.177 -29.3988 449.235 -16.5974 459.697C-12.8356 462.771 -9.01611 466.782 -6.41156 473.098C-6.37806 473.238 -6.32846 473.354 -6.28657 473.438C-6.23267 473.547 -6.16993 473.646 -6.13606 473.7L-6.13008 473.709C-6.12027 473.725 -6.11239 473.737 -6.1057 473.748L-6.10328 473.772L-6.05493 473.898C-2.71043 482.581 -2.44933 493.063 -4.16117 502.454C-5.87867 511.876 -9.54102 519.985 -13.8297 524.028L-13.8362 524.035C-17.9356 527.97 -22.5074 529.723 -27.3178 531.147C-28.2395 531.42 -29.1749 531.682 -30.1189 531.946C-34.0553 533.047 -38.1416 534.191 -42.0165 536.365L-42.0395 536.378L-42.0617 536.392L-42.1006 536.416C-44.4519 537.903 -46.8978 539.45 -49.0462 541.493C-54.8678 546.609 -59.4526 553.38 -63.4118 560.524C-66.1047 565.383 -68.5368 570.472 -70.8704 575.354C-71.9626 577.64 -73.0332 579.88 -74.0989 582.03L-74.099 582.03C-75.4612 584.78 -76.862 587.858 -78.3398 591.105C-81.1501 597.28 -84.2387 604.066 -87.8695 610.373C-93.4061 619.991 -100.001 628.099 -108.325 630.876C-115.74 633.296 -123.307 630.489 -129.986 626.398C-135.158 623.187 -139.968 618.865 -144.798 614.228C-145.962 613.111 -147.128 611.974 -148.3 610.831C-151.964 607.259 -155.688 603.63 -159.587 600.354M-159.587 600.354C-159.592 600.35 -159.597 600.346 -159.602 600.341L-160.245 601.107M-159.587 600.354C-159.582 600.358 -159.577 600.363 -159.572 600.367L-160.245 601.107" stroke="url(#paint0_linear)" stroke-opacity="0.55" stroke-width="2" stroke-miterlimit="10"/>
<path d="M-105.804 653.164L-105.8 653.162C-95.2596 650.029 -86.9866 639.812 -80.1445 627.716C-75.6122 619.703 -71.8008 611.05 -68.3876 603.302C-66.6492 599.355 -65.0141 595.643 -63.4396 592.37C-62.3028 589.971 -61.1547 587.478 -59.9819 584.932C-57.0803 578.633 -54.0272 572.005 -50.6179 565.646C-45.8271 556.709 -40.282 548.199 -33.3408 541.705C-30.7401 539.104 -27.841 537.001 -24.6855 535.14C-19.7599 532.142 -14.5284 530.661 -9.4616 529.226C-8.48957 528.951 -7.52362 528.678 -6.56707 528.396C-0.579782 526.63 5.15324 524.505 10.2894 519.582L10.2947 519.577C15.6208 514.545 20.0986 504.458 22.1542 492.721C24.204 481.018 23.806 467.886 19.5922 456.877L19.5445 456.753L19.5406 456.714C19.5287 456.692 19.5113 456.661 19.4731 456.587C19.3812 456.411 19.2596 456.152 19.2011 455.803C15.918 447.794 11.2465 442.862 6.66593 439.118L6.65911 439.113L6.65244 439.107C-8.68718 426.116 -27.4703 419.637 -46.2668 426.967L-46.2793 426.972L-46.2918 426.976C-48.6508 427.824 -50.8168 427.079 -53.1962 426.054L-53.2228 426.043L-53.2488 426.03C-56.1271 424.586 -59.1242 422.048 -62.114 419.171C-63.9707 417.385 -65.8729 415.419 -67.7657 413.463C-68.9161 412.274 -70.0631 411.089 -71.1941 409.95C-74.2201 406.902 -77.1664 404.148 -79.9616 402.282C-82.7794 400.401 -85.2573 399.548 -87.4048 399.978L-87.408 399.978C-99.2247 402.303 -110.075 409.843 -121.151 417.539C-122.178 418.253 -123.206 418.967 -124.237 419.679C-136.287 427.997 -148.726 435.939 -162.725 436.179C-172.584 436.421 -181.844 438.476 -191.187 441.026C-194.019 441.799 -196.866 442.62 -199.741 443.449C-206.311 445.343 -213.025 447.279 -220.035 448.779M-105.804 653.164L-220.247 447.802M-105.804 653.164C-115.431 656.067 -124.902 651.96 -132.995 646.489M-105.804 653.164L-105.515 654.121M-220.035 448.779C-220.036 448.78 -220.037 448.78 -220.038 448.78L-220.247 447.802M-220.035 448.779C-220.034 448.779 -220.033 448.779 -220.033 448.779L-220.247 447.802M-220.035 448.779C-223.046 449.439 -226.736 448.332 -230.54 446.612C-234.034 445.031 -237.832 442.831 -241.591 440.653C-241.975 440.43 -242.358 440.208 -242.741 439.987C-246.903 437.58 -250.978 435.281 -254.634 433.844C-258.336 432.389 -261.34 431.932 -263.502 432.846M-220.247 447.802C-225.331 448.918 -233.175 444.373 -241.096 439.784C-249.78 434.752 -258.558 429.667 -263.895 431.926C-288.399 442.49 -290.896 488.276 -292.41 516.047L-292.414 516.11C-293.085 527.071 -291.699 538.331 -289.561 549.516M-263.502 432.846C-263.501 432.845 -263.5 432.845 -263.499 432.844L-263.895 431.926L-263.505 432.847C-263.504 432.846 -263.503 432.846 -263.502 432.846ZM-263.502 432.846C-275.287 437.928 -281.943 451.586 -285.81 467.803C-289.658 483.945 -290.656 502.244 -291.414 516.139L-291.415 516.165L-291.416 516.172C-292.079 527.011 -290.71 538.177 -288.579 549.324M-288.579 549.324C-288.58 549.323 -288.58 549.321 -288.58 549.32L-289.561 549.516M-288.579 549.324C-285.537 564.587 -279.109 578.617 -269.553 588.29C-260.025 597.937 -247.367 603.281 -231.702 601.21L-231.701 601.209C-230.509 601.054 -229.329 600.896 -228.159 600.74C-212.975 598.713 -199.548 596.921 -186.534 602.099L-186.532 602.1C-180.329 604.582 -174.539 608.387 -168.357 613.902C-163.208 618.301 -158.396 623.166 -153.675 627.938C-152.645 628.979 -151.62 630.015 -150.597 631.041C-144.86 636.793 -139.171 642.236 -132.995 646.489M-288.579 549.324C-288.579 549.325 -288.579 549.326 -288.579 549.328L-289.561 549.516M-289.561 549.516C-283.424 580.31 -263.571 606.432 -231.571 602.201C-230.398 602.047 -229.237 601.893 -228.088 601.74C-212.833 599.706 -199.664 597.951 -186.903 603.029L-132.995 646.489M-133.558 647.315C-125.404 652.828 -115.596 657.161 -105.515 654.121M-133.558 647.315L-132.991 646.491C-132.992 646.49 -132.994 646.49 -132.995 646.489M-133.558 647.315L-132.998 646.486C-132.997 646.487 -132.996 646.488 -132.995 646.489M-133.558 647.315L-132.995 646.489M-105.515 654.121C-87.2985 648.705 -76.0227 623.113 -67.4385 603.63C-65.7069 599.7 -64.0849 596.018 -62.5375 592.801L-105.515 654.121Z" stroke="url(#paint1_linear)" stroke-opacity="0.55" stroke-width="2" stroke-miterlimit="10"/>
<path d="M-53.0036 602.978L-53.0058 602.983C-54.7262 606.685 -56.5196 610.878 -58.4301 615.345C-62.4733 624.799 -67.0408 635.479 -72.5508 645.321C-80.6676 659.821 -90.6272 672.098 -103.512 675.728C-114.888 678.818 -126.244 673.645 -136.017 666.574C-143.194 661.277 -149.756 654.776 -156.326 647.969C-157.556 646.695 -158.787 645.409 -160.022 644.119C-165.367 638.536 -170.792 632.87 -176.587 627.664C-183.633 621.209 -190.502 616.755 -197.499 613.848L-197.509 613.844C-213.638 607.348 -230.117 609.642 -249.373 612.322C-249.694 612.367 -250.016 612.412 -250.338 612.457L-250.339 612.457C-269.359 615.116 -284.532 608.635 -295.875 596.991C-307.248 585.316 -314.791 568.42 -318.375 550.293C-320.982 536.92 -322.58 523.491 -321.891 510.361L-321.891 510.355C-321.872 509.938 -321.853 509.517 -321.833 509.092C-321.085 492.796 -320.096 471.253 -315.821 452.093C-311.419 432.366 -303.617 415.569 -289.426 409.361C-286.792 408.278 -283.127 408.949 -278.654 410.847C-274.231 412.724 -269.298 415.673 -264.277 418.738C-263.852 418.998 -263.425 419.258 -262.999 419.519C-258.425 422.316 -253.817 425.134 -249.592 427.162C-245.025 429.353 -240.645 430.756 -237.122 429.978L-237.117 429.977C-229.038 428.153 -221.311 425.855 -213.75 423.607C-209.928 422.47 -206.148 421.346 -202.387 420.303C-191.143 417.182 -179.964 414.745 -167.943 414.664L-167.937 414.664C-151.63 414.449 -137.211 404.638 -123.188 394.256C-121.907 393.308 -120.63 392.356 -119.354 391.404C-106.546 381.851 -93.9253 372.438 -80.0777 369.346L-80.0704 369.344C-77.6003 368.773 -74.7286 369.83 -71.4547 372.198C-68.2112 374.545 -64.7869 378.022 -61.2842 381.876C-59.8187 383.488 -58.3286 385.179 -56.8377 386.871C-54.8093 389.174 -52.7795 391.477 -50.8082 393.587C-47.3801 397.255 -43.977 400.507 -40.7515 402.429C-37.9092 404.265 -35.2603 404.937 -32.6617 404.079L-32.6361 404.071L-32.6109 404.061C-10.4146 395.379 12.078 403.498 29.9344 418.775C35.3868 423.457 40.9194 429.327 44.8813 439.056C44.9094 439.18 44.9479 439.286 44.9747 439.356C45.0187 439.47 45.0717 439.588 45.1097 439.673C45.1533 439.77 45.1818 439.834 45.2022 439.887C45.2044 439.893 45.2063 439.898 45.2079 439.902L45.2163 439.985L45.2643 440.11C50.3316 453.313 50.8067 469.097 48.3906 483.151C45.9687 497.24 40.6809 509.373 34.437 515.381C28.148 521.433 21.193 523.997 14.0073 526.104C12.8763 526.436 11.7365 526.757 10.5916 527.08C4.50777 528.793 -1.72231 530.547 -7.56352 534.182C-11.2218 536.36 -14.5608 539.016 -17.6068 541.888L-17.6092 541.89C-25.9373 549.795 -32.4442 560.12 -38.0322 570.915C-41.6623 577.928 -44.9332 585.199 -48.0617 592.155C-49.7388 595.883 -51.375 599.52 -53.0036 602.978Z" stroke="url(#paint2_linear)" stroke-opacity="0.55" stroke-width="2" stroke-miterlimit="10"/>
<path d="M58.8576 511.41L58.8629 511.404C66.1443 504.407 72.241 490.233 75.0292 473.793C77.8112 457.389 77.2598 438.949 71.461 423.537L71.415 423.414L71.4019 423.285C71.3945 423.211 71.3776 423.161 71.2962 422.98L71.2875 422.96C71.2156 422.801 71.1026 422.549 71.0466 422.216C66.4083 410.797 60.0263 404.002 53.7163 398.39C33.0712 380.607 7.39988 371.047 -18.1944 381.076C-21.119 382.279 -24.3912 381.04 -27.4212 379.031C-27.4217 379.031 -27.4222 379.03 -27.4226 379.03L-26.87 378.196C-32.4305 374.56 -38.6562 367.051 -44.9482 359.461C-54.6113 347.806 -64.4309 335.962 -72.2374 337.668L58.8576 511.41ZM58.8576 511.41C51.6547 518.437 43.6053 521.426 35.2519 523.905C33.9518 524.291 32.6416 524.665 31.3251 525.04C24.2274 527.065 16.9481 529.142 10.0899 533.42C5.95393 535.901 1.91035 539.137 -1.59283 542.568C-11.1677 551.862 -18.7058 563.87 -25.1615 576.431C-29.7447 585.349 -33.8068 594.597 -37.6631 603.377C-39.2341 606.954 -40.771 610.453 -42.295 613.82C-44.2028 617.983 -46.2018 622.719 -48.3384 627.782C-53.0037 638.835 -58.3251 651.443 -64.786 663.034C-74.2137 679.948 -85.8622 694.286 -100.98 698.27C-114.572 701.839 -127.857 695.111 -139.053 686.648C-147.207 680.44 -154.578 672.821 -161.927 664.888C-163.182 663.533 -164.437 662.169 -165.695 660.801C-171.785 654.179 -177.949 647.478 -184.573 641.393C-192.478 634.004 -200.43 628.898 -208.48 625.591M58.8576 511.41L-72.0157 338.643C-80.6938 340.698 -88.9811 345.064 -97.1361 350.511C-103.669 354.875 -110.071 359.899 -116.505 364.948C-118.112 366.209 -119.721 367.471 -121.334 368.725C-137.391 381.208 -153.916 392.9 -172.68 392.847L-172.683 392.847C-186.865 392.768 -200.019 395.655 -213.168 399.347C-217.374 400.528 -221.59 401.795 -225.841 403.072C-234.832 405.773 -243.978 408.521 -253.511 410.601C-255.553 411.053 -257.835 410.834 -260.238 410.192C-262.647 409.548 -265.242 408.46 -267.94 407.105C-272.811 404.658 -278.132 401.281 -283.428 397.919C-283.99 397.563 -284.551 397.207 -285.111 396.852C-290.989 393.129 -296.776 389.548 -301.958 387.279C-307.198 384.984 -311.512 384.173 -314.606 385.543L-314.613 385.546C-322.908 389.143 -329.298 395.927 -334.244 404.768C-339.192 413.614 -342.663 424.467 -345.134 436.096C-349.747 457.797 -350.844 482.014 -351.686 500.583C-351.747 501.92 -351.806 503.228 -351.865 504.503C-352.579 519.921 -350.728 535.86 -347.918 551.243C-343.792 572.231 -335.136 591.99 -321.943 605.697C-308.781 619.372 -291.082 627.054 -268.691 623.929C-246.029 620.639 -227.013 617.931 -208.48 625.591M-208.48 625.591C-208.48 625.591 -208.481 625.591 -208.481 625.591L-208.861 626.516L-208.479 625.592C-208.479 625.592 -208.48 625.591 -208.48 625.591Z" stroke="url(#paint3_linear)" stroke-opacity="0.55" stroke-width="2" stroke-miterlimit="10"/>
<path d="M-98.7216 720.586L-98.7324 720.589C-114.043 724.584 -129.48 716.568 -142.086 706.726C-151.236 699.475 -159.482 690.738 -167.734 681.721C-168.732 680.631 -169.73 679.537 -170.729 678.441C-177.982 670.487 -185.323 662.436 -193.322 655.188C-202.321 646.906 -211.098 641.121 -220.208 637.411C-240.874 628.697 -262.15 631.633 -287.82 635.225L-287.829 635.226C-313.562 639.064 -333.841 630.251 -348.884 614.551C-363.961 598.816 -373.798 576.134 -378.465 552.283L-378.465 552.279C-382.027 534.449 -384.105 516.257 -383.118 498.536L-383.118 498.533C-382.982 495.942 -382.849 493.229 -382.712 490.414C-381.705 469.807 -380.431 443.742 -375.61 420.186C-372.87 406.803 -368.996 394.287 -363.408 384.075C-357.823 373.867 -350.558 366.019 -341.056 361.859L-341.052 361.857C-339.35 361.103 -337.279 360.966 -334.849 361.381C-332.418 361.796 -329.694 362.753 -326.746 364.11C-320.843 366.825 -314.212 371.058 -307.475 375.44C-306.942 375.786 -306.409 376.134 -305.874 376.482C-299.691 380.509 -293.469 384.562 -287.788 387.488C-284.698 389.078 -281.734 390.355 -278.991 391.115C-276.256 391.872 -273.672 392.135 -271.377 391.625C-260.37 389.22 -249.855 386.004 -239.523 382.845C-234.697 381.369 -229.912 379.905 -225.135 378.542C-210.085 374.249 -195.018 370.916 -178.672 371.156L-178.667 371.156C-157.467 371.348 -138.905 357.789 -120.842 343.239C-118.988 341.746 -117.14 340.243 -115.294 338.74C-108.096 332.885 -100.927 327.052 -93.6013 321.977C-84.4053 315.606 -75.0383 310.485 -65.1963 308.063C-62.0384 307.308 -58.3727 308.887 -54.2127 312.304C-50.0955 315.687 -45.7481 320.66 -41.3036 326.147C-39.4963 328.378 -37.6664 330.703 -35.8344 333.03C-33.1976 336.38 -30.5565 339.736 -27.9726 342.825C-23.594 348.06 -19.252 352.691 -15.1236 355.479C-11.7205 358.017 -8.23292 359.175 -4.8484 357.957L-4.83576 357.953L-4.82328 357.948C24.4313 346.533 53.5688 357.767 76.7302 377.838C83.8913 384.147 91.4172 392.117 96.4603 405.074L96.4954 405.164L96.547 405.246C96.6304 405.378 96.6856 405.521 96.7777 405.777L96.7868 405.802C96.8622 406.012 96.9673 406.305 97.1419 406.604C103.765 424.194 104.448 445.243 101.336 463.962C98.2132 482.748 91.308 498.964 82.9887 506.951L82.9833 506.956L82.978 506.961C74.7488 515.102 65.5425 518.524 56.0214 521.341C54.541 521.779 53.05 522.203 51.553 522.629C43.4645 524.929 35.1971 527.28 27.4332 532.189C22.6157 535.236 18.0941 538.769 14.1252 542.767C3.29986 553.454 -5.20097 567.204 -12.4884 581.557C-17.4934 591.415 -21.951 601.611 -26.1941 611.316C-28.123 615.728 -30.0075 620.039 -31.879 624.17C-34.1248 629.088 -36.4703 634.718 -38.9801 640.742C-44.1878 653.242 -50.1026 667.44 -57.3005 680.493C-67.9712 699.843 -81.2454 716.235 -98.7216 720.586Z" stroke="url(#paint4_linear)" stroke-opacity="0.55" stroke-width="2" stroke-miterlimit="10"/>
<path d="M-145.151 726.548L-145.146 726.552C-131.126 738.01 -113.797 747.112 -96.223 742.88M-145.151 726.548L-95.9853 743.852M-145.151 726.548C-155.283 718.382 -164.391 708.652 -173.475 698.611C-174.753 697.197 -176.031 695.778 -177.311 694.356C-185.111 685.692 -192.996 676.934 -201.554 668.948L-145.151 726.548ZM-96.223 742.88C-96.2218 742.88 -96.2207 742.88 -96.2195 742.879L-95.9853 743.852M-96.223 742.88C-96.2231 742.88 -96.2233 742.88 -96.2234 742.88L-95.9853 743.852M-96.223 742.88C-76.5179 738.049 -61.5531 719.59 -49.5736 697.829C-41.3293 682.853 -34.5976 666.514 -28.7226 652.253C-26.0663 645.806 -23.5852 639.784 -21.2186 634.505M-95.9853 743.852C-61.9419 735.506 -42.1863 687.558 -27.7674 652.563C-25.1183 646.133 -22.6494 640.141 -20.3051 634.912M-21.2186 634.505L-20.3051 634.912M-21.2186 634.505C-21.2182 634.504 -21.2179 634.503 -21.2175 634.503L-20.3051 634.912M-21.2186 634.505L-20.3051 634.912M-2.53838 331.928L-2.54765 331.921C-7.10365 328.671 -11.9169 323.32 -16.7826 317.278C-19.6213 313.753 -22.5211 309.936 -25.4161 306.125C-27.4751 303.414 -29.5317 300.707 -31.5622 298.11C-36.4842 291.816 -41.2942 286.114 -45.8304 282.245C-50.4189 278.33 -54.4419 276.536 -57.8742 277.432L-57.8748 277.432C-68.8132 280.278 -79.2246 286.198 -89.4437 293.523C-97.4517 299.264 -105.293 305.83 -113.16 312.418C-115.34 314.243 -117.521 316.069 -119.708 317.88C-139.777 334.498 -160.384 349.861 -183.908 349.389L-183.909 349.389C-202.421 348.989 -219.474 352.711 -236.43 357.544C-241.989 359.129 -247.55 360.837 -253.15 362.558C-264.584 366.071 -276.183 369.634 -288.267 372.298M-2.53838 331.928L-288.483 371.321M-2.53838 331.928C1.27809 334.586 5.12881 336.334 8.81784 334.787L-2.53838 331.928ZM-288.267 372.298C-288.267 372.298 -288.268 372.298 -288.268 372.298L-288.483 371.321M-288.267 372.298C-288.266 372.297 -288.266 372.297 -288.265 372.297L-288.483 371.321M-288.267 372.298C-290.814 372.866 -293.694 372.559 -296.757 371.685C-299.828 370.81 -303.154 369.344 -306.627 367.516C-313.036 364.144 -320.068 359.472 -327.064 354.823C-327.643 354.438 -328.221 354.054 -328.798 353.671C-336.393 348.631 -343.882 343.749 -350.55 340.592C-353.882 339.015 -356.966 337.89 -359.722 337.385C-362.478 336.879 -364.838 337.005 -366.781 337.848M-288.483 371.321C-297.422 373.317 -311.928 363.679 -326.521 353.983C-342.264 343.523 -358.109 332.995 -367.179 336.931M-366.781 337.848C-366.78 337.848 -366.78 337.848 -366.78 337.848L-367.179 336.931M-366.781 337.848L-367.179 336.931M-366.781 337.848L-367.179 336.931M44.5111 530.725C44.5098 530.726 44.5084 530.727 44.5071 530.728L45.0456 531.57L44.5111 530.725ZM106.856 502.529C106.855 502.53 106.854 502.531 106.852 502.533L107.554 503.245L106.858 502.528C106.857 502.528 106.857 502.528 106.856 502.529ZM122.787 389.583C122.806 389.616 122.826 389.649 122.846 389.682L123.692 389.147L122.754 389.495C122.765 389.524 122.776 389.554 122.787 389.583ZM-413.619 492.479L-414.618 492.428L-413.619 492.48C-413.619 492.479 -413.619 492.479 -413.619 492.479ZM99.9893 357.257L100.65 356.506L99.9797 357.248C99.9819 357.25 99.9842 357.252 99.9864 357.254C99.9874 357.255 99.9883 357.256 99.9893 357.257Z" stroke="url(#paint5_linear)" stroke-opacity="0.55" stroke-width="2" stroke-miterlimit="10"/>
<path d="M-148.19 746.622L-148.188 746.624C-132.758 759.463 -113.274 769.858 -93.9757 765.199L-93.9703 765.198C-71.9019 760 -55.2476 739.475 -41.9906 715.307C-32.862 698.664 -25.4442 680.497 -18.9935 664.699C-16.0813 657.566 -13.3661 650.917 -10.7796 645.108L-10.7793 645.107C-8.35751 639.681 -5.91998 633.99 -3.41928 628.151C1.63239 616.356 6.94177 603.96 12.8991 591.932C21.8145 573.931 32.238 556.629 45.5702 543.156L45.5735 543.152C50.6866 538.033 56.1264 533.652 61.8632 529.755L61.8733 529.749L61.8835 529.742C71.5407 523.52 81.8698 520.583 92.0258 517.694C93.7906 517.193 95.5501 516.692 97.3 516.176C109.162 512.679 120.694 508.453 131.003 498.329C141.271 488.246 149.799 467.999 153.663 444.61C157.515 421.286 156.691 395.056 148.483 373.064C148.296 372.733 148.183 372.363 148.107 372.114L148.094 372.07C147.989 371.728 147.93 371.562 147.866 371.459L147.814 371.378L147.779 371.289C141.377 354.912 132.111 344.833 123.273 336.925C94.7914 311.819 58.7846 297.736 22.716 311.859C18.7976 313.416 14.4699 311.76 10.2846 308.575C5.30724 304.86 0.0477902 298.812 -5.27496 291.991C-8.35066 288.049 -11.49 283.791 -14.6252 279.539C-16.9073 276.444 -19.1873 273.351 -21.4388 270.386C-26.8207 263.299 -32.0845 256.875 -37.0521 252.508C-42.0755 248.091 -46.5011 246.039 -50.2905 247.03C-62.3915 250.246 -73.8806 256.92 -85.1382 265.168C-93.9458 271.621 -102.563 278.999 -111.202 286.396C-113.613 288.46 -116.026 290.526 -118.445 292.573C-140.52 311.258 -163.161 328.484 -189.115 327.873L-189.118 327.873C-209.921 327.325 -228.89 331.492 -247.716 336.925C-253.833 338.69 -259.948 340.593 -266.108 342.511C-278.856 346.479 -291.798 350.508 -305.358 353.497C-305.358 353.497 -305.358 353.497 -305.358 353.497L-305.574 352.521C-315.449 354.731 -331.544 343.894 -347.757 332.978C-365.304 321.165 -382.988 309.258 -393.075 313.696L-148.19 746.622ZM-148.19 746.622C-159.317 737.414 -169.298 726.567 -179.215 715.499C-180.307 714.28 -181.399 713.058 -182.491 711.836C-191.298 701.977 -200.148 692.071 -209.751 683.195C-220.735 672.828 -231.422 665.712 -242.392 661.174C-267.542 650.635 -293.616 653.542 -325.036 658.221C-357.641 663.003 -383.029 651.853 -401.737 632.125C-420.481 612.359 -432.543 583.948 -438.305 554.251C-442.572 531.93 -445.105 509.218 -444.069 486.926L-148.19 746.622Z" stroke="url(#paint6_linear)" stroke-opacity="0.55" stroke-width="2" stroke-miterlimit="10"/>
<path d="M-151.229 766.695L-151.224 766.699C-134.374 781.158 -113.002 792.636 -91.441 787.742C-67.1353 782.189 -48.7979 759.538 -34.2057 732.89C-24.2669 714.74 -16.1678 694.945 -9.11844 677.715C-5.82245 669.659 -2.75595 662.164 0.161761 655.661C2.74644 649.793 5.34973 643.634 8.02292 637.309C13.5356 624.267 19.3455 610.521 25.9022 597.181C35.6465 577.357 47.0968 558.305 61.8207 543.55C67.3755 537.888 73.276 532.94 79.7999 528.948C90.3891 522.082 101.73 518.83 112.903 515.626C114.812 515.078 116.715 514.533 118.609 513.97C131.639 510.103 144.331 505.443 155.681 494.327C166.988 483.253 176.324 460.964 180.553 435.225C184.774 409.534 183.869 380.626 174.913 356.414C174.733 356.008 174.627 355.661 174.535 355.364L174.532 355.352C174.438 355.045 174.359 354.792 174.224 354.491L174.214 354.469L174.205 354.446C167.124 336.362 157.004 325.357 147.341 316.774C116.347 289.383 76.8758 273.624 37.1466 289.13L37.1341 289.135L37.1214 289.14C32.7033 290.728 28.1106 288.844 23.381 285.212C17.9836 281.094 12.2604 274.363 6.4553 266.756C3.10968 262.371 -0.305407 257.637 -3.71793 252.906C-6.21831 249.44 -8.71733 245.976 -11.1866 242.652C-17.063 234.744 -22.8146 227.57 -28.2374 222.699C-33.7212 217.773 -38.5587 215.483 -42.6957 216.626L-42.7012 216.628C-55.9664 220.212 -68.5331 227.657 -80.8289 236.849C-90.4082 244.01 -99.7734 252.191 -109.158 260.388C-111.826 262.719 -114.495 265.051 -117.172 267.361C-141.251 288.145 -165.928 307.233 -194.325 306.357C-217.295 305.648 -238.243 310.267 -259.006 316.274C-265.577 318.175 -272.14 320.22 -278.745 322.277C-292.965 326.706 -307.378 331.195 -322.473 334.446M-151.229 766.695L-322.688 333.47M-151.229 766.695C-163.349 756.447 -174.141 744.478 -184.899 732.29C-185.817 731.25 -186.735 730.209 -187.653 729.167C-197.482 718.011 -207.377 706.782 -218.273 696.714L-151.229 766.695ZM-322.473 334.446C-322.475 334.446 -322.476 334.447 -322.478 334.447L-322.688 333.47M-322.473 334.446C-322.472 334.446 -322.471 334.446 -322.47 334.445L-322.688 333.47M-322.473 334.446C-325.522 335.129 -328.992 334.734 -332.709 333.631C-336.434 332.524 -340.483 330.682 -344.723 328.383C-352.545 324.142 -361.142 318.28 -369.715 312.433C-370.43 311.945 -371.145 311.457 -371.86 310.971C-381.169 304.631 -390.37 298.472 -398.565 294.469C-402.66 292.468 -406.461 291.028 -409.863 290.365C-413.266 289.702 -416.2 289.829 -418.623 290.877M-322.688 333.47C-333.529 335.9 -351.278 323.795 -369.161 311.6C-388.468 298.434 -407.93 285.162 -419.02 289.96M-418.623 290.877C-418.622 290.877 -418.621 290.877 -418.62 290.876L-419.02 289.96M-418.623 290.877C-418.623 290.877 -418.623 290.878 -418.623 290.878L-419.02 289.96M-418.623 290.877L-419.02 289.96M-253.885 672.722C-253.887 672.721 -253.889 672.721 -253.891 672.72L-254.279 673.641L-253.881 672.724C-253.883 672.723 -253.884 672.723 -253.885 672.722Z" stroke="url(#paint7_linear)" stroke-opacity="0.55" stroke-width="2" stroke-miterlimit="10"/>
<path d="M-154.269 786.769L-154.271 786.766C-167.384 775.477 -179.049 762.392 -190.651 749.055C-191.837 747.691 -193.024 746.324 -194.211 744.956C-204.613 732.967 -215.078 720.907 -226.558 709.97L-226.562 709.967C-239.503 697.771 -252.096 689.326 -264.923 683.961C-294.839 671.366 -325.175 674.702 -362.592 680.237L-362.595 680.238C-401.918 686.201 -432.416 672.718 -454.826 648.929C-477.272 625.103 -491.627 590.905 -498.471 555.488L-498.472 555.485C-503.668 528.957 -506.655 501.731 -505.347 474.597C-505.079 469.261 -504.836 463.544 -504.579 457.53C-503.296 427.467 -501.698 389.998 -495.31 355.862C-491.477 335.386 -485.931 316.172 -477.731 300.518C-469.532 284.869 -458.717 272.843 -444.371 266.615C-441.705 265.48 -438.483 265.361 -434.756 266.109C-431.028 266.856 -426.869 268.456 -422.392 270.667C-413.433 275.093 -403.378 281.878 -393.213 288.86C-392.398 289.42 -391.583 289.98 -390.768 290.541C-381.439 296.958 -372.094 303.386 -363.595 308.056C-358.97 310.598 -354.56 312.639 -350.507 313.878C-346.462 315.115 -342.695 315.576 -339.394 314.87L-339.387 314.868C-323.267 311.293 -307.864 306.448 -292.664 301.666C-285.165 299.307 -277.715 296.964 -270.253 294.796C-247.618 288.221 -224.747 283.218 -199.609 284.089L-199.608 284.089C-168.909 285.116 -142.192 264.232 -116.103 241.411C-113.131 238.811 -110.166 236.185 -107.203 233.56C-97.1095 224.62 -87.033 215.694 -76.7313 207.862C-63.4126 197.737 -49.8007 189.507 -35.4391 185.497C-30.9429 184.257 -25.7 186.824 -19.7794 192.276C-13.9227 197.669 -7.71431 205.596 -1.37489 214.329C1.30292 218.018 4.01186 221.862 6.72201 225.708C10.3907 230.915 14.0615 236.124 17.6603 240.956C23.9244 249.365 30.0961 256.809 35.9161 261.391C40.9425 265.497 46.0855 267.617 50.7576 265.721C94.1457 248.837 137.05 266.023 170.575 295.942C181.074 305.436 192.024 317.341 199.78 337.058C199.896 337.918 200.255 338.718 200.547 339.366L200.561 339.398C210.37 365.803 211.352 397.361 206.765 425.401C202.17 453.49 192.026 477.824 179.803 489.876L179.802 489.877C167.424 502.108 153.636 507.194 139.471 511.397C137.382 512.017 135.282 512.618 133.177 513.221C121.048 516.693 108.728 520.22 97.1478 527.714C89.9224 532.284 83.5748 537.781 77.5557 543.732L77.5503 543.737L77.5449 543.743C61.5808 560.015 49.1722 580.874 38.5974 602.525C31.6231 616.804 25.4206 631.486 19.5247 645.443C16.4896 652.628 13.5358 659.62 10.5996 666.266C7.55701 673.135 4.35239 681.023 0.908194 689.501C-6.80397 708.484 -15.7174 730.425 -26.7035 750.502C-42.6048 779.562 -62.6342 804.282 -89.1716 810.313L-89.1727 810.313C-112.453 815.631 -136.004 802.613 -154.269 786.769ZM-154.924 787.524C-136.606 803.414 -112.723 816.718 -88.95 811.288L-154.924 787.524Z" stroke="url(#paint8_linear)" stroke-opacity="0.55" stroke-width="2" stroke-miterlimit="10"/>
<path d="M-157.314 806.837L-157.315 806.837C-171.422 794.506 -183.954 780.366 -196.451 766.009C-197.399 764.919 -198.347 763.829 -199.296 762.737C-210.834 749.463 -222.442 736.11 -235.282 724.016L-235.286 724.013C-249.333 710.913 -262.725 702.049 -276.617 696.036L-276.623 696.033C-308.672 682.384 -341.289 685.695 -381.699 691.785L-381.705 691.786C-424.373 698.463 -457.389 683.842 -481.618 658.021C-505.884 632.162 -521.357 595.036 -528.742 556.759L-528.743 556.756C-534.443 527.738 -537.907 498.284 -536.324 468.85L-537.323 468.797L-536.324 468.85C-535.979 462.407 -535.672 455.441 -535.347 448.082C-533.931 415.961 -532.184 376.366 -525.511 340.183C-521.412 317.953 -515.463 297.076 -506.623 280.056C-497.786 263.039 -486.095 249.944 -470.538 243.153C-467.666 241.904 -464.183 241.774 -460.15 242.59C-456.118 243.407 -451.613 245.155 -446.761 247.571C-437.052 252.403 -426.134 259.814 -415.097 267.437C-414.226 268.038 -413.355 268.641 -412.483 269.244C-402.338 276.26 -392.175 283.289 -382.939 288.396C-377.921 291.171 -373.141 293.399 -368.754 294.753C-364.376 296.103 -360.31 296.607 -356.76 295.843L-356.758 295.843C-339.104 292.006 -322.232 286.7 -305.563 281.459C-297.615 278.96 -289.713 276.475 -281.795 274.171C-257.223 267.021 -232.373 261.567 -205.068 262.599C-188.477 263.245 -173.003 257.87 -158.183 249.241C-143.373 240.618 -129.159 228.71 -115.085 216.225C-111.859 213.364 -108.641 210.473 -105.425 207.583C-94.5823 197.84 -83.7536 188.11 -72.6762 179.57C-58.3208 168.501 -43.6323 159.5 -28.1075 155.121C-25.7192 154.457 -23.1297 154.82 -20.3137 156.115C-17.488 157.416 -14.4912 159.632 -11.3537 162.578C-5.07687 168.471 1.59317 177.12 8.40817 186.645C11.2921 190.676 14.2096 194.875 17.1287 199.076C21.0713 204.75 25.017 210.429 28.887 215.703C35.6316 224.895 42.2696 233.037 48.5147 238.082L48.5225 238.088L48.5305 238.095C54.057 242.38 59.2206 244.755 64.3933 242.822L64.4053 242.818C111.453 224.549 157.571 243.434 193.864 275.615C205.461 286.006 217.293 299.089 225.703 320.266C225.819 321.126 226.179 321.926 226.47 322.575L226.483 322.603C237.035 351.341 238.086 385.491 233.128 415.815C228.161 446.188 217.203 472.507 203.949 485.677C190.658 498.885 175.711 504.404 160.347 508.981C158.103 509.65 155.846 510.299 153.584 510.95C140.407 514.741 127.031 518.589 114.521 526.73L114.511 526.736C106.851 531.849 100.032 537.641 93.5506 544.155L93.5485 544.157C76.1907 561.711 62.7538 584.322 51.3491 607.799C43.7724 623.395 37.0668 639.433 30.7069 654.643C27.5019 662.308 24.3847 669.763 21.2881 676.846C18.027 684.242 14.5898 692.753 10.8915 701.91C2.60306 722.434 -6.99743 746.207 -18.8697 767.954C-36.0484 799.421 -57.768 826.208 -86.6712 832.606L-86.6767 832.607C-112.186 838.403 -137.643 824.061 -157.314 806.837Z" stroke="url(#paint9_linear)" stroke-opacity="0.55" stroke-width="2" stroke-miterlimit="10"/>
<path d="M-160.354 826.91L-160.358 826.907C-175.458 813.534 -188.863 798.279 -202.294 782.841C-202.842 782.211 -203.391 781.58 -203.94 780.949C-216.811 766.148 -229.77 751.247 -244.278 737.841C-259.212 723.554 -273.934 714.067 -288.619 707.632L-288.626 707.629C-322.81 692.925 -357.686 696.464 -401.081 703.108L-401.084 703.108C-446.998 710.239 -482.542 694.417 -508.623 666.565C-534.74 638.675 -551.387 598.692 -559.313 557.556C-565.241 526.278 -568.932 494.565 -567.326 462.846L-567.326 462.845C-566.994 456.12 -566.7 448.86 -566.389 441.195C-564.981 406.432 -563.235 363.332 -556.083 323.971C-551.719 299.958 -545.353 277.4 -535.858 259.02C-526.366 240.644 -513.783 226.512 -497.013 219.218C-493.898 217.881 -490.126 217.764 -485.768 218.671C-481.411 219.579 -476.546 221.495 -471.311 224.131C-460.837 229.406 -449.061 237.466 -437.166 245.747C-436.25 246.385 -435.333 247.025 -434.415 247.664C-423.458 255.302 -412.487 262.95 -402.524 268.504C-397.122 271.515 -391.981 273.932 -387.266 275.401C-382.56 276.867 -378.2 277.413 -374.4 276.592L-374.398 276.592C-355.403 272.448 -337.289 266.701 -319.387 261.021C-310.851 258.312 -302.364 255.619 -293.852 253.123C-267.441 245.377 -240.674 239.477 -211.075 240.657C-193.272 241.372 -176.667 235.582 -160.764 226.266C-144.87 216.955 -129.621 204.088 -114.525 190.581C-110.976 187.407 -107.438 184.198 -103.9 180.99C-92.3618 170.527 -80.8391 160.078 -69.0599 150.887C-53.6766 138.883 -37.9416 129.096 -21.3186 124.292C-18.7194 123.547 -15.9136 123.931 -12.8764 125.331C-9.82783 126.735 -6.60227 129.139 -3.23176 132.336C3.51089 138.732 10.6602 148.131 17.9538 158.479C21.0669 162.896 24.2146 167.498 27.3624 172.1C31.552 178.225 35.7421 184.351 39.8518 190.042C47.0592 200.022 54.1459 208.848 60.8118 214.296C66.6821 219.094 72.3318 221.388 77.7367 219.445L77.7494 219.44L77.762 219.435C127.968 199.837 177.773 220.124 216.598 254.835L216.6 254.836C229.322 266.149 242.028 280.186 250.869 303.159L250.878 303.185L250.89 303.21C251.042 303.549 251.203 303.954 251.375 304.386L251.379 304.396C251.541 304.802 251.712 305.233 251.88 305.61C263.285 336.542 264.414 373.343 259.09 406.017C253.758 438.739 241.991 467.103 227.822 481.252L227.821 481.252C213.502 495.575 197.398 501.527 180.866 506.443C178.439 507.165 176 507.865 173.556 508.566C159.392 512.631 145.034 516.751 131.623 525.518L131.617 525.523C123.48 530.937 115.956 537.308 109.021 544.377L109.017 544.382C90.547 563.44 76.2161 587.849 64.0138 613.146C56.0693 629.616 49.0008 646.523 42.2823 662.592C38.691 671.182 35.1996 679.533 31.728 687.449L31.7274 687.451C28.3397 695.21 24.764 704.111 20.9175 713.687C11.9695 735.962 1.55572 761.886 -11.3665 785.566C-29.8539 819.444 -53.2646 848.301 -84.3987 855.177C-111.667 861.154 -139.26 845.756 -160.354 826.91Z" stroke="url(#paint10_linear)" stroke-opacity="0.55" stroke-width="2" stroke-miterlimit="10"/>
<path d="M-163.4 846.977L-163.402 846.976C-179.493 832.564 -193.708 816.187 -207.887 799.592C-208.821 798.498 -209.755 797.404 -210.69 796.309C-223.925 780.803 -237.234 765.21 -252.065 751.041L-252.068 751.038C-268.103 735.853 -283.654 725.685 -299.4 718.847L-299.404 718.845C-335.969 703.116 -373.374 706.654 -419.512 713.827L-419.513 713.827C-468.914 721.562 -507.035 704.667 -534.959 674.85C-562.92 644.993 -580.679 602.144 -589.158 558.023C-595.539 524.767 -599.482 490.544 -597.852 456.541C-597.489 449.19 -597.171 441.233 -596.834 432.819C-595.351 395.706 -593.511 349.703 -585.937 307.656C-581.292 281.872 -574.5 257.641 -564.346 237.904C-554.194 218.171 -540.718 203 -522.733 195.206L-522.733 195.205C-519.378 193.75 -515.318 193.622 -510.638 194.604C-505.958 195.586 -500.735 197.66 -495.119 200.51C-483.881 206.214 -471.248 214.932 -458.494 223.887C-457.488 224.593 -456.481 225.301 -455.474 226.008C-443.748 234.253 -432.014 242.502 -421.361 248.499C-415.575 251.756 -410.071 254.371 -405.028 255.961C-399.994 257.549 -395.339 258.142 -391.289 257.264L-391.287 257.264C-371.073 252.84 -351.767 246.721 -332.674 240.67C-323.402 237.731 -314.18 234.808 -304.928 232.103C-276.577 223.813 -247.823 217.523 -216.055 218.865L-216.054 218.865C-197.102 219.655 -179.428 213.455 -162.497 203.457C-145.575 193.465 -129.336 179.642 -113.25 165.118C-109.452 161.689 -105.663 158.221 -101.876 154.754C-89.5946 143.514 -77.3223 132.282 -64.7694 122.389C-48.3523 109.451 -31.5412 98.876 -13.7592 93.6385C-11.0128 92.8495 -8.04032 93.2756 -4.81799 94.7942C-1.58408 96.3182 1.84103 98.9163 5.42168 102.364C12.5843 109.26 20.195 119.381 27.9641 130.52C31.2824 135.278 34.6376 140.234 37.9935 145.19C42.4581 151.784 46.924 158.38 51.3059 164.515C58.9913 175.274 66.5424 184.796 73.6321 190.707L73.6397 190.713C79.7483 195.706 85.9781 198.504 91.6451 196.252C145.511 175.274 198.752 196.988 240.109 234.228L240.115 234.233C253.662 246.219 267.219 261.182 276.738 285.855C276.919 286.357 277.093 286.794 277.26 287.215L277.261 287.216C277.431 287.643 277.594 288.055 277.764 288.526L277.766 288.532C289.912 321.679 291.182 361.142 285.553 396.17C279.918 431.235 267.406 461.634 252.198 476.772L252.197 476.773C236.839 492.086 219.569 498.41 201.866 503.666C199.39 504.401 196.903 505.115 194.411 505.832C179.128 510.223 163.65 514.671 149.223 524.258L149.215 524.263C140.386 530.249 132.386 536.918 124.993 544.547C105.145 565.011 89.7863 591.17 76.7506 618.262C68.1537 636.129 60.5413 654.46 53.3203 671.849C49.6006 680.806 45.9847 689.514 42.3916 697.779L42.3909 697.78C38.8302 706.006 35.0715 715.437 31.0275 725.583C21.4785 749.54 10.3395 777.487 -3.53545 802.986C-23.2972 839.304 -48.399 870.229 -81.9003 877.47L-81.9028 877.471C-111.4 883.925 -140.899 867.203 -163.4 846.977Z" stroke="url(#paint11_linear)" stroke-opacity="0.55" stroke-width="2" stroke-miterlimit="10"/>
<path d="M52.8566 708.632L52.8552 708.635C49.1208 717.283 45.1731 727.196 40.9238 737.866C30.7431 763.43 18.8307 793.342 3.9705 820.629C-17.1029 859.326 -43.8953 892.319 -79.6267 900.041C-110.881 906.675 -142.264 888.875 -166.447 867.045C-183.531 851.592 -198.618 834.099 -213.691 816.514L-214.837 815.176C-229.512 798.052 -244.222 780.888 -260.74 765.588C-277.625 749.478 -294.004 738.633 -310.807 731.392L-310.81 731.391C-349.48 714.862 -389.164 718.375 -438.291 726.102C-491.065 734.303 -531.713 716.206 -561.456 684.355C-591.236 652.465 -610.107 606.751 -619.128 559.77L-619.128 559.769C-625.986 524.282 -630.156 487.804 -628.251 451.495L-628.251 451.495C-627.816 443.086 -627.441 433.933 -627.044 424.231C-625.437 384.943 -623.461 336.664 -615.583 292.46C-610.673 264.907 -603.479 239.005 -592.687 217.898C-581.896 196.794 -567.546 180.555 -548.351 172.196L-548.347 172.194C-544.785 170.625 -540.468 170.487 -535.49 171.538C-530.513 172.589 -524.953 174.813 -518.974 177.869C-507.01 183.982 -493.546 193.329 -479.951 202.927C-478.894 203.673 -477.837 204.421 -476.779 205.169C-464.262 214.018 -451.735 222.874 -440.364 229.311C-434.196 232.804 -428.332 235.606 -422.962 237.311C-417.602 239.014 -412.652 239.65 -408.353 238.715L-408.352 238.714C-386.794 233.984 -366.216 227.42 -345.861 220.927C-335.989 217.778 -326.169 214.645 -316.315 211.747C-286.093 202.857 -255.422 196.122 -221.486 197.625C-201.315 198.547 -182.523 191.949 -164.529 181.257C-146.544 170.571 -129.296 155.76 -112.207 140.185C-108.16 136.495 -104.122 132.764 -100.084 129.033C-87.0505 116.99 -74.0224 104.951 -60.6904 94.3483C-43.2354 80.4664 -25.346 69.1193 -6.39836 63.5122L-6.39764 63.512C-3.4719 62.6438 -0.314454 63.0897 3.10016 64.7093C6.52604 66.3343 10.15 69.1143 13.9356 72.806C21.5077 80.1905 29.5486 91.0436 37.7637 102.993C41.218 108.018 44.7097 113.247 48.2049 118.481C52.9874 125.642 57.7764 132.814 62.4853 139.486C70.6398 151.04 78.6703 161.271 86.2467 167.641C92.7206 173.394 99.182 176.139 105.334 173.855L105.341 173.853L105.348 173.85C162.874 151.488 219.327 174.903 263.449 214.403C277.855 227.321 292.268 243.215 302.465 269.599L302.475 269.624L302.486 269.648C302.793 270.332 303.13 271.269 303.487 272.26L303.488 272.264C316.364 307.619 317.711 349.735 311.716 387.111C305.715 424.525 292.395 456.968 276.148 473.097L276.145 473.1C259.759 489.529 241.392 496.279 222.553 501.87C219.882 502.663 217.198 503.433 214.509 504.205C198.276 508.863 181.823 513.585 166.408 523.793C157.06 529.84 148.606 537.067 140.768 545.242C119.653 566.974 103.33 594.877 89.4657 623.793C80.4747 642.544 72.4907 661.782 64.9066 680.057C60.8049 689.94 56.8203 699.542 52.8566 708.632Z" stroke="url(#paint12_linear)" stroke-opacity="0.55" stroke-width="2" stroke-miterlimit="10"/>
<path d="M-649.224 560.262L-650.206 560.452L-649.224 560.262C-656.559 522.545 -660.982 483.558 -659.079 444.714C-658.607 435.649 -658.205 425.747 -657.778 415.234C-656.09 373.694 -654.015 322.599 -645.729 275.763C-640.539 246.425 -632.922 218.825 -621.472 196.342C-610.024 173.862 -594.783 156.569 -574.374 147.708L-574.371 147.706C-570.598 146.053 -566.016 145.93 -560.729 147.074C-555.443 148.218 -549.535 150.611 -543.178 153.888C-530.461 160.444 -516.131 170.441 -501.662 180.696C-500.596 181.451 -499.529 182.209 -498.462 182.966C-485.08 192.462 -471.682 201.969 -459.533 208.871C-452.97 212.599 -446.736 215.588 -441.033 217.408C-435.339 219.225 -430.092 219.903 -425.544 218.911L-425.542 218.911C-402.763 213.901 -380.993 206.964 -359.447 200.099C-348.839 196.72 -338.285 193.357 -327.692 190.25C-295.531 180.818 -262.872 173.692 -226.768 175.357C-205.384 176.348 -185.463 169.318 -166.387 157.92C-147.321 146.527 -129.04 130.732 -110.931 114.12C-106.615 110.161 -102.309 106.156 -98.0048 102.152C-84.2228 89.3316 -70.449 76.5191 -56.3602 65.2341C-37.8774 50.4295 -18.9401 38.3288 1.10967 32.3582L1.11068 32.3578C4.88316 31.2301 9.03477 32.1948 13.5852 34.9736C18.1373 37.7534 22.9639 42.2769 27.9909 48.0202C37.9429 59.3903 48.4907 75.3152 59.0737 91.2934L59.3948 91.7782C70.0593 107.879 80.7555 123.99 90.8257 135.295C95.8595 140.946 100.79 145.458 105.538 148.164C110.295 150.876 114.988 151.836 119.424 150.143L119.427 150.142C180.389 126.673 240.28 151.517 286.935 193.547L286.939 193.55C302.167 207.14 317.461 224.212 328.338 252.305L328.339 252.306C342.95 289.885 344.745 335.178 338.475 375.495C332.2 415.849 317.883 450.988 300.496 468.37C283.069 485.792 263.542 492.975 243.536 498.937C240.72 499.776 237.892 500.592 235.059 501.409C217.803 506.385 200.334 511.422 183.984 522.281C152.425 543.178 129.399 576.058 110.729 611.809C97.5567 637.034 86.5126 663.774 76.1755 688.803C71.8687 699.23 67.6847 709.361 63.5205 718.961L63.5196 718.963C59.5751 728.117 55.3996 738.63 50.8999 749.959C40.1189 777.103 27.4778 808.931 11.6981 837.965C-10.6793 879.138 -39.1573 914.262 -77.1314 922.335C-110.615 929.447 -143.905 910.321 -169.494 887.112L-170.166 887.853L-169.495 887.112C-187.557 870.744 -203.51 852.198 -219.422 833.496C-220.147 832.643 -220.873 831.79 -221.598 830.938C-236.772 813.094 -251.994 795.193 -269.007 779.088L-269.007 779.087C-298.671 751.03 -326.921 737.538 -357.178 732.575C-387.391 727.62 -419.539 731.182 -456.946 737.098C-513.078 745.889 -556.253 726.591 -587.85 692.679C-619.485 658.726 -639.537 610.091 -649.224 560.262Z" stroke="url(#paint13_linear)" stroke-opacity="0.55" stroke-width="2" stroke-miterlimit="10"/>
<defs>
<linearGradient id="paint0_linear" x1="-139.406" y1="434.088" x2="-119.36" y2="633.411" gradientUnits="userSpaceOnUse">
<stop stop-color="#A100EF"/>
<stop offset="1" stop-color="#13ECAB"/>
</linearGradient>
<linearGradient id="paint1_linear" x1="-143.837" y1="404.622" x2="-118.569" y2="655.871" gradientUnits="userSpaceOnUse">
<stop stop-color="#A100EF"/>
<stop offset="1" stop-color="#13ECAB"/>
</linearGradient>
<linearGradient id="paint2_linear" x1="-147.97" y1="375.12" x2="-117.46" y2="678.491" gradientUnits="userSpaceOnUse">
<stop stop-color="#A100EF"/>
<stop offset="1" stop-color="#13ECAB"/>
</linearGradient>
<linearGradient id="paint3_linear" x1="-151.666" y1="345.609" x2="-115.911" y2="701.143" gradientUnits="userSpaceOnUse">
<stop stop-color="#A100EF"/>
<stop offset="1" stop-color="#13ECAB"/>
</linearGradient>
<linearGradient id="paint4_linear" x1="-156.253" y1="316.154" x2="-115.272" y2="723.646" gradientUnits="userSpaceOnUse">
<stop stop-color="#A100EF"/>
<stop offset="1" stop-color="#13ECAB"/>
</linearGradient>
<linearGradient id="paint5_linear" x1="-160.45" y1="286.659" x2="-114.25" y2="746.05" gradientUnits="userSpaceOnUse">
<stop stop-color="#A100EF"/>
<stop offset="1" stop-color="#13ECAB"/>
</linearGradient>
<linearGradient id="paint6_linear" x1="-164.56" y1="257.426" x2="-113.161" y2="768.512" gradientUnits="userSpaceOnUse">
<stop stop-color="#A100EF"/>
<stop offset="1" stop-color="#13ECAB"/>
</linearGradient>
<linearGradient id="paint7_linear" x1="-168.51" y1="228.159" x2="-111.891" y2="791.153" gradientUnits="userSpaceOnUse">
<stop stop-color="#A100EF"/>
<stop offset="1" stop-color="#13ECAB"/>
</linearGradient>
<linearGradient id="paint8_linear" x1="-172.759" y1="198.181" x2="-110.841" y2="813.868" gradientUnits="userSpaceOnUse">
<stop stop-color="#A100EF"/>
<stop offset="1" stop-color="#13ECAB"/>
</linearGradient>
<linearGradient id="paint9_linear" x1="-177.084" y1="168.969" x2="-109.967" y2="836.353" gradientUnits="userSpaceOnUse">
<stop stop-color="#A100EF"/>
<stop offset="1" stop-color="#13ECAB"/>
</linearGradient>
<linearGradient id="paint10_linear" x1="-181.636" y1="139.256" x2="-109.247" y2="859.056" gradientUnits="userSpaceOnUse">
<stop stop-color="#A100EF"/>
<stop offset="1" stop-color="#13ECAB"/>
</linearGradient>
<linearGradient id="paint11_linear" x1="-185.676" y1="109.762" x2="-108.063" y2="881.51" gradientUnits="userSpaceOnUse">
<stop stop-color="#A100EF"/>
<stop offset="1" stop-color="#13ECAB"/>
</linearGradient>
<linearGradient id="paint12_linear" x1="-189.921" y1="80.7772" x2="-107.112" y2="904.192" gradientUnits="userSpaceOnUse">
<stop stop-color="#A100EF"/>
<stop offset="1" stop-color="#13ECAB"/>
</linearGradient>
<linearGradient id="paint13_linear" x1="-194.056" y1="50.7812" x2="-105.972" y2="926.651" gradientUnits="userSpaceOnUse">
<stop stop-color="#A100EF"/>
<stop offset="1" stop-color="#13ECAB"/>
</linearGradient>
</defs>
</svg>
