<svg width="1055" height="894" viewBox="0 0 1055 894" fill="none" xmlns="http://www.w3.org/2000/svg">
<path d="M618.924 370.927L618.921 370.922C616.46 366.03 616.179 362.221 617.094 359.181C618.016 356.121 620.202 353.665 623.02 351.597C625.84 349.528 629.208 347.906 632.374 346.482C632.898 346.246 633.42 346.014 633.935 345.786C636.461 344.664 638.806 343.623 640.364 342.56L640.37 342.556L640.376 342.552C645.577 338.894 651.542 338.105 657.694 337.292C657.862 337.27 658.031 337.248 658.199 337.225C664.447 336.397 670.886 335.459 676.197 330.968L676.204 330.962L676.211 330.956C680.378 327.298 686.328 326.431 692.363 328.405C693.639 329.027 695.041 329.73 696.166 330.966C697.728 332.78 698.372 335.271 698.313 337.716C698.255 340.168 697.495 342.399 696.464 343.672C695.337 344.886 693.922 345.687 692.323 346.502C692.119 346.606 691.912 346.71 691.703 346.815C690.296 347.523 688.768 348.292 687.408 349.381L687.402 349.386C685.083 351.272 683.418 354.094 682.056 357.173C680.985 359.595 680.066 362.265 679.169 364.872C678.925 365.581 678.682 366.285 678.439 366.978C677.287 370.26 676.11 373.303 674.611 375.674C673.119 378.034 671.381 379.611 669.147 380.151L669.136 380.154L669.124 380.157C666.101 380.964 662.661 379.71 658.823 377.965C658.299 377.727 657.767 377.48 657.231 377.23C655.864 376.595 654.47 375.947 653.103 375.401C651.191 374.637 649.234 374.03 647.306 373.898L647.305 373.898C644.48 373.71 641.963 374.523 639.617 375.468C639.005 375.714 638.409 375.967 637.823 376.215C636.107 376.943 634.467 377.639 632.703 378.056L632.679 378.062L632.655 378.069C628.287 379.335 622.216 377.566 618.924 370.927Z" stroke="url(#paint0_linear)" stroke-width="2" stroke-miterlimit="10"/>
<path d="M692.93 369.194L692.927 369.204C692.434 370.985 691.965 372.881 691.482 374.834C690.657 378.173 689.791 381.678 688.691 385.058C686.953 390.395 684.723 395.085 681.437 397.839C678.403 400.346 674.894 400.859 670.897 400.441C667.595 400.057 664.176 398.738 660.537 397.014C658.879 396.229 657.195 395.37 655.464 394.486C655.299 394.402 655.133 394.318 654.967 394.233C653.07 393.266 651.119 392.278 649.121 391.354C645.57 389.625 642.081 388.321 638.626 388.098C634.679 387.641 631.049 388.42 627.49 389.58C625.871 390.108 624.247 390.721 622.616 391.337C622.455 391.398 622.294 391.459 622.133 391.519C620.33 392.199 618.509 392.876 616.614 393.464L616.605 393.467C606.192 396.807 595.326 390.742 589.597 378.66C587.673 374.601 586.304 370.629 585.484 366.741C584.401 360.925 583.93 354.416 584.783 348.596C585.638 342.761 587.801 337.76 591.852 334.749C592.658 334.151 593.763 333.816 595.142 333.663C596.517 333.51 598.061 333.549 599.686 333.622C599.961 333.634 600.239 333.648 600.518 333.661C601.86 333.725 603.239 333.792 604.521 333.755C606.066 333.711 607.599 333.517 608.876 332.921L608.883 332.917L608.891 332.914C611.575 331.608 614.122 330.288 616.57 329.019C621.086 326.679 625.266 324.512 629.355 322.93L629.365 322.927L629.374 322.923C634.908 320.65 639.925 317.519 644.802 314.476C645.36 314.128 645.917 313.78 646.472 313.436C651.909 310.061 657.235 306.923 663.133 305.149C665.784 304.357 668.909 304.75 672.324 305.26C672.504 305.287 672.685 305.314 672.867 305.341C676.002 305.813 679.36 306.317 682.368 305.699C683.536 305.589 684.396 305.288 685.388 304.642L685.402 304.633L685.415 304.624C692.579 299.613 701.518 299.547 710.09 303.337L710.103 303.343L710.117 303.349C712.459 304.303 714.73 305.779 716.878 308.333L717.014 308.495L717.158 308.565L717.242 308.68C720.078 312.504 721.411 317.612 721.529 322.459C721.647 327.333 720.534 331.733 718.715 334.174L718.704 334.189L718.694 334.204C717.136 336.464 715.079 337.871 712.806 339.145C712.25 339.456 711.672 339.764 711.085 340.076C709.327 341.012 707.479 341.996 705.847 343.284C704.56 344.27 703.472 345.206 702.464 346.406C699.871 349.393 698.065 353.125 696.623 357.063C695.489 360.161 694.561 363.445 693.658 366.636C693.415 367.497 693.173 368.351 692.93 369.194Z" stroke="url(#paint1_linear)" stroke-width="2" stroke-miterlimit="10"/>
<path d="M689.072 418.902L689.066 418.906L689.06 418.91C684.033 422.387 678.408 422.123 672.676 420.694C668.13 419.539 663.575 417.328 658.862 414.736C657.183 413.812 655.475 412.835 653.742 411.844C650.661 410.081 647.502 408.273 644.29 406.645C639.623 404.17 635.041 402.749 630.708 402.059L630.695 402.057L630.682 402.055C625.451 401.363 620.6 402.291 615.805 403.775C613.411 404.516 611.013 405.402 608.59 406.3L608.455 406.351C606.068 407.235 603.653 408.131 601.144 408.931C584.014 414.323 568.71 403.976 560.595 386.552C557.906 380.297 555.492 374.041 554.413 367.882L554.413 367.882L554.411 367.87C552.814 359.385 551.428 349.034 552.029 339.617C552.632 330.166 555.218 321.91 561.303 317.289C562.405 316.489 564.099 316.193 566.329 316.286C568.538 316.379 571.072 316.839 573.706 317.352C573.984 317.406 574.264 317.461 574.544 317.516C576.883 317.974 579.272 318.442 581.447 318.656C583.856 318.894 586.196 318.846 588.003 317.989L588.003 317.989L588.013 317.985C591.675 316.198 595.183 314.319 598.59 312.494C600.397 311.526 602.175 310.573 603.932 309.658C609.03 307.003 614.006 304.631 619.206 302.969C627.853 300.259 634.934 294.326 641.776 288.445C642.033 288.224 642.29 288.004 642.546 287.783C649.177 282.078 655.628 276.527 663.273 273.641L663.278 273.639C664.731 273.081 666.511 273.091 668.585 273.512C670.653 273.932 672.904 274.737 675.249 275.657C675.947 275.931 676.656 276.216 677.369 276.502C679.019 277.166 680.69 277.838 682.3 278.4C684.606 279.204 686.903 279.825 689.01 279.89C690.469 279.96 691.956 279.78 693.292 278.998L693.325 278.979L693.356 278.958C703.734 271.78 716.409 272.514 727.975 277.951C731.397 279.619 734.714 281.81 737.909 285.853L738.349 286.409L738.413 286.387C742.467 292.021 744.485 299.542 744.801 306.655C745.121 313.871 743.681 320.439 741.078 324.074L741.071 324.084L741.063 324.095C738.719 327.557 735.692 329.631 732.396 331.524C731.712 331.917 731.01 332.305 730.3 332.698C727.633 334.173 724.84 335.717 722.332 337.885L722.322 337.893L722.313 337.901C720.864 339.216 719.231 340.879 717.917 342.725C711.763 351.236 708.968 362.992 706.478 373.469C706.207 374.608 705.94 375.732 705.672 376.835L705.67 376.842C705.13 379.146 704.618 381.657 704.082 384.284C703.039 389.396 701.908 394.943 700.31 400.232C697.892 408.235 694.503 415.263 689.072 418.902Z" stroke="url(#paint2_linear)" stroke-width="2" stroke-miterlimit="10"/>
<path d="M522.517 369.65C524.12 378.162 527.078 386.74 530.989 394.989C541.59 417.996 562.082 434.124 585.984 425.348C587.688 424.726 589.357 424.097 591 423.478C601.915 419.366 611.653 415.698 622.408 417.319C627.757 418.141 633.197 419.997 639.129 423.284M522.517 369.65L523.5 369.465M522.517 369.65L523.5 369.465C523.5 369.465 523.5 369.465 523.5 369.465M522.517 369.65C518.383 347.613 513.239 312.594 530.403 299.743C534.189 296.894 541.863 298.902 549.453 300.888C556.292 302.677 563.063 304.448 566.86 302.633C571.926 300.169 576.692 297.537 581.35 294.965C590.548 289.886 599.321 285.042 609.134 282.189C620.705 278.912 629.682 269.884 638.63 260.885C646.399 253.071 654.146 245.28 663.551 241.293L639.129 423.284M523.5 369.465C525.084 377.88 528.012 386.376 531.893 394.561L531.898 394.571L531.898 394.571C537.139 405.946 544.797 415.554 554.023 421.236C563.219 426.899 573.999 428.683 585.64 424.409L585.641 424.409C587.327 423.793 588.986 423.167 590.625 422.549C601.518 418.441 611.524 414.668 622.557 416.33L622.56 416.331C628.034 417.171 633.58 419.069 639.597 422.4M523.5 369.465C521.434 358.453 519.133 344.279 519.473 331.278C519.814 318.219 522.811 306.676 531.002 300.543L531.004 300.542C532.484 299.428 534.828 299.132 537.908 299.443C540.949 299.751 544.457 300.619 548.074 301.561C548.449 301.659 548.826 301.757 549.203 301.856C552.425 302.699 555.692 303.554 558.639 304.023C561.89 304.541 564.991 304.635 567.291 303.536L567.297 303.533C572.386 301.058 577.193 298.403 581.864 295.824C584.128 294.574 586.36 293.342 588.576 292.156C595.393 288.509 602.121 285.27 609.409 283.15C620.503 280.007 629.218 271.732 637.568 263.369C638.148 262.787 638.727 262.205 639.305 261.624C647.112 253.775 654.722 246.123 663.936 242.216C665.662 241.51 667.847 241.656 670.453 242.455C673.046 243.25 675.901 244.642 678.875 246.227C679.927 246.787 680.999 247.375 682.076 247.965C684.005 249.022 685.949 250.088 687.822 251.023C690.748 252.482 693.641 253.696 696.27 254.135L696.315 254.142L696.362 254.146L696.402 254.149C697.331 254.216 698.351 254.291 699.303 254.216C700.267 254.14 701.272 253.906 702.116 253.267C715.482 244.012 731.575 245.409 746.438 252.649C750.806 254.776 755.445 257.802 759.431 263.35C759.496 263.479 759.57 263.58 759.631 263.653C759.708 263.747 759.792 263.829 759.837 263.873L759.845 263.881C759.858 263.894 759.869 263.904 759.878 263.913L759.886 263.936L759.962 264.047C765.212 271.729 767.875 281.87 768.367 291.403C768.86 300.968 767.159 309.702 763.915 314.623L763.91 314.63C760.824 319.402 756.778 322.159 752.423 324.65C751.589 325.128 750.739 325.598 749.881 326.071C746.303 328.048 742.588 330.1 739.317 333.106L739.298 333.124L739.279 333.143L739.247 333.176C737.3 335.163 735.275 337.23 733.654 339.713C729.164 346.029 726.257 353.672 724.046 361.535C722.542 366.883 721.344 372.395 720.195 377.683C719.657 380.158 719.13 382.584 718.587 384.921L718.586 384.922C717.893 387.911 717.237 391.229 716.544 394.728C715.228 401.383 713.782 408.698 711.697 415.671C708.519 426.303 703.964 435.71 696.501 440.326C689.84 444.384 681.83 443.391 674.391 440.944C668.619 439.008 662.945 435.907 657.178 432.504C655.789 431.684 654.392 430.845 652.989 430.002C648.602 427.368 644.145 424.692 639.597 422.4M639.597 422.4C639.591 422.397 639.585 422.394 639.579 422.391L639.129 423.284M639.597 422.4C639.603 422.403 639.608 422.406 639.614 422.409L639.129 423.284" stroke="url(#paint3_linear)" stroke-width="2" stroke-miterlimit="10"/>
<path d="M704.075 461.437L704.079 461.435C713.617 455.963 719.321 444.119 723.2 430.774C725.77 421.934 727.491 412.637 729.033 404.311C729.818 400.071 730.556 396.083 731.336 392.535C731.891 389.939 732.436 387.249 732.992 384.502C734.369 377.705 735.817 370.553 737.674 363.58C740.283 353.781 743.724 344.225 748.987 336.309C750.921 333.18 753.259 330.468 755.902 327.932C760.007 323.882 764.758 321.238 769.36 318.678C770.243 318.186 771.12 317.698 771.986 317.204C777.407 314.109 782.499 310.725 786.366 304.752L786.37 304.746C790.398 298.626 792.437 287.779 791.741 275.884C791.047 264.023 787.642 251.334 781.011 241.588L780.936 241.478L780.923 241.441C780.907 241.423 780.882 241.396 780.828 241.334C780.699 241.183 780.521 240.959 780.384 240.633C775.348 233.592 769.668 229.866 764.35 227.275L764.342 227.271L764.334 227.267C746.42 218.148 726.65 216.159 710.041 227.612L710.03 227.62L710.019 227.627C707.918 228.995 705.639 228.767 703.088 228.316L703.059 228.311L703.031 228.304C699.898 227.561 696.397 225.779 692.827 223.667C690.609 222.355 688.306 220.879 686.015 219.41C684.622 218.517 683.233 217.627 681.871 216.778C678.225 214.508 674.725 212.505 671.576 211.331C668.401 210.147 665.793 209.887 663.802 210.798L663.799 210.8C652.833 215.778 644.005 225.609 634.994 235.645C634.159 236.575 633.323 237.507 632.482 238.436C622.666 249.301 612.385 259.888 598.817 263.339C589.277 265.839 580.737 269.968 572.23 274.596C569.651 276 567.069 277.453 564.462 278.92C558.502 282.274 552.413 285.7 545.935 288.772M704.075 461.437L545.505 287.869M704.075 461.437C695.373 466.475 685.212 464.654 676.079 461.189M704.075 461.437L704.577 462.302M545.935 288.772C545.935 288.772 545.934 288.772 545.933 288.773L545.505 287.869M545.935 288.772C545.936 288.771 545.937 288.771 545.938 288.77L545.505 287.869M545.935 288.772C543.157 290.105 539.311 289.876 535.213 289.076C531.449 288.341 527.248 287.072 523.089 285.816C522.664 285.687 522.24 285.559 521.816 285.432C517.213 284.046 512.719 282.744 508.83 282.186C504.893 281.621 501.864 281.867 499.97 283.252M545.505 287.869C540.813 290.123 532.135 287.503 523.371 284.856C513.763 281.955 504.051 279.023 499.376 282.448C477.956 298.36 486.047 343.495 490.954 370.87L490.966 370.933C492.831 381.754 496.767 392.395 501.418 402.788M499.97 283.252C499.971 283.252 499.972 283.251 499.973 283.25L499.376 282.448L499.967 283.254C499.968 283.254 499.969 283.253 499.97 283.252ZM499.97 283.252C489.669 290.907 486.329 305.729 486.292 322.401C486.256 338.995 489.49 357.033 491.946 370.731L491.95 370.756L491.951 370.763C493.796 381.465 497.694 392.018 502.33 402.376M502.33 402.376C502.329 402.375 502.329 402.374 502.328 402.373L501.418 402.788M502.33 402.376C508.798 416.532 518.278 428.709 529.801 435.928C541.291 443.127 554.838 445.419 569.607 439.804L569.609 439.803C570.733 439.378 571.845 438.953 572.948 438.532C587.26 433.071 599.916 428.241 613.772 430.29L613.774 430.291C620.381 431.281 626.89 433.653 634.174 437.601C640.196 440.698 645.998 444.327 651.689 447.887C652.93 448.663 654.166 449.436 655.398 450.199C662.303 454.479 669.09 458.469 676.079 461.189M502.33 402.376C502.33 402.378 502.331 402.379 502.331 402.38L501.418 402.788M501.418 402.788C514.467 431.349 539.792 452.21 569.963 440.738C571.07 440.319 572.164 439.902 573.247 439.489C587.627 434.005 600.04 429.27 613.626 431.28L676.079 461.189M675.72 462.122C684.922 465.614 695.464 467.578 704.577 462.302M675.72 462.122L676.082 461.191C676.081 461.19 676.08 461.19 676.079 461.189M675.72 462.122L676.074 461.188C676.076 461.188 676.077 461.189 676.079 461.189M675.72 462.122L676.079 461.189M704.577 462.302C721.061 452.846 726.154 425.347 730.032 404.413C730.814 400.19 731.547 396.234 732.313 392.748L704.577 462.302Z" stroke="url(#paint4_linear)" stroke-width="2" stroke-miterlimit="10"/>
<path d="M743.93 400.461L743.929 400.466C743.106 404.465 742.324 408.958 741.491 413.744C739.728 423.874 737.737 435.318 734.636 446.163C730.069 462.14 723.197 476.378 711.491 482.871C701.129 488.492 688.888 486.067 677.752 481.431C669.55 477.926 661.67 473.107 653.711 467.991C652.221 467.034 650.728 466.065 649.229 465.093C642.745 460.888 636.163 456.62 629.326 452.885C620.986 448.222 613.277 445.466 605.8 444.245L605.789 444.243C588.599 441.627 573.088 447.646 554.963 454.68C554.661 454.797 554.358 454.915 554.055 455.032L554.054 455.033C536.154 461.991 519.897 459.17 506.182 450.444C492.431 441.695 481.207 426.985 473.554 410.166C467.943 397.75 463.302 385.048 460.956 372.111L460.954 372.105C460.877 371.695 460.799 371.281 460.721 370.863C457.704 354.831 453.715 333.637 453.474 314.008C453.225 293.797 456.958 275.657 469.343 266.353C471.658 264.694 475.379 264.506 480.168 265.325C484.904 266.135 490.383 267.871 495.973 269.7C496.447 269.855 496.922 270.011 497.397 270.167C502.491 271.838 507.624 273.522 512.202 274.524C517.15 275.608 521.735 275.967 524.985 274.4L524.989 274.398C532.433 270.766 539.425 266.754 546.267 262.828C549.726 260.844 553.146 258.882 556.567 257.001C566.793 251.381 577.113 246.44 588.793 243.599L588.8 243.597C604.62 239.641 616.399 226.779 627.662 213.453C628.69 212.236 629.714 211.015 630.737 209.796C641.007 197.555 651.127 185.494 663.894 179.303L663.901 179.3C666.173 178.176 669.211 178.545 672.942 180.097C676.637 181.636 680.769 184.233 685.064 187.179C686.861 188.411 688.699 189.715 690.539 191.019C693.042 192.793 695.547 194.569 697.95 196.169C702.13 198.951 706.189 201.335 709.77 202.463C712.958 203.597 715.691 203.643 718.022 202.211L718.045 202.196L718.068 202.181C737.675 188.631 761.431 191.364 782.32 202.129C788.703 205.433 795.436 209.875 801.528 218.433C801.584 218.547 801.645 218.641 801.688 218.703C801.757 218.805 801.835 218.907 801.892 218.98C801.956 219.065 801.999 219.121 802.031 219.168C802.035 219.173 802.038 219.177 802.04 219.181L802.067 219.26L802.143 219.371C810.108 231.056 814.198 246.308 815.076 260.541C815.956 274.81 813.598 287.833 808.902 295.116C804.172 302.451 797.992 306.544 791.483 310.246C790.459 310.829 789.423 311.404 788.383 311.98C782.855 315.046 777.195 318.185 772.346 323.064C769.286 326.025 766.646 329.378 764.342 332.872L764.34 332.875C758.051 342.482 754.091 354.026 751.133 365.816C749.212 373.475 747.699 381.304 746.253 388.792C745.477 392.806 744.721 396.722 743.93 400.461Z" stroke="url(#paint5_linear)" stroke-width="2" stroke-miterlimit="10"/>
<path d="M831.757 285.638L831.761 285.632C837.24 277.149 839.916 261.953 838.852 245.312C837.79 228.708 833.016 210.888 823.831 197.221L823.758 197.113L823.715 196.989C823.691 196.919 823.663 196.874 823.542 196.717L823.529 196.7C823.423 196.561 823.255 196.342 823.124 196.031C815.986 185.984 808.213 180.836 800.782 176.825C776.603 164.262 749.422 160.857 726.817 176.498C724.247 178.341 720.778 177.887 717.367 176.628C717.367 176.628 717.366 176.628 717.366 176.628L717.712 175.69C711.465 173.428 703.68 167.551 695.813 161.61C683.73 152.487 671.451 143.217 664.246 146.671L831.757 285.638ZM831.757 285.638C826.362 294.133 819.215 298.892 811.654 303.224C810.478 303.898 809.289 304.563 808.094 305.231C801.651 308.833 795.044 312.527 789.352 318.267C785.897 321.631 782.705 325.71 780.084 329.854C772.901 341.1 768.324 354.518 764.928 368.227C762.516 377.959 760.688 387.894 758.953 397.325C758.246 401.167 757.554 404.925 756.844 408.553C755.944 413.043 755.087 418.111 754.171 423.529C752.171 435.359 749.889 448.852 746.264 461.618C740.976 480.246 732.934 496.877 719.135 504.228C706.728 510.825 692.253 507.329 679.411 501.666C670.049 497.498 661.124 491.776 652.149 485.744C650.616 484.714 649.081 483.675 647.543 482.633C640.093 477.588 632.555 472.482 624.71 468.082C615.318 462.707 606.406 459.565 597.812 458.197M831.757 285.638L664.686 147.569C656.712 151.563 649.65 157.717 642.965 164.892C637.609 170.64 632.533 177.001 627.431 183.393C626.157 184.989 624.882 186.588 623.6 188.179C610.841 204.017 597.445 219.194 579.17 223.454L579.168 223.455C565.347 226.637 553.209 232.47 541.26 239.084C537.437 241.2 533.625 243.402 529.782 245.621C521.652 250.317 513.383 255.092 504.582 259.307C502.699 260.217 500.427 260.528 497.941 260.455C495.449 260.382 492.673 259.919 489.736 259.22C484.433 257.959 478.479 255.895 472.552 253.84C471.924 253.622 471.296 253.404 470.669 253.188C464.093 250.915 457.637 248.76 452.073 247.742C446.445 246.712 442.061 246.915 439.365 248.959L439.358 248.964C432.112 254.371 427.451 262.441 424.67 272.183C421.887 281.929 421.003 293.289 421.27 305.174C421.768 327.355 426.264 351.176 429.712 369.441C429.96 370.757 430.203 372.043 430.438 373.298C433.287 388.466 438.751 403.555 445.021 417.88C453.859 437.358 466.824 454.599 482.813 464.908C498.765 475.192 517.757 478.601 538.83 470.415C560.129 462.005 578.014 455 597.812 458.197M597.812 458.197C597.811 458.197 597.811 458.197 597.81 458.196L597.653 459.184L597.812 458.197C597.812 458.197 597.812 458.197 597.812 458.197Z" stroke="url(#paint6_linear)" stroke-width="2" stroke-miterlimit="10"/>
<path d="M726.462 525.428L726.452 525.434C712.469 532.84 695.602 528.585 681.073 521.903C670.501 516.95 660.469 510.341 650.365 503.461C649.143 502.63 647.921 501.794 646.696 500.957C637.81 494.883 628.815 488.734 619.365 483.518C608.704 477.526 598.832 473.913 589.113 472.395C566.997 468.664 546.965 476.41 522.808 485.805L522.8 485.808C498.637 495.456 476.876 491.539 458.627 479.716C440.339 467.866 425.552 448.051 415.53 425.911L415.528 425.908C407.965 409.374 401.762 392.145 398.65 374.672L398.65 374.669C398.187 372.116 397.692 369.445 397.179 366.674C393.424 346.387 388.674 320.727 387.953 296.693C387.544 283.039 388.439 269.968 391.53 258.745C394.62 247.527 399.887 238.219 408.179 231.987L408.183 231.984C409.665 230.859 411.65 230.25 414.111 230.095C416.572 229.941 419.443 230.247 422.624 230.889C428.993 232.175 436.419 234.771 443.982 237.488C444.581 237.703 445.18 237.918 445.78 238.134C452.723 240.633 459.71 243.147 465.911 244.689C469.284 245.528 472.462 246.089 475.306 246.198C478.142 246.307 480.717 245.969 482.833 244.945C492.994 240.074 502.488 234.529 511.818 229.079C516.175 226.534 520.496 224.01 524.832 221.586C538.492 213.949 552.391 207.243 568.354 203.72L568.359 203.719C589.036 199.035 603.986 181.573 618.222 163.262C619.683 161.383 621.136 159.495 622.588 157.609C628.247 150.256 633.885 142.932 639.848 136.309C647.334 127.996 655.273 120.859 664.295 116.24C667.195 114.78 671.125 115.474 675.959 117.844C680.744 120.19 686.117 124.031 691.704 128.35C693.975 130.106 696.291 131.948 698.609 133.792C701.945 136.446 705.286 139.105 708.511 141.518C713.975 145.607 719.265 149.117 723.924 150.881C727.819 152.569 731.479 152.894 734.493 150.932L734.505 150.925L734.516 150.917C760.364 133.085 791.304 137.323 818.457 151.534C826.876 156.029 836.033 162.056 843.918 173.508L843.973 173.587L844.042 173.655C844.153 173.764 844.24 173.891 844.388 174.119L844.403 174.141C844.525 174.329 844.694 174.589 844.933 174.84C855.421 190.438 860.922 210.766 862.195 229.7C863.473 248.701 860.479 266.069 854.217 275.754L854.213 275.76L854.209 275.767C848.071 285.58 839.897 291.026 831.279 295.956C829.938 296.723 828.585 297.478 827.226 298.236C819.882 302.333 812.376 306.521 805.948 313.083C801.96 317.155 798.371 321.633 795.427 326.436C787.347 339.325 782.233 354.66 778.439 370.304C775.833 381.048 773.838 391.995 771.939 402.416C771.075 407.153 770.232 411.781 769.36 416.232C768.304 421.534 767.315 427.553 766.257 433.993C764.061 447.355 761.567 462.532 757.561 476.889C751.622 498.174 742.47 517.177 726.462 525.428Z" stroke="url(#paint7_linear)" stroke-width="2" stroke-miterlimit="10"/>
<path d="M682.644 541.899L682.651 541.902C698.928 549.832 717.884 554.708 734.016 546.551M682.644 541.899L734.471 547.442M682.644 541.899C670.907 536.28 659.807 528.903 648.659 521.218C647.09 520.136 645.52 519.048 643.947 517.959C634.365 511.319 624.678 504.608 614.515 498.802L682.644 541.899ZM734.016 546.551C734.017 546.551 734.018 546.55 734.019 546.55L734.471 547.442M734.016 546.551C734.016 546.551 734.016 546.551 734.016 546.551L734.471 547.442M734.016 546.551C752.084 537.321 762.406 515.917 769.065 491.986C773.647 475.516 776.444 458.067 778.885 442.839C779.988 435.953 781.019 429.522 782.11 423.841M734.471 547.442C765.685 531.497 773.894 480.292 779.885 442.92C780.986 436.054 782.012 429.654 783.092 424.027M782.11 423.841L783.092 424.027M782.11 423.841C782.11 423.84 782.11 423.839 782.11 423.838L783.092 424.027M782.11 423.841L783.092 424.027M730.76 125.068L730.75 125.064C725.569 122.947 719.655 118.846 713.531 114.083C709.958 111.305 706.258 108.256 702.565 105.213C699.938 103.048 697.315 100.886 694.742 98.825C688.505 93.8299 682.514 89.3861 677.21 86.6624C671.844 83.9073 667.517 83.086 664.382 84.7463L664.382 84.7466C654.39 90.0301 645.618 98.184 637.355 107.662C630.881 115.088 624.758 123.281 618.615 131.5C616.913 133.777 615.21 136.056 613.498 138.321C597.784 159.105 581.259 178.793 558.257 183.739L558.255 183.74C540.147 187.604 524.406 195.145 509.014 203.746C503.968 206.565 498.948 209.506 493.894 212.467C483.572 218.513 473.103 224.647 461.954 230.016M730.76 125.068L461.519 229.115M730.76 125.068C735.085 126.778 739.234 127.594 742.47 125.242L730.76 125.068ZM461.954 230.016C461.954 230.016 461.954 230.016 461.953 230.016L461.519 229.115M461.954 230.016C461.955 230.015 461.955 230.015 461.956 230.015L461.519 229.115M461.954 230.016C459.606 231.154 456.732 231.517 453.551 231.371C450.361 231.224 446.787 230.562 442.987 229.581C435.974 227.772 428.057 224.841 420.18 221.924C419.528 221.683 418.877 221.442 418.227 221.201C409.678 218.042 401.267 215.011 394.052 213.471C390.447 212.702 387.187 212.316 384.389 212.457C381.59 212.598 379.322 213.263 377.626 214.53M461.519 229.115C453.278 233.112 436.946 227.065 420.515 220.982C402.79 214.419 384.95 207.814 377.027 213.729M377.626 214.53C377.626 214.53 377.626 214.53 377.626 214.529L377.027 213.729M377.626 214.53L377.027 213.729M377.626 214.53L377.027 213.729M822.233 307.734C822.231 307.735 822.23 307.736 822.229 307.737L822.947 308.434L822.233 307.734ZM876.43 265.966C876.429 265.967 876.428 265.969 876.427 265.971L877.274 266.503L876.431 265.964C876.431 265.965 876.43 265.965 876.43 265.966ZM865.98 152.382C866.006 152.409 866.033 152.437 866.061 152.464L866.761 151.749L865.928 152.303C865.945 152.33 865.963 152.356 865.98 152.382ZM367.573 375.786L366.59 375.966L367.574 375.787C367.574 375.786 367.573 375.786 367.573 375.786ZM836.364 126.159L836.835 125.276L836.353 126.153C836.356 126.154 836.358 126.156 836.361 126.157C836.362 126.158 836.363 126.158 836.364 126.159Z" stroke="url(#paint8_linear)" stroke-width="2" stroke-miterlimit="10"/>
<path d="M684.3 562.134L684.303 562.136C702.27 571.086 723.622 576.725 741.333 567.757L741.338 567.754C761.621 557.624 773.113 533.821 780.462 507.253C785.522 488.958 788.566 469.573 791.214 452.715C792.409 445.104 793.524 438.009 794.706 431.761L794.706 431.76C795.816 425.923 796.881 419.824 797.973 413.567C800.179 400.927 802.498 387.642 805.532 374.567C810.072 354.999 816.241 335.765 826.12 319.588L826.123 319.584C829.923 313.427 834.21 307.913 838.898 302.803L838.906 302.794L838.915 302.785C846.884 294.51 856.261 289.278 865.482 284.133C867.084 283.239 868.682 282.348 870.266 281.444C881.007 275.315 891.259 268.551 898.966 256.33C906.643 244.156 910.29 222.491 908.675 198.841C907.065 175.256 900.235 149.917 887.194 130.399C886.935 130.12 886.741 129.787 886.609 129.561L886.586 129.522C886.406 129.214 886.31 129.065 886.224 128.98L886.155 128.913L886.101 128.834C876.106 114.366 864.772 106.687 854.353 101.021C820.865 83.1311 782.586 77.6999 750.728 99.7333C747.272 102.149 742.679 101.531 737.874 99.3933C732.176 96.9214 725.668 92.2442 718.92 86.8282C715.021 83.6986 710.987 80.2761 706.959 76.8582C704.026 74.3703 701.097 71.8848 698.224 69.5164C691.358 63.8552 684.759 58.8132 678.92 55.704C673.017 52.56 668.238 51.5794 664.778 53.4153C653.739 59.3253 644.091 68.4614 635.03 79.0756C627.941 87.3798 621.25 96.5401 614.542 105.724C612.67 108.287 610.796 110.852 608.912 113.401C591.721 136.659 573.644 158.626 548.245 163.996L548.242 163.996C527.869 168.243 510.366 176.657 493.292 186.271C487.744 189.395 482.231 192.652 476.677 195.934C465.181 202.726 453.511 209.62 441.001 215.645C441.001 215.646 441.001 215.646 441.001 215.646L440.567 214.745C431.463 219.165 413.309 212.317 395.021 205.419C375.23 197.953 355.283 190.429 346.486 197.066L684.3 562.134ZM684.3 562.134C671.355 555.73 659.148 547.467 646.954 538.974C645.61 538.038 644.267 537.1 642.923 536.161C632.087 528.59 621.197 520.983 609.812 514.551C596.739 506.986 584.703 502.516 572.984 500.62C546.085 496.142 521.377 504.963 491.873 516.736C461.239 528.883 433.968 523.866 411.227 508.964C388.443 494.035 370.175 469.156 357.743 441.577C348.462 420.834 340.777 399.312 336.662 377.378L684.3 562.134Z" stroke="url(#paint9_linear)" stroke-width="2" stroke-miterlimit="10"/>
<path d="M685.954 582.369L685.96 582.372C705.681 592.571 729.12 598.831 748.979 589.113C771.358 578.124 784 551.866 792.078 522.577C797.58 502.629 800.914 481.502 803.815 463.114C805.172 454.516 806.434 446.517 807.779 439.517C808.946 433.213 810.065 426.62 811.213 419.851C813.581 405.89 816.077 391.177 819.393 376.688C824.321 355.155 831.086 333.981 842.026 316.238C846.131 309.451 850.737 303.28 856.169 297.896C864.897 288.78 875.187 283.009 885.325 277.322C887.056 276.351 888.784 275.383 890.498 274.4C902.289 267.642 913.571 260.19 922.063 246.764C930.523 233.388 934.487 209.55 932.689 183.528C930.893 157.554 923.37 129.628 909.089 108.123C908.821 107.768 908.638 107.455 908.481 107.187L908.475 107.176C908.312 106.899 908.177 106.67 907.977 106.409L907.962 106.389L907.948 106.369C896.901 90.3969 884.523 82.0114 873.146 75.879C836.687 56.3425 794.651 50.0756 759.548 74.2964L759.537 74.304L759.526 74.3114C755.591 76.8729 750.688 76.094 745.251 73.6461C739.052 70.8789 731.935 65.6435 724.537 59.5733C720.273 56.075 715.862 52.2522 711.453 48.4323C708.223 45.6335 704.995 42.8361 701.828 40.169C694.292 33.8221 687.046 28.1624 680.649 24.6678C674.18 21.1338 668.945 20.0161 665.182 22.0795L665.177 22.0823C653.09 28.6188 642.571 38.753 632.716 50.5239C625.039 59.6944 617.804 69.8083 610.554 79.9431C608.493 82.8244 606.431 85.7074 604.357 88.5709C585.699 114.332 566.068 138.58 538.229 144.253C515.711 148.841 496.386 158.149 477.559 168.767C471.6 172.128 465.682 175.625 459.727 179.146C446.905 186.723 433.91 194.404 419.965 201.037M685.954 582.369L419.532 200.136M685.954 582.369C671.804 575.18 658.551 566.011 645.279 556.621C644.147 555.82 643.015 555.018 641.882 554.215C629.752 545.616 617.542 536.961 604.623 529.667L685.954 582.369ZM419.965 201.037C419.964 201.038 419.962 201.039 419.961 201.039L419.532 200.136M419.965 201.037C419.966 201.037 419.968 201.036 419.969 201.036L419.532 200.136M419.965 201.037C417.155 202.402 413.687 202.816 409.816 202.596C405.936 202.375 401.572 201.512 396.917 200.249C388.331 197.92 378.617 194.189 368.93 190.469C368.121 190.159 367.313 189.848 366.506 189.539C355.989 185.508 345.619 181.628 336.723 179.615C332.278 178.609 328.248 178.081 324.784 178.217C321.32 178.354 318.494 179.152 316.377 180.729M419.532 200.136C409.54 204.993 389.483 197.291 369.277 189.531C347.461 181.154 325.471 172.709 315.779 179.927M316.377 180.729C316.378 180.729 316.378 180.728 316.379 180.728L315.779 179.927M316.377 180.729C316.377 180.729 316.377 180.729 316.377 180.729L315.779 179.927M316.377 180.729L315.779 179.927M564.451 514.5C564.449 514.5 564.447 514.5 564.445 514.499L564.279 515.485L564.455 514.501C564.454 514.501 564.452 514.5 564.451 514.5Z" stroke="url(#paint10_linear)" stroke-width="2" stroke-miterlimit="10"/>
<path d="M687.609 602.603L687.606 602.602C672.25 594.628 657.89 584.573 643.534 574.259C642.066 573.204 640.597 572.146 639.128 571.088C626.249 561.811 613.292 552.478 599.607 544.472L599.602 544.469C584.205 535.574 570.008 530.249 556.292 527.974C524.282 522.591 495.524 532.809 460.381 546.794L460.377 546.795C423.477 561.635 390.697 555.521 363.42 537.519C336.1 519.488 314.271 489.504 299.471 456.607L299.47 456.605C288.317 431.98 279.153 406.169 274.192 379.46C273.225 374.206 272.149 368.586 271.017 362.674C265.357 333.121 258.302 296.287 256.676 261.597C255.7 240.788 256.682 220.814 261.067 203.694C265.449 186.58 273.212 172.391 285.743 163.033C288.076 161.315 291.185 160.459 294.984 160.33C298.784 160.201 303.2 160.802 308.065 161.926C317.801 164.174 329.147 168.467 340.644 172.927C341.565 173.284 342.487 173.642 343.409 174.001C353.963 178.102 364.535 182.211 373.88 184.803C378.965 186.214 383.726 187.187 387.956 187.462C392.177 187.736 395.949 187.319 398.999 185.873L399.006 185.87C413.872 178.687 427.75 170.431 441.445 162.285C448.201 158.266 454.913 154.273 461.677 150.449C482.196 138.848 503.305 128.724 527.971 123.795L527.972 123.794C558.085 117.739 579.287 91.2751 599.434 63.0695C601.729 59.8561 604.011 56.6191 606.292 53.3837C614.061 42.363 621.817 31.3611 630.044 21.3716C640.679 8.4566 652.036 -2.68116 665.091 -9.8837C669.182 -12.124 674.875 -10.8305 681.89 -6.88514C688.829 -2.98227 696.693 3.30576 704.869 10.3487C708.323 13.3236 711.843 16.4426 715.364 19.5629C720.131 23.7868 724.901 28.0133 729.514 31.8886C737.543 38.6339 745.26 44.4599 751.977 47.5822C757.812 50.4231 763.305 51.3044 767.416 48.3855C805.763 21.9832 851.469 28.8507 890.971 50.2647C903.372 57.0921 916.764 66.163 928.844 83.5693C929.154 84.3798 929.688 85.0761 930.12 85.64L930.141 85.6676C945.755 109.112 953.963 139.6 955.942 167.944C957.925 196.336 953.644 222.351 944.517 236.889L944.516 236.89C935.281 251.638 923.03 259.757 910.21 267.102C908.319 268.185 906.414 269.253 904.503 270.323C893.497 276.49 882.317 282.753 872.769 292.708C866.787 298.816 861.873 305.625 857.382 312.799L857.378 312.805L857.374 312.812C845.576 332.318 838.293 355.47 832.976 378.971C829.47 394.471 826.807 410.186 824.276 425.124C822.973 432.813 821.705 440.297 820.375 447.44C818.992 454.825 817.686 463.238 816.282 472.28C813.139 492.528 809.505 515.929 803.427 537.994C794.629 569.93 780.816 598.591 756.374 610.559L756.373 610.559C734.938 621.085 709.026 613.827 687.609 602.603ZM687.145 603.489C708.624 614.745 734.925 622.205 756.814 611.457L687.145 603.489Z" stroke="url(#paint11_linear)" stroke-width="2" stroke-miterlimit="10"/>
<path d="M689.257 622.835L689.256 622.834C672.693 614.075 657.247 603.193 641.785 592.092C640.612 591.25 639.438 590.406 638.264 589.562C623.985 579.295 609.619 568.966 594.343 560.146L594.339 560.144C577.658 550.623 562.588 545.073 547.685 542.413L547.679 542.412C513.351 536.493 482.367 547.21 444.438 562.423L444.433 562.425C404.441 578.729 368.949 572.086 339.435 552.524C309.876 532.932 286.286 500.356 270.302 464.8L270.301 464.797C258.085 437.866 247.946 409.996 242.722 380.986L241.738 381.163L242.722 380.986C241.578 374.636 240.276 367.785 238.901 360.549C232.898 328.962 225.499 290.026 223.679 253.277C222.561 230.701 223.553 209.015 228.245 190.419C232.936 171.826 241.305 156.396 254.885 146.212C257.393 144.336 260.753 143.409 264.865 143.277C268.977 143.145 273.764 143.811 279.041 145.047C289.6 147.519 301.929 152.223 314.422 157.105C315.408 157.491 316.394 157.877 317.381 158.263C328.868 162.761 340.374 167.266 350.536 170.114C356.057 171.662 361.222 172.732 365.802 173.041C370.374 173.349 374.446 172.905 377.726 171.346L377.728 171.345C394.027 163.554 409.229 154.514 424.248 145.582C431.409 141.323 438.528 137.089 445.704 133.028C467.976 120.422 490.908 109.404 517.719 104.134C534.014 100.95 547.839 92.1636 560.28 80.3602C572.712 68.5642 583.81 53.7091 594.638 38.3237C597.12 34.7976 599.587 31.2446 602.053 27.6929C610.367 15.7194 618.67 3.76153 627.489 -7.09613C638.916 -21.1668 651.144 -33.3025 665.246 -41.1321C667.418 -42.3265 670.022 -42.569 673.06 -41.955C676.109 -41.3389 679.535 -39.8708 683.265 -37.7247C690.729 -33.4314 699.208 -26.5465 708.029 -18.8425C711.762 -15.5823 715.566 -12.1663 719.373 -8.74831C724.514 -4.1319 729.659 0.488016 734.637 4.73211C743.314 12.1284 751.645 18.5269 758.882 22.002L758.891 22.0063L758.9 22.0104C765.264 24.9109 770.835 26.0361 775.425 22.9666L775.436 22.9593C817.026 -5.63169 866.25 2.15002 908.966 25.1302C922.641 32.5786 937.163 42.5927 950.214 61.2699C950.525 62.0804 951.059 62.7767 951.491 63.3406L951.51 63.3651C968.383 88.9098 977.254 121.904 979.397 152.556C981.542 183.257 976.925 211.39 967.052 227.254C957.152 243.162 943.874 251.968 929.973 259.953C927.941 261.12 925.895 262.27 923.843 263.423C911.889 270.141 899.755 276.96 889.451 287.758L889.443 287.766C883.163 294.503 877.857 301.706 873.046 309.535L873.044 309.538C860.185 330.611 852.303 355.704 846.599 381.174C842.809 398.094 839.968 415.243 837.273 431.508C835.915 439.704 834.595 447.676 833.209 455.281C831.734 463.228 830.345 472.301 828.85 482.064C825.499 503.943 821.618 529.285 815.061 553.179C805.573 587.751 790.59 618.813 763.931 631.681L763.926 631.683C740.431 643.186 712.36 635.078 689.257 622.835Z" stroke="url(#paint12_linear)" stroke-width="2" stroke-miterlimit="10"/>
<path d="M690.911 643.069L690.907 643.067C673.138 633.522 656.586 621.755 639.967 609.817C639.288 609.329 638.609 608.842 637.93 608.353C622.002 596.907 605.966 585.383 588.766 575.668C570.948 565.196 554.44 559.346 538.669 556.457L538.662 556.456C502.014 550.001 468.884 561.46 428.177 577.897L428.175 577.898C385.128 595.389 346.899 588.158 315.116 567.045C283.289 545.903 257.899 510.814 240.732 472.601C227.776 443.522 216.896 413.505 211.171 382.266L211.171 382.265C209.948 375.644 208.566 368.511 207.107 360.979C200.49 326.823 192.285 284.476 190.201 244.524C188.93 220.151 189.942 196.734 194.959 176.664C199.974 156.598 208.973 139.953 223.618 129.001C226.342 126.984 229.987 126.003 234.436 125.885C238.886 125.766 244.061 126.514 249.762 127.876C261.167 130.603 274.48 135.742 287.959 141.068C288.998 141.478 290.038 141.89 291.077 142.301C303.497 147.217 315.931 152.139 326.904 155.255C332.853 156.944 338.413 158.115 343.339 158.461C348.255 158.806 352.624 158.336 356.134 156.664L356.136 156.663C373.671 148.265 389.98 138.509 406.097 128.867C413.782 124.27 421.424 119.699 429.134 115.314C453.058 101.705 477.753 89.8123 506.831 84.1599C524.322 80.765 539.152 71.3139 552.489 58.5926C565.818 45.8788 577.702 29.8516 589.291 13.2374C592.014 9.3325 594.721 5.39614 597.427 1.46142C606.252 -11.3733 615.065 -24.1904 624.417 -35.8425C636.631 -51.0597 649.696 -64.2002 664.77 -72.6963C667.128 -74.0182 669.947 -74.2891 673.225 -73.6249C676.514 -72.9583 680.206 -71.3598 684.221 -69.0229C692.253 -64.3479 701.371 -56.8431 710.847 -48.4483C714.892 -44.8652 719.013 -41.1097 723.134 -37.354C728.619 -32.3553 734.105 -27.3561 739.412 -22.762C748.72 -14.7051 757.645 -7.74326 765.385 -3.9731C772.2 -0.653004 778.226 0.282169 783.04 -2.85152L783.051 -2.85886L783.062 -2.86653C827.421 -33.4773 880.555 -25.1783 926.317 -0.317946L926.32 -0.316648C941.301 7.76958 956.892 18.5117 970.775 38.8384L970.791 38.861L970.808 38.8826C971.034 39.1783 971.284 39.535 971.55 39.9157L971.556 39.9243C971.807 40.2828 972.073 40.663 972.323 40.9912C990.531 68.4746 1000.09 104.032 1002.41 137.055C1004.74 170.126 999.809 200.435 989.269 217.461L989.269 217.462C978.625 234.691 964.319 244.185 949.359 252.768C947.163 254.028 944.95 255.27 942.733 256.514C929.881 263.725 916.854 271.034 905.818 282.649L905.812 282.655C899.137 289.794 893.279 297.723 888.153 306.197L888.15 306.202C874.554 328.995 866.216 356.044 860.153 383.468C856.206 401.323 853.212 419.401 850.366 436.584C848.844 445.77 847.365 454.699 845.806 463.202L845.806 463.203C844.292 471.533 842.857 481.018 841.314 491.221C837.724 514.956 833.546 542.579 826.411 568.595C816.203 605.815 800.05 639.279 771.329 653.125C746.164 665.209 715.771 656.563 690.911 643.069Z" stroke="url(#paint13_linear)" stroke-width="2" stroke-miterlimit="10"/>
<path d="M692.557 663.3L692.555 663.299C673.583 652.97 655.985 640.297 638.372 627.405C637.211 626.555 636.051 625.705 634.89 624.854C618.446 612.804 601.91 600.687 584.22 590.305L584.216 590.303C565.12 579.208 547.649 572.887 530.753 569.849L530.749 569.849C491.548 562.943 455.957 574.982 412.702 592.565L412.701 592.565C366.399 611.445 325.416 603.762 291.388 581.159C257.314 558.526 230.184 520.906 211.793 479.913C197.941 449.013 186.239 416.613 180.012 383.144C178.676 375.907 177.157 368.09 175.551 359.824C168.467 323.363 159.686 278.169 157.396 235.506C155.992 209.345 157.033 184.202 162.38 162.66C167.726 141.122 177.355 123.26 193.068 111.541L193.068 111.541C195.999 109.354 199.92 108.297 204.702 108.176C209.481 108.056 215.041 108.875 221.163 110.359C233.41 113.327 247.709 118.909 262.179 124.693C263.32 125.149 264.463 125.607 265.605 126.064C278.913 131.393 292.228 136.725 303.973 140.114C310.354 141.955 316.311 143.234 321.584 143.623C326.848 144.012 331.515 143.52 335.255 141.734L335.257 141.734C353.914 132.783 371.297 122.392 388.488 112.115C396.837 107.124 405.141 102.16 413.523 97.4009C439.211 82.8182 465.75 70.0892 496.976 64.0955L496.977 64.0954C515.603 60.5093 531.38 50.4139 545.561 36.7926C559.734 23.1788 572.361 5.99498 584.679 -11.8373C587.587 -16.0475 590.478 -20.293 593.368 -24.5375C602.737 -38.299 612.1 -52.0507 622.044 -64.5634C635.048 -80.9277 648.98 -95.0825 665.082 -104.266C667.574 -105.665 670.565 -105.933 674.05 -105.196C677.547 -104.456 681.478 -102.714 685.755 -100.182C694.31 -95.1163 704.043 -87.0146 714.164 -77.9588C718.487 -74.091 722.891 -70.039 727.296 -65.9862C733.157 -60.5946 739.019 -55.2014 744.693 -50.2379C754.645 -41.5326 764.182 -34.0003 772.441 -29.8766L772.449 -29.8723C779.542 -26.4174 786.248 -25.1257 791.246 -28.6191C838.85 -61.4146 895.656 -52.5151 944.463 -25.7759L944.471 -25.7718C960.409 -17.2194 977.042 -5.77289 991.976 16.0529C992.267 16.4995 992.536 16.8849 992.797 17.2567L992.797 17.2571C993.06 17.634 993.314 17.997 993.588 18.4167L993.591 18.4217C1013.03 47.8908 1023.33 86.006 1025.9 121.39C1028.48 156.812 1023.29 189.273 1011.96 207.5L1011.96 207.501C1000.53 225.934 985.18 236.056 969.158 245.24C966.917 246.524 964.661 247.791 962.401 249.061C948.536 256.847 934.494 264.733 922.656 277.378L922.649 277.385C915.432 285.239 909.179 293.569 903.737 302.692C889.122 327.169 880.186 356.158 873.724 385.52C869.463 404.884 866.267 424.474 863.235 443.057C861.673 452.629 860.155 461.935 858.557 470.804L858.557 470.806C856.982 479.63 855.491 489.672 853.886 500.476C850.098 525.987 845.679 555.745 838.035 583.75C827.147 623.637 809.824 659.502 778.883 674.249L778.881 674.25C751.656 687.31 719.103 677.813 692.557 663.3Z" stroke="url(#paint14_linear)" stroke-width="2" stroke-miterlimit="10"/>
<path d="M871.236 478.962L871.235 478.966C869.588 488.24 868.024 498.795 866.34 510.156C862.306 537.375 857.586 569.224 849.394 599.196C837.777 641.699 819.283 679.967 786.282 695.692C757.389 709.331 722.755 699.219 694.204 683.531C674.026 672.417 655.322 658.858 636.612 645.208L635.189 644.169C616.971 630.875 598.711 617.551 579.12 606.456C558.984 594.657 540.551 587.866 522.534 584.68L522.531 584.68C481.097 577.479 443.283 590.017 397.246 608.827C347.769 628.935 304.051 620.663 267.784 596.499C231.472 572.306 202.602 532.152 183.027 488.501L183.026 488.5C168.197 455.538 155.756 420.995 149.267 385.22L149.266 385.219C147.758 376.936 146.019 367.941 144.176 358.408C136.713 319.801 127.541 272.36 125.051 227.529C123.499 199.586 124.548 172.723 130.201 149.701C135.853 126.682 146.088 107.58 162.848 95.0339L162.851 95.0314C165.958 92.6861 170.127 91.5595 175.214 91.4386C180.3 91.3178 186.221 92.2045 192.743 93.8043C205.791 97.0051 221.043 103.008 236.48 109.225C237.679 109.709 238.881 110.193 240.082 110.678C254.298 116.414 268.525 122.154 281.07 125.807C287.875 127.788 294.227 129.168 299.844 129.594C305.453 130.019 310.416 129.501 314.385 127.602L314.387 127.602C334.281 118.044 352.799 106.927 371.117 95.9306C380.002 90.597 388.839 85.2917 397.763 80.2064C425.134 64.6102 453.436 51.0068 486.809 44.672C506.653 40.9341 523.425 30.1941 538.481 15.6537C553.53 1.12068 566.912 -17.2576 579.965 -36.3429C583.056 -40.8636 586.129 -45.4228 589.201 -49.9815C599.118 -64.698 609.031 -79.4081 619.57 -92.7908C633.368 -110.312 648.171 -125.467 665.323 -135.278L665.324 -135.278C667.972 -136.795 671.147 -137.087 674.843 -136.295C678.55 -135.501 682.716 -133.628 687.249 -130.905C696.315 -125.458 706.635 -116.743 717.376 -107.001C721.893 -102.905 726.492 -98.6182 731.097 -94.3274C737.397 -88.4565 743.706 -82.5774 749.822 -77.1658C760.413 -67.7945 770.58 -59.6831 779.417 -55.2247C787.04 -51.1133 793.959 -49.9265 799.422 -53.5626L799.428 -53.5668L799.434 -53.5712C850.282 -88.5531 910.605 -78.7376 962.623 -50.4332C979.612 -41.1714 997.291 -29.0152 1013.28 -5.68006L1013.29 -5.65815L1013.31 -5.63707C1013.77 -5.04164 1014.31 -4.20737 1014.88 -3.32494L1014.89 -3.32159C1035.54 28.1284 1046.53 68.808 1049.29 106.562C1052.04 144.354 1046.53 178.989 1034.43 198.419L1034.43 198.423C1022.25 218.178 1005.93 228.968 988.879 238.739C986.461 240.124 984.027 241.49 981.587 242.859C966.858 251.123 951.931 259.499 939.274 272.977C931.566 281.009 924.999 289.986 919.249 299.743C903.693 325.745 894.219 356.653 887.37 387.981C882.929 408.296 879.579 428.854 876.397 448.383C874.676 458.944 873.005 469.205 871.236 478.962Z" stroke="url(#paint15_linear)" stroke-width="2" stroke-miterlimit="10"/>
<path d="M153.849 495.895L152.938 496.306L153.849 495.895C138.044 460.873 124.78 423.946 117.707 385.704C116.083 376.773 114.199 367.044 112.198 356.713C104.295 315.898 94.5738 265.693 91.8751 218.206C90.1847 188.46 91.2559 159.849 97.2327 135.337C103.209 110.827 114.068 90.4948 131.895 77.181L131.897 77.179C135.189 74.7034 139.62 73.5301 145.029 73.4286C150.436 73.3272 156.736 74.2988 163.676 76.0275C177.56 79.4861 193.803 85.9219 210.241 92.5775C211.452 93.0681 212.665 93.5599 213.878 94.0517C229.084 100.218 244.307 106.392 257.718 110.318C264.961 112.438 271.715 113.915 277.684 114.376C283.643 114.836 288.906 114.29 293.104 112.279L293.106 112.278C314.124 102.168 333.717 90.4146 353.11 78.7822C362.657 73.0553 372.155 67.3576 381.751 61.8996C410.885 45.3288 441.032 30.8893 476.553 24.2133C497.592 20.2638 515.365 8.84451 531.311 -6.63255C547.249 -22.1018 561.411 -41.6743 575.218 -62.0029C578.508 -66.8482 581.778 -71.7355 585.048 -76.6218C595.515 -92.2658 605.976 -107.901 617.095 -122.121C631.681 -140.777 647.331 -156.905 665.472 -167.323L665.473 -167.324C668.885 -169.288 673.147 -169.303 678.215 -167.645C683.284 -165.985 689.021 -162.692 695.233 -158.258C707.531 -149.479 721.456 -136.404 735.428 -123.285L735.852 -122.887C749.931 -109.668 764.043 -96.4452 776.441 -87.7574C782.639 -83.4146 788.475 -80.1561 793.717 -78.6133C798.97 -77.0673 803.758 -77.2109 807.686 -79.8778L807.689 -79.8794C861.626 -116.729 925.624 -106.313 980.689 -76.1287L980.693 -76.1264C998.636 -66.3993 1017.44 -53.2991 1034.49 -28.4567L1034.49 -28.4555C1057.34 4.75941 1069.5 48.4288 1072.66 89.1071C1075.83 129.823 1069.97 167.312 1057.04 188.224C1044.08 209.184 1026.73 220.662 1008.63 231.062C1006.08 232.526 1003.51 233.969 1000.94 235.416C985.294 244.224 969.451 253.141 956.033 267.466C930.12 295.056 915.266 332.347 905.311 371.431C898.288 399.008 893.684 427.571 889.375 454.305C887.579 465.443 885.835 476.264 883.988 486.564L883.988 486.566C882.253 496.382 880.605 507.573 878.829 519.633C874.574 548.528 869.585 582.409 860.899 614.292C848.582 659.506 828.937 700.234 793.834 716.817C762.881 731.433 726.087 720.468 695.849 703.76L695.365 704.636L695.849 703.76C674.509 691.981 654.72 677.597 634.937 663.052C634.035 662.389 633.133 661.726 632.231 661.062C613.363 647.183 594.435 633.259 574.177 621.494L574.176 621.494C538.859 601.004 508.264 594.365 477.676 596.488C447.133 598.607 416.664 609.462 381.618 623.815C329.008 645.269 282.554 636.409 244.009 610.665C205.418 584.891 174.727 542.164 153.849 495.895Z" stroke="url(#paint16_linear)" stroke-width="2" stroke-miterlimit="10"/>
<defs>
<linearGradient id="paint0_linear" x1="652.673" y1="336.314" x2="668.271" y2="381.545" gradientUnits="userSpaceOnUse">
<stop stop-color="#A100EF"/>
<stop offset="1" stop-color="#13ECAB"/>
</linearGradient>
<linearGradient id="paint1_linear" x1="642.489" y1="311.177" x2="673.908" y2="402.282" gradientUnits="userSpaceOnUse">
<stop stop-color="#A100EF"/>
<stop offset="1" stop-color="#13ECAB"/>
</linearGradient>
<linearGradient id="paint2_linear" x1="631.66" y1="283.481" x2="680.016" y2="423.698" gradientUnits="userSpaceOnUse">
<stop stop-color="#A100EF"/>
<stop offset="1" stop-color="#13ECAB"/>
</linearGradient>
<linearGradient id="paint3_linear" x1="621.031" y1="255.945" x2="686.343" y2="445.328" gradientUnits="userSpaceOnUse">
<stop stop-color="#A100EF"/>
<stop offset="1" stop-color="#13ECAB"/>
</linearGradient>
<linearGradient id="paint4_linear" x1="609.947" y1="228.286" x2="692.274" y2="467.006" gradientUnits="userSpaceOnUse">
<stop stop-color="#A100EF"/>
<stop offset="1" stop-color="#13ECAB"/>
</linearGradient>
<linearGradient id="paint5_linear" x1="599.146" y1="200.524" x2="698.551" y2="488.766" gradientUnits="userSpaceOnUse">
<stop stop-color="#A100EF"/>
<stop offset="1" stop-color="#13ECAB"/>
</linearGradient>
<linearGradient id="paint6_linear" x1="588.768" y1="172.651" x2="705.265" y2="510.455" gradientUnits="userSpaceOnUse">
<stop stop-color="#A100EF"/>
<stop offset="1" stop-color="#13ECAB"/>
</linearGradient>
<linearGradient id="paint7_linear" x1="577.534" y1="145.039" x2="711.057" y2="532.209" gradientUnits="userSpaceOnUse">
<stop stop-color="#A100EF"/>
<stop offset="1" stop-color="#13ECAB"/>
</linearGradient>
<linearGradient id="paint8_linear" x1="566.672" y1="117.297" x2="717.2" y2="553.779" gradientUnits="userSpaceOnUse">
<stop stop-color="#A100EF"/>
<stop offset="1" stop-color="#13ECAB"/>
</linearGradient>
<linearGradient id="paint9_linear" x1="555.954" y1="89.791" x2="723.422" y2="575.389" gradientUnits="userSpaceOnUse">
<stop stop-color="#A100EF"/>
<stop offset="1" stop-color="#13ECAB"/>
</linearGradient>
<linearGradient id="paint10_linear" x1="545.384" y1="62.2152" x2="729.86" y2="597.133" gradientUnits="userSpaceOnUse">
<stop stop-color="#A100EF"/>
<stop offset="1" stop-color="#13ECAB"/>
</linearGradient>
<linearGradient id="paint11_linear" x1="534.36" y1="34.0152" x2="736.102" y2="618.999" gradientUnits="userSpaceOnUse">
<stop stop-color="#A100EF"/>
<stop offset="1" stop-color="#13ECAB"/>
</linearGradient>
<linearGradient id="paint12_linear" x1="523.438" y1="6.57897" x2="742.12" y2="640.681" gradientUnits="userSpaceOnUse">
<stop stop-color="#A100EF"/>
<stop offset="1" stop-color="#13ECAB"/>
</linearGradient>
<linearGradient id="paint13_linear" x1="512.181" y1="-21.293" x2="748.038" y2="662.611" gradientUnits="userSpaceOnUse">
<stop stop-color="#A100EF"/>
<stop offset="1" stop-color="#13ECAB"/>
</linearGradient>
<linearGradient id="paint14_linear" x1="501.471" y1="-49.0686" x2="754.349" y2="684.192" gradientUnits="userSpaceOnUse">
<stop stop-color="#A100EF"/>
<stop offset="1" stop-color="#13ECAB"/>
</linearGradient>
<linearGradient id="paint15_linear" x1="490.679" y1="-76.3026" x2="760.487" y2="706.049" gradientUnits="userSpaceOnUse">
<stop stop-color="#A100EF"/>
<stop offset="1" stop-color="#13ECAB"/>
</linearGradient>
<linearGradient id="paint16_linear" x1="479.762" y1="-104.546" x2="766.757" y2="727.644" gradientUnits="userSpaceOnUse">
<stop stop-color="#A100EF"/>
<stop offset="1" stop-color="#13ECAB"/>
</linearGradient>
</defs>
</svg>
